<svg width="217" height="129" viewBox="0 0 217 129" fill="none" xmlns="http://www.w3.org/2000/svg">
<rect width="217" height="128.708" fill="#F8F8F8"/>
<g filter="url(#filter0_d_3946_38700)">
<g clip-path="url(#clip0_3946_38700)">
<rect x="31" y="12.2197" width="155.809" height="103.086" rx="3.93457" fill="white"/>
<rect width="156.734" height="6.68535" transform="translate(30.5029 12.2891)" fill="#EBEBEB"/>
<circle cx="34.6526" cy="15.6965" r="0.806852" fill="#BFBFBF"/>
<circle cx="37.1887" cy="15.6965" r="0.806852" fill="#BFBFBF"/>
<circle cx="39.7238" cy="15.6965" r="0.806852" fill="#BFBFBF"/>
<circle cx="60.3444" cy="29.3434" r="3.14426" fill="#E6F1F5" stroke="#6BACC2" stroke-width="0.400252"/>
<circle cx="108.344" cy="29.3434" r="3.14426" fill="#E6F1F5" stroke="#6BACC2" stroke-width="0.400252"/>
<circle cx="156.344" cy="29.3434" r="3.14426" fill="white" stroke="#007095" stroke-width="0.400252"/>
<path d="M104 28.999H65" stroke="#DFDFDF" stroke-width="0.590186"/>
<path d="M152 28.999H113" stroke="#DFDFDF" stroke-width="0.590186"/>
</g>
</g>
<rect x="38" y="37.999" width="44.6847" height="70" rx="2.77833" fill="#F8F8F8"/>
<rect x="40.4307" y="40.4297" width="39.9384" height="9.02956" rx="1.73645" fill="#007095"/>
<rect width="25.0049" height="2.77833" transform="translate(43.21 43.5547)" fill="white"/>
<rect x="40.4307" y="51.542" width="39.9384" height="9.02956" rx="1.73645" fill="#96C4D4"/>
<rect width="15.2808" height="2.77833" transform="translate(43.21 54.668)" fill="white"/>
<rect x="40.6043" y="62.8299" width="39.5911" height="8.68227" rx="1.56281" fill="white"/>
<rect x="40.6043" y="62.8299" width="39.5911" height="8.68227" rx="1.56281" stroke="#DFDFDF" stroke-width="0.347291" stroke-dasharray="0.69 0.69"/>
<path d="M60.2012 65.0869V69.1981" stroke="#D9DADA" stroke-width="0.567929" stroke-miterlimit="10" stroke-linecap="round"/>
<path d="M58.1436 67.1445H62.2548" stroke="#D9DADA" stroke-width="0.567929" stroke-miterlimit="10" stroke-linecap="round"/>
<rect x="86.1572" y="37.999" width="44.6847" height="70" rx="2.77833" fill="#F8F8F8"/>
<rect x="88.7041" y="40.4297" width="39.9384" height="9.02956" rx="1.73645" fill="#96C4D4"/>
<rect width="15.2808" height="2.77833" transform="translate(91.4824 43.5547)" fill="white"/>
<rect x="88.8777" y="51.7156" width="39.5911" height="8.68227" rx="1.56281" fill="white"/>
<rect x="88.8777" y="51.7156" width="39.5911" height="8.68227" rx="1.56281" stroke="#DFDFDF" stroke-width="0.347291" stroke-dasharray="0.69 0.69"/>
<path d="M108.473 53.9736V58.0849" stroke="#D9DADA" stroke-width="0.567929" stroke-miterlimit="10" stroke-linecap="round"/>
<path d="M106.417 56.0303H110.528" stroke="#D9DADA" stroke-width="0.567929" stroke-miterlimit="10" stroke-linecap="round"/>
<rect x="134.489" y="38.1727" width="44.3374" height="69.6527" rx="2.60468" stroke="#DFDFDF" stroke-width="0.347291"/>
<path d="M156.747 70.4277V75.1094" stroke="#D9DADA" stroke-width="0.567929" stroke-miterlimit="10" stroke-linecap="round"/>
<path d="M154.688 72.7695H158.8" stroke="#D9DADA" stroke-width="0.567929" stroke-miterlimit="10" stroke-linecap="round"/>
<defs>
<filter id="filter0_d_3946_38700" x="24.7355" y="11.1756" width="168.338" height="115.615" filterUnits="userSpaceOnUse" color-interpolation-filters="sRGB">
<feFlood flood-opacity="0" result="BackgroundImageFix"/>
<feColorMatrix in="SourceAlpha" type="matrix" values="0 0 0 0 0 0 0 0 0 0 0 0 0 0 0 0 0 0 127 0" result="hardAlpha"/>
<feOffset dy="5.22043"/>
<feGaussianBlur stdDeviation="3.13226"/>
<feComposite in2="hardAlpha" operator="out"/>
<feColorMatrix type="matrix" values="0 0 0 0 0 0 0 0 0 0 0 0 0 0 0 0 0 0 0.1 0"/>
<feBlend mode="normal" in2="BackgroundImageFix" result="effect1_dropShadow_3946_38700"/>
<feBlend mode="normal" in="SourceGraphic" in2="effect1_dropShadow_3946_38700" result="shape"/>
</filter>
<clipPath id="clip0_3946_38700">
<rect x="31" y="12.2197" width="155.809" height="103.086" rx="3.93457" fill="white"/>
</clipPath>
</defs>
</svg>
