<svg xmlns="http://www.w3.org/2000/svg" width="239" height="158" fill="none" viewBox="0 0 239 158">
  <g clip-path="url(#clip0_1684_201600)">
    <rect width="239" height="158" fill="#f8f8f8" />
    <g filter="url(#filter0_d_1684_201600)">
      <g clip-path="url(#clip1_1684_201600)">
        <rect width="180.139" height="111.413" x="29.431" y="23.507" fill="#fff" rx="4.269" />
        <rect width="180.139" height="7.684" fill="#EBEBEB" transform="translate(29.4307 23.5068)" />
        <circle cx="34.2" cy="27.422" r=".927" fill="#BFBFBF" />
        <circle cx="37.114" cy="27.422" r=".927" fill="#BFBFBF" />
        <circle cx="40.029" cy="27.422" r=".927" fill="#BFBFBF" />
        <rect width="90.07" height="103.73" fill="#F8F8F8" transform="translate(119.5 31.1904)" />
        <rect width="18.09" height="1.846" fill="#fff" transform="translate(125.477 40.9165)" />
        <g clip-path="url(#clip2_1684_201600)">
          <rect width="9.968" height="1.846" fill="#E7E7E7" transform="translate(125.477 47.5615)" />
          <rect width="5.722" height="1.846" fill="#E7E7E7" transform="translate(143.382 47.5615)" />
          <rect width="30.642" height="1.846" fill="#fff" transform="translate(150.396 47.5615)" />
          <rect width="4.984" height="1.846" fill="#BFBFBF" transform="translate(136.736 47.5615)" />
        </g>
        <g clip-path="url(#clip3_1684_201600)">
          <g clip-path="url(#clip4_1684_201600)">
            <rect width="9.968" height="1.846" fill="#E7E7E7" transform="translate(125.477 50.8843)" />
            <rect width="9.968" height="1.846" fill="#E7E7E7" transform="translate(125.477 50.8843)" />
          </g>
          <rect width="9.414" height="1.846" fill="#BFBFBF" transform="translate(136.736 50.8843)" />
          <rect width="5.722" height="1.846" fill="#E7E7E7" transform="translate(147.442 50.8843)" />
          <rect width="49.84" height="1.846" fill="#fff" transform="translate(154.457 50.8843)" />
        </g>
        <g clip-path="url(#clip5_1684_201600)">
          <rect width="9.968" height="1.846" fill="#E7E7E7" transform="translate(125.477 54.207)" />
          <rect width="19.013" height="1.846" fill="#BFBFBF" transform="translate(136.736 54.207)" />
          <rect width="5.722" height="1.846" fill="#E7E7E7" transform="translate(157.042 54.207)" />
          <rect width="40.241" height="1.846" fill="#fff" transform="translate(164.056 54.207)" />
        </g>
        <g clip-path="url(#clip6_1684_201600)">
          <rect width="9.968" height="1.846" fill="#E7E7E7" transform="translate(125.477 57.3911)" />
          <rect width="67.561" height="1.846" fill="#BFBFBF" transform="translate(136.736 57.3911)" />
        </g>
        <g clip-path="url(#clip7_1684_201600)">
          <rect width="9.968" height="1.846" fill="#E7E7E7" transform="translate(125.477 60.7139)" />
          <rect width="12.921" height="1.846" fill="#BFBFBF" transform="translate(136.736 60.7139)" />
          <rect width="5.722" height="1.846" fill="#E7E7E7" transform="translate(150.95 60.7139)" />
          <rect width="46.333" height="1.846" fill="#fff" transform="translate(157.965 60.7139)" />
        </g>
        <g clip-path="url(#clip8_1684_201600)">
          <rect width="9.968" height="1.846" fill="#E7E7E7" transform="translate(125.477 67.3594)" />
          <rect width="67.561" height="1.846" fill="#BFBFBF" transform="translate(136.736 67.3594)" />
        </g>
        <g clip-path="url(#clip9_1684_201600)">
          <rect width="9.968" height="1.846" fill="#E7E7E7" transform="translate(125.477 70.9702)" />
          <rect width="12.552" height="1.846" fill="#BFBFBF" transform="translate(136.736 70.9702)" />
          <rect width="5.722" height="1.846" fill="#E7E7E7" transform="translate(150.581 70.9702)" />
          <rect width="46.702" height="1.846" fill="#fff" transform="translate(157.596 70.9702)" />
        </g>
        <g clip-path="url(#clip10_1684_201600)">
          <rect width="9.968" height="1.846" fill="#E7E7E7" transform="translate(125.477 74.1548)" />
          <rect width="12.552" height="1.846" fill="#BFBFBF" transform="translate(136.736 74.1548)" />
          <rect width="5.722" height="1.846" fill="#E7E7E7" transform="translate(150.581 74.1548)" />
          <rect width="46.702" height="1.846" fill="#fff" transform="translate(157.596 74.1548)" />
        </g>
        <g clip-path="url(#clip11_1684_201600)">
          <rect width="9.968" height="1.846" fill="#E7E7E7" transform="translate(125.477 77.3389)" />
          <rect width="67.561" height="1.846" fill="#BFBFBF" transform="translate(136.736 77.3389)" />
        </g>
        <g clip-path="url(#clip12_1684_201600)">
          <rect width="9.968" height="1.846" fill="#E7E7E7" transform="translate(125.477 83.9844)" />
          <rect width="7.753" height="1.846" fill="#BFBFBF" transform="translate(136.736 83.9844)" />
          <rect width="5.722" height="1.846" fill="#E7E7E7" transform="translate(145.781 83.9844)" />
          <rect width="51.501" height="1.846" fill="#fff" transform="translate(152.796 83.9844)" />
        </g>
        <g clip-path="url(#clip13_1684_201600)">
          <rect width="9.968" height="1.846" fill="#E7E7E7" transform="translate(125.477 87.3071)" />
          <rect width="12.552" height="1.846" fill="#BFBFBF" transform="translate(136.736 87.3071)" />
          <rect width="5.722" height="1.846" fill="#E7E7E7" transform="translate(150.581 87.3071)" />
          <rect width="46.702" height="1.846" fill="#fff" transform="translate(157.596 87.3071)" />
        </g>
        <g clip-path="url(#clip14_1684_201600)">
          <rect width="9.968" height="1.846" fill="#E7E7E7" transform="translate(125.477 90.4912)" />
          <rect width="12.552" height="1.846" fill="#BFBFBF" transform="translate(136.736 90.4912)" />
          <rect width="5.722" height="1.846" fill="#E7E7E7" transform="translate(150.581 90.4912)" />
          <rect width="46.702" height="1.846" fill="#fff" transform="translate(157.596 90.4912)" />
        </g>
        <g clip-path="url(#clip15_1684_201600)">
          <rect width="9.968" height="1.846" fill="#E7E7E7" transform="translate(125.477 93.6753)" />
          <rect width="67.561" height="1.846" fill="#BFBFBF" transform="translate(136.736 93.6753)" />
        </g>
        <rect width="81.959" height="15.794" x="123.555" y="65.554" stroke="#BFBFBF"
          stroke-width=".427" rx="1.921" />
        <g clip-path="url(#clip16_1684_201600)">
          <path stroke="#BFBFBF" stroke-linecap="round" stroke-linejoin="round" stroke-width=".962"
            d="M192.716 121.696L190.15 124.262L192.716 126.827" />
          <path stroke="#BFBFBF" stroke-linecap="round" stroke-linejoin="round" stroke-width=".962"
            d="M199.131 121.696L201.697 124.262L199.131 126.827" />
          <path stroke="#BFBFBF" stroke-linecap="round" stroke-linejoin="round" stroke-width=".962"
            d="M197.206 119.13L194.641 129.393" />
        </g>
        <rect width="12.806" height="2.134" fill="#E7E7E7" transform="translate(37.1143 58.5103)" />
        <rect width="75.129" height="6.403" x="37.114" y="62.779" fill="#F3F3F3" rx="1.281" />
        <rect width="33.723" height="2.134" fill="#DFDFDF" transform="translate(40.1016 64.9131)" />
        <rect width="12.806" height="2.134" fill="#E7E7E7" transform="translate(37.1143 73.8774)" />
        <rect width="75.129" height="6.403" x="37.114" y="78.146" fill="#E6F1F5" rx="1.281" />
        <rect width="33.723" height="2.134" fill="#007095" transform="translate(40.1016 80.2803)" />
        <rect width="12.806" height="2.134" fill="#E7E7E7" transform="translate(37.1143 89.2451)" />
        <rect width="75.129" height="6.403" x="37.114" y="93.514" fill="#F3F3F3" rx="1.281" />
        <rect width="33.723" height="2.134" fill="#DFDFDF" transform="translate(40.1016 95.6479)" />
      </g>
    </g>
  </g>
  <defs>
    <filter id="filter0_d_1684_201600" width="194.54" height="125.813" x="22.231" y="22.307"
      color-interpolation-filters="sRGB" filterUnits="userSpaceOnUse">
      <feFlood flood-opacity="0" result="BackgroundImageFix" />
      <feColorMatrix in="SourceAlpha" result="hardAlpha" type="matrix"
        values="0 0 0 0 0 0 0 0 0 0 0 0 0 0 0 0 0 0 127 0" />
      <feOffset dy="6" />
      <feGaussianBlur stdDeviation="3.6" />
      <feComposite in2="hardAlpha" operator="out" />
      <feColorMatrix type="matrix" values="0 0 0 0 0 0 0 0 0 0 0 0 0 0 0 0 0 0 0.1 0" />
      <feBlend in2="BackgroundImageFix" mode="normal" result="effect1_dropShadow_1684_201600" />
      <feBlend in="SourceGraphic" in2="effect1_dropShadow_1684_201600" mode="normal" result="shape" />
    </filter>
    <clipPath id="clip0_1684_201600">
      <rect width="239" height="158" fill="#fff" />
    </clipPath>
    <clipPath id="clip1_1684_201600">
      <rect width="180.139" height="111.413" x="29.431" y="23.507" fill="#fff" rx="4.269" />
    </clipPath>
    <clipPath id="clip2_1684_201600">
      <rect width="55.562" height="1.846" fill="#fff" transform="translate(125.477 47.5615)" />
    </clipPath>
    <clipPath id="clip3_1684_201600">
      <rect width="72.176" height="1.846" fill="#fff" transform="translate(125.477 50.8843)" />
    </clipPath>
    <clipPath id="clip4_1684_201600">
      <rect width="9.968" height="1.846" fill="#fff" transform="translate(125.477 50.8843)" />
    </clipPath>
    <clipPath id="clip5_1684_201600">
      <rect width="62.75" height="1.707" fill="#fff" transform="translate(125.477 54.207)" />
    </clipPath>
    <clipPath id="clip6_1684_201600">
      <rect width="76.606" height="1.846" fill="#fff" transform="translate(125.477 57.3911)" />
    </clipPath>
    <clipPath id="clip7_1684_201600">
      <rect width="76.606" height="1.846" fill="#fff" transform="translate(125.477 60.7139)" />
    </clipPath>
    <clipPath id="clip8_1684_201600">
      <rect width="53.359" height="2.134" fill="#fff" transform="translate(125.477 67.3594)" />
    </clipPath>
    <clipPath id="clip9_1684_201600">
      <rect width="69.58" height="1.707" fill="#fff" transform="translate(125.477 70.9702)" />
    </clipPath>
    <clipPath id="clip10_1684_201600">
      <rect width="61.042" height="1.707" fill="#fff" transform="translate(125.477 74.1548)" />
    </clipPath>
    <clipPath id="clip11_1684_201600">
      <rect width="76.606" height="1.846" fill="#fff" transform="translate(125.477 77.3389)" />
    </clipPath>
    <clipPath id="clip12_1684_201600">
      <rect width="76.606" height="1.846" fill="#fff" transform="translate(125.477 83.9844)" />
    </clipPath>
    <clipPath id="clip13_1684_201600">
      <rect width="41.407" height="1.707" fill="#fff" transform="translate(125.477 87.3071)" />
    </clipPath>
    <clipPath id="clip14_1684_201600">
      <rect width="68.299" height="1.707" fill="#fff" transform="translate(125.477 90.4912)" />
    </clipPath>
    <clipPath id="clip15_1684_201600">
      <rect width="54.213" height="2.134" fill="#fff" transform="translate(125.477 93.6753)" />
    </clipPath>
    <clipPath id="clip16_1684_201600">
      <rect width="15.394" height="15.394" fill="#fff" transform="translate(188.227 116.564)" />
    </clipPath>
  </defs>
</svg>