<svg xmlns="http://www.w3.org/2000/svg" width="239" height="158" fill="none" viewBox="0 0 239 158">
  <g clip-path="url(#clip0_1684_201697)">
    <rect width="239" height="158" fill="#202020" />
    <g filter="url(#filter0_d_1684_201697)">
      <g clip-path="url(#clip1_1684_201697)">
        <rect width="181.575" height="112.301" x="28.713" y="23.064" fill="#202020" rx="4.303" />
        <rect width="181.575" height="7.745" fill="#4A4A4A" transform="translate(28.7129 23.0645)" />
        <circle cx="33.52" cy="27.011" r=".935" fill="#B0B0B0" />
        <circle cx="36.457" cy="27.011" r=".935" fill="#B0B0B0" />
        <circle cx="39.396" cy="27.011" r=".935" fill="#B0B0B0" />
        <rect width="90.787" height="104.556" fill="#FAFAFA" transform="translate(119.5 30.8096)" />
        <rect width="18.234" height="1.861" fill="#2C2C2C" transform="translate(125.523 40.6128)" />
        <g clip-path="url(#clip2_1684_201697)">
          <rect width="10.047" height="1.861" fill="#272727" transform="translate(125.523 47.311)" />
          <rect width="5.768" height="1.861" fill="#272727" transform="translate(143.572 47.311)" />
          <rect width="30.887" height="1.861" fill="#2C2C2C" transform="translate(150.643 47.311)" />
          <rect width="5.024" height="1.861" fill="#7E7E7E" transform="translate(136.873 47.311)" />
        </g>
        <g clip-path="url(#clip3_1684_201697)">
          <g clip-path="url(#clip4_1684_201697)">
            <rect width="10.047" height="1.861" fill="#272727"
              transform="translate(125.523 50.6602)" />
            <rect width="10.047" height="1.861" fill="#272727"
              transform="translate(125.523 50.6602)" />
          </g>
          <rect width="9.489" height="1.861" fill="#7E7E7E" transform="translate(136.873 50.6602)" />
          <rect width="5.768" height="1.861" fill="#272727" transform="translate(147.665 50.6602)" />
          <rect width="50.237" height="1.861" fill="#2C2C2C" transform="translate(154.735 50.6602)" />
        </g>
        <g clip-path="url(#clip5_1684_201697)">
          <rect width="10.047" height="1.861" fill="#272727" transform="translate(125.523 54.0093)" />
          <rect width="19.165" height="1.861" fill="#7E7E7E" transform="translate(136.873 54.0093)" />
          <rect width="5.768" height="1.861" fill="#272727" transform="translate(157.341 54.0093)" />
          <rect width="40.562" height="1.861" fill="#2C2C2C" transform="translate(164.411 54.0093)" />
        </g>
        <g clip-path="url(#clip6_1684_201697)">
          <rect width="10.047" height="1.861" fill="#272727" transform="translate(125.523 57.2188)" />
          <rect width="68.099" height="1.861" fill="#7E7E7E" transform="translate(136.873 57.2188)" />
        </g>
        <g clip-path="url(#clip7_1684_201697)">
          <rect width="10.047" height="1.861" fill="#272727" transform="translate(125.523 60.5684)" />
          <rect width="13.024" height="1.861" fill="#7E7E7E" transform="translate(136.873 60.5684)" />
          <rect width="5.768" height="1.861" fill="#272727" transform="translate(151.2 60.5684)" />
          <rect width="46.702" height="1.861" fill="#2C2C2C" transform="translate(158.271 60.5684)" />
        </g>
        <g clip-path="url(#clip8_1684_201697)">
          <rect width="10.047" height="1.861" fill="#272727" transform="translate(125.523 67.2666)" />
          <rect width="68.099" height="1.861" fill="#7E7E7E" transform="translate(136.873 67.2666)" />
        </g>
        <g clip-path="url(#clip9_1684_201697)">
          <rect width="10.047" height="1.861" fill="#272727" transform="translate(125.523 70.9062)" />
          <rect width="12.652" height="1.861" fill="#7E7E7E" transform="translate(136.873 70.9062)" />
          <rect width="5.768" height="1.861" fill="#272727" transform="translate(150.828 70.9062)" />
          <rect width="47.074" height="1.861" fill="#2C2C2C" transform="translate(157.898 70.9062)" />
        </g>
        <g clip-path="url(#clip10_1684_201697)">
          <rect width="10.047" height="1.861" fill="#272727" transform="translate(125.523 74.1157)" />
          <rect width="12.652" height="1.861" fill="#7E7E7E" transform="translate(136.873 74.1157)" />
          <rect width="5.768" height="1.861" fill="#272727" transform="translate(150.828 74.1157)" />
          <rect width="47.074" height="1.861" fill="#2C2C2C" transform="translate(157.898 74.1157)" />
        </g>
        <g clip-path="url(#clip11_1684_201697)">
          <rect width="10.047" height="1.861" fill="#272727" transform="translate(125.523 77.3257)" />
          <rect width="68.099" height="1.861" fill="#7E7E7E" transform="translate(136.873 77.3257)" />
        </g>
        <g clip-path="url(#clip12_1684_201697)">
          <rect width="10.047" height="1.861" fill="#272727" transform="translate(125.523 84.0239)" />
          <rect width="7.815" height="1.861" fill="#7E7E7E" transform="translate(136.873 84.0239)" />
          <rect width="5.768" height="1.861" fill="#272727" transform="translate(145.991 84.0239)" />
          <rect width="51.912" height="1.861" fill="#2C2C2C" transform="translate(153.062 84.0239)" />
        </g>
        <g clip-path="url(#clip13_1684_201697)">
          <rect width="10.047" height="1.861" fill="#272727" transform="translate(125.523 87.373)" />
          <rect width="12.652" height="1.861" fill="#7E7E7E" transform="translate(136.873 87.373)" />
          <rect width="5.768" height="1.861" fill="#272727" transform="translate(150.828 87.373)" />
          <rect width="47.074" height="1.861" fill="#2C2C2C" transform="translate(157.898 87.373)" />
        </g>
        <g clip-path="url(#clip14_1684_201697)">
          <rect width="10.047" height="1.861" fill="#272727" transform="translate(125.523 90.5825)" />
          <rect width="12.652" height="1.861" fill="#7E7E7E" transform="translate(136.873 90.5825)" />
          <rect width="5.768" height="1.861" fill="#272727" transform="translate(150.828 90.5825)" />
          <rect width="47.074" height="1.861" fill="#2C2C2C" transform="translate(157.898 90.5825)" />
        </g>
        <g clip-path="url(#clip15_1684_201697)">
          <rect width="10.047" height="1.861" fill="#272727" transform="translate(125.523 93.792)" />
          <rect width="68.099" height="1.861" fill="#7E7E7E" transform="translate(136.873 93.792)" />
        </g>
        <rect width="82.612" height="15.92" x="123.587" y="65.447" stroke="#7E7E7E"
          stroke-width=".43" rx="1.936" />
        <g clip-path="url(#clip16_1684_201697)">
          <path stroke="#2C2C2C" stroke-linecap="round" stroke-linejoin="round" stroke-width=".97"
            d="M193.3 122.036L190.714 124.622L193.3 127.208" />
          <path stroke="#2C2C2C" stroke-linecap="round" stroke-linejoin="round" stroke-width=".97"
            d="M199.765 122.036L202.351 124.622L199.765 127.208" />
          <path stroke="#2C2C2C" stroke-linecap="round" stroke-linejoin="round" stroke-width=".97"
            d="M197.825 119.45L195.239 129.795" />
        </g>
        <rect width="12.908" height="2.151" fill="#4F4E4E" transform="translate(36.457 58.3472)" />
        <rect width="75.728" height="6.454" x="36.457" y="62.65" fill="#383838" rx="1.291" />
        <rect width="33.992" height="2.151" fill="#606060" transform="translate(39.4697 64.8013)" />
        <rect width="12.908" height="2.151" fill="#4F4E4E" transform="translate(36.457 73.8369)" />
        <rect width="75.728" height="6.454" x="36.457" y="78.14" fill="#272727" rx="1.291" />
        <rect width="33.992" height="2.151" fill="#FAFAFA" transform="translate(39.4697 80.291)" />
        <rect width="12.908" height="2.151" fill="#4F4E4E" transform="translate(36.457 89.3267)" />
        <rect width="75.728" height="6.454" x="36.457" y="93.629" fill="#383838" rx="1.291" />
        <rect width="33.992" height="2.151" fill="#606060" transform="translate(39.4697 95.7808)" />
        <path fill="#FAFAFA"
          d="M76.5635 82.0907L83.0225 84.4157L81.4089 86.0293L84.4082 89.0286L83.4782 89.9587L80.4789 86.9593L78.8653 88.5729L76.5403 82.1139L76.5635 82.0907ZM76.5403 81.1839C76.3915 81.1842 76.245 81.2202 76.1131 81.2889C75.9811 81.3576 75.8675 81.4569 75.7819 81.5785C75.6963 81.7001 75.641 81.8405 75.6209 81.9879C75.6007 82.1353 75.6162 82.2853 75.666 82.4255L77.9911 88.8845C78.0439 89.0323 78.1332 89.1644 78.2508 89.2685C78.3683 89.3725 78.5103 89.4451 78.6635 89.4794C78.8167 89.5138 78.9761 89.5088 79.1269 89.4649C79.2776 89.4211 79.4148 89.3398 79.5256 89.2286L80.4835 88.2707L82.8086 90.5957C82.895 90.6822 82.9975 90.7508 83.1104 90.7976C83.2233 90.8444 83.3444 90.8685 83.4666 90.8685C83.5888 90.8685 83.7098 90.8444 83.8227 90.7976C83.9356 90.7508 84.0382 90.6822 84.1246 90.5957L85.0546 89.6657C85.1411 89.5793 85.2097 89.4767 85.2565 89.3638C85.3033 89.2509 85.3274 89.1299 85.3274 89.0077C85.3274 88.8855 85.3033 88.7645 85.2565 88.6516C85.2097 88.5387 85.1411 88.4361 85.0546 88.3497L82.7295 86.0247L83.6875 85.0667C83.7986 84.9559 83.8799 84.8187 83.9238 84.668C83.9677 84.5172 83.9727 84.3578 83.9383 84.2047C83.904 84.0515 83.8314 83.9095 83.7273 83.7919C83.6233 83.6743 83.4912 83.585 83.3434 83.5322L76.8844 81.2072C76.7845 81.1709 76.6791 81.152 76.5728 81.1514L76.5403 81.1839Z" />
      </g>
    </g>
  </g>
  <defs>
    <filter id="filter0_d_1684_201697" width="195.975" height="126.701" x="21.513" y="21.864"
      color-interpolation-filters="sRGB" filterUnits="userSpaceOnUse">
      <feFlood flood-opacity="0" result="BackgroundImageFix" />
      <feColorMatrix in="SourceAlpha" result="hardAlpha" type="matrix"
        values="0 0 0 0 0 0 0 0 0 0 0 0 0 0 0 0 0 0 127 0" />
      <feOffset dy="6" />
      <feGaussianBlur stdDeviation="3.6" />
      <feComposite in2="hardAlpha" operator="out" />
      <feColorMatrix type="matrix" values="0 0 0 0 0 0 0 0 0 0 0 0 0 0 0 0 0 0 0.3 0" />
      <feBlend in2="BackgroundImageFix" mode="normal" result="effect1_dropShadow_1684_201697" />
      <feBlend in="SourceGraphic" in2="effect1_dropShadow_1684_201697" mode="normal" result="shape" />
    </filter>
    <clipPath id="clip0_1684_201697">
      <rect width="239" height="158" fill="#fff" />
    </clipPath>
    <clipPath id="clip1_1684_201697">
      <rect width="181.575" height="112.301" x="28.713" y="23.064" fill="#fff" rx="4.303" />
    </clipPath>
    <clipPath id="clip2_1684_201697">
      <rect width="56.005" height="1.861" fill="#fff" transform="translate(125.523 47.311)" />
    </clipPath>
    <clipPath id="clip3_1684_201697">
      <rect width="72.751" height="1.861" fill="#fff" transform="translate(125.523 50.6602)" />
    </clipPath>
    <clipPath id="clip4_1684_201697">
      <rect width="10.047" height="1.861" fill="#fff" transform="translate(125.523 50.6602)" />
    </clipPath>
    <clipPath id="clip5_1684_201697">
      <rect width="63.25" height="1.721" fill="#fff" transform="translate(125.523 54.0093)" />
    </clipPath>
    <clipPath id="clip6_1684_201697">
      <rect width="77.216" height="1.861" fill="#fff" transform="translate(125.523 57.2188)" />
    </clipPath>
    <clipPath id="clip7_1684_201697">
      <rect width="77.216" height="1.861" fill="#fff" transform="translate(125.523 60.5684)" />
    </clipPath>
    <clipPath id="clip8_1684_201697">
      <rect width="53.784" height="2.151" fill="#fff" transform="translate(125.523 67.2666)" />
    </clipPath>
    <clipPath id="clip9_1684_201697">
      <rect width="70.134" height="1.721" fill="#fff" transform="translate(125.523 70.9062)" />
    </clipPath>
    <clipPath id="clip10_1684_201697">
      <rect width="61.529" height="1.721" fill="#fff" transform="translate(125.523 74.1157)" />
    </clipPath>
    <clipPath id="clip11_1684_201697">
      <rect width="77.216" height="1.861" fill="#fff" transform="translate(125.523 77.3257)" />
    </clipPath>
    <clipPath id="clip12_1684_201697">
      <rect width="77.216" height="1.861" fill="#fff" transform="translate(125.523 84.0239)" />
    </clipPath>
    <clipPath id="clip13_1684_201697">
      <rect width="41.736" height="1.721" fill="#fff" transform="translate(125.523 87.373)" />
    </clipPath>
    <clipPath id="clip14_1684_201697">
      <rect width="68.844" height="1.721" fill="#fff" transform="translate(125.523 90.5825)" />
    </clipPath>
    <clipPath id="clip15_1684_201697">
      <rect width="54.645" height="2.151" fill="#fff" transform="translate(125.523 93.792)" />
    </clipPath>
    <clipPath id="clip16_1684_201697">
      <rect width="15.517" height="15.517" fill="#fff" transform="translate(188.773 116.864)" />
    </clipPath>
  </defs>
</svg>