<svg width="239" height="158" viewBox="0 0 239 158" fill="none" xmlns="http://www.w3.org/2000/svg">
  <g clip-path="url(#clip0_1684_201342)">
    <rect width="239" height="158" fill="#2c2c2c" />
    <g filter="url(#filter0_d_1684_201342)">
      <g clip-path="url(#clip1_1684_201342)">
        <rect x="27.9951" y="22.189" width="183.01" height="113.189" rx="4.33673" fill="#2C2C2C" />
        <path d="M73.3267 42.5488H61.8213V38.2349H70.8001L73.3267 42.5488Z" fill="#383838" />
        <path d="M64.6539 42.5488H53.1484V38.2349H62.1272L64.6539 42.5488Z" fill="#606060" />
        <path d="M55.98 42.5488H44.4746V38.2349H53.4534L55.98 42.5488Z" fill="#B0B0B0" />
        <rect width="183.01" height="7.80612" transform="translate(27.9951 22.189)" fill="#4A4A4A" />
        <circle cx="32.8406" cy="26.1667" r="0.942118" fill="#B0B0B0" />
        <circle cx="35.8015" cy="26.1667" r="0.942118" fill="#B0B0B0" />
        <circle cx="38.7624" cy="26.1667" r="0.942118" fill="#B0B0B0" />
        <g opacity="0.8">
          <g clip-path="url(#clip2_1684_201342)">
            <path
              d="M35.8008 42.5713H201.464C202.662 42.5713 203.632 43.5421 203.632 44.7397V126.27C203.632 127.468 202.662 128.439 201.464 128.439H37.9691C36.7716 128.439 35.8008 127.468 35.8008 126.27V42.5713Z"
              fill="#383838" />
            <rect x="45.7754" y="57.3066" width="7.80612" height="7.80612" rx="3.90306"
              fill="#606060" />
            <line x1="58.9112" y1="55.5815" x2="58.9112" y2="66.8376" stroke="#606060"
              stroke-width="0.250136" />
            <rect width="15.6122" height="3.46939" transform="translate(63.9902 59.4751)"
              fill="#606060" />
            <rect width="3.46939" height="3.46939" transform="translate(79.6025 59.4751)"
              fill="#2C2C2C" />
            <path d="M82.2054 60.7856L81.3364 61.6547L80.4707 60.7856" stroke="#9C9D9D"
              stroke-width="0.283012" stroke-miterlimit="10" stroke-linecap="round" />
            <line x1="88.4005" y1="55.5815" x2="88.4005" y2="66.8376" stroke="#606060"
              stroke-width="0.250136" />
            <rect width="38.771" height="3.5019" transform="translate(93.4795 59.4585)"
              fill="#606060" />
            <line x1="137.58" y1="55.5815" x2="137.58" y2="66.8376" stroke="#606060"
              stroke-width="0.250136" />
            <rect width="28.1888" height="3.46939" transform="translate(142.659 59.4751)"
              fill="#606060" />
            <line x1="176.177" y1="55.5815" x2="176.177" y2="66.8376" stroke="#606060"
              stroke-width="0.250136" />
            <rect width="12.1429" height="3.46939" transform="translate(181.256 59.4751)"
              fill="#606060" />
            <rect x="45.7754" y="68.582" width="7.80612" height="7.80612" rx="3.90306"
              fill="#606060" />
            <line x1="58.9112" y1="66.8569" x2="58.9112" y2="78.113" stroke="#606060"
              stroke-width="0.250136" />
            <rect width="15.6122" height="3.46939" transform="translate(63.9902 70.7505)"
              fill="#606060" />
            <rect width="3.46939" height="3.46939" transform="translate(79.6025 70.7505)"
              fill="#2C2C2C" />
            <path d="M82.2054 72.061L81.3364 72.93L80.4707 72.061" stroke="#9C9D9D"
              stroke-width="0.283012" stroke-miterlimit="10" stroke-linecap="round" />
            <line x1="88.4005" y1="66.8569" x2="88.4005" y2="78.113" stroke="#606060"
              stroke-width="0.250136" />
            <rect width="38.771" height="3.5019" transform="translate(93.4795 70.7344)"
              fill="#606060" />
            <line x1="137.58" y1="66.8569" x2="137.58" y2="78.113" stroke="#606060"
              stroke-width="0.250136" />
            <rect width="28.1888" height="3.46939" transform="translate(142.659 70.7505)"
              fill="#606060" />
            <line x1="176.177" y1="66.8569" x2="176.177" y2="78.113" stroke="#606060"
              stroke-width="0.250136" />
            <rect width="12.1429" height="3.46939" transform="translate(181.256 70.7505)"
              fill="#606060" />
            <rect x="45.7754" y="79.8574" width="7.80612" height="7.80612" rx="3.90306"
              fill="#606060" />
            <line x1="58.9112" y1="78.1328" x2="58.9112" y2="89.3889" stroke="#606060"
              stroke-width="0.250136" />
            <rect width="15.6122" height="3.46939" transform="translate(63.9902 82.0259)"
              fill="#606060" />
            <rect width="3.46939" height="3.46939" transform="translate(79.6025 82.0259)"
              fill="#2C2C2C" />
            <path d="M82.2054 83.3369L81.3364 84.2059L80.4707 83.3369" stroke="#9C9D9D"
              stroke-width="0.283012" stroke-miterlimit="10" stroke-linecap="round" />
            <line x1="88.4005" y1="78.1328" x2="88.4005" y2="89.3889" stroke="#606060"
              stroke-width="0.250136" />
            <rect width="38.771" height="3.5019" transform="translate(93.4795 82.0098)"
              fill="#606060" />
            <line x1="137.58" y1="78.1328" x2="137.58" y2="89.3889" stroke="#606060"
              stroke-width="0.250136" />
            <rect width="28.1888" height="3.46939" transform="translate(142.659 82.0259)"
              fill="#606060" />
            <line x1="176.177" y1="78.1328" x2="176.177" y2="89.3889" stroke="#606060"
              stroke-width="0.250136" />
            <rect width="12.1429" height="3.46939" transform="translate(181.256 82.0259)"
              fill="#606060" />
            <rect x="45.7754" y="91.1333" width="7.80612" height="7.80612" rx="3.90306"
              fill="#606060" />
            <line x1="58.9112" y1="89.4082" x2="58.9112" y2="100.664" stroke="#606060"
              stroke-width="0.250136" />
            <rect width="15.6122" height="3.46939" transform="translate(63.9902 93.3013)"
              fill="#606060" />
            <rect width="3.46939" height="3.46939" transform="translate(79.6025 93.3013)"
              fill="#2C2C2C" />
            <path d="M82.2054 94.6123L81.3364 95.4813L80.4707 94.6123" stroke="#9C9D9D"
              stroke-width="0.283012" stroke-miterlimit="10" stroke-linecap="round" />
            <line x1="88.4005" y1="89.4082" x2="88.4005" y2="100.664" stroke="#606060"
              stroke-width="0.250136" />
            <rect width="38.771" height="3.5019" transform="translate(93.4795 93.2852)"
              fill="#606060" />
            <line x1="137.58" y1="89.4082" x2="137.58" y2="100.664" stroke="#606060"
              stroke-width="0.250136" />
            <rect width="28.1888" height="3.46939" transform="translate(142.659 93.3013)"
              fill="#606060" />
            <line x1="176.177" y1="89.4082" x2="176.177" y2="100.664" stroke="#606060"
              stroke-width="0.250136" />
            <rect width="12.1429" height="3.46939" transform="translate(181.256 93.3013)"
              fill="#606060" />
            <rect x="45.7754" y="102.409" width="7.80612" height="7.80612" rx="3.90306"
              fill="#606060" />
            <line x1="58.9112" y1="100.684" x2="58.9112" y2="111.94" stroke="#606060"
              stroke-width="0.250136" />
            <rect width="15.6122" height="3.46939" transform="translate(63.9902 104.577)"
              fill="#606060" />
            <rect width="3.46939" height="3.46939" transform="translate(79.6025 104.577)"
              fill="#2C2C2C" />
            <path d="M82.2054 105.888L81.3364 106.757L80.4707 105.888" stroke="#9C9D9D"
              stroke-width="0.283012" stroke-miterlimit="10" stroke-linecap="round" />
            <line x1="88.4005" y1="100.684" x2="88.4005" y2="111.94" stroke="#606060"
              stroke-width="0.250136" />
            <rect width="38.771" height="3.5019" transform="translate(93.4795 104.561)"
              fill="#606060" />
            <line x1="137.58" y1="100.684" x2="137.58" y2="111.94" stroke="#606060"
              stroke-width="0.250136" />
            <rect width="28.1888" height="3.46939" transform="translate(142.659 104.577)"
              fill="#606060" />
            <line x1="176.177" y1="100.684" x2="176.177" y2="111.94" stroke="#606060"
              stroke-width="0.250136" />
            <rect width="12.1429" height="3.46939" transform="translate(181.256 104.577)"
              fill="#606060" />
            <g filter="url(#filter1_dddd_1684_201342)">
              <g clip-path="url(#clip3_1684_201342)">
                <rect x="40.1377" y="66.4233" width="159.158" height="11.2755" rx="3.46939"
                  fill="#2C2C2C" />
                <rect x="45.7754" y="68.1582" width="7.80612" height="7.80612" rx="3.90306"
                  fill="#FAFAFA" />
                <line x1="58.9112" y1="66.4331" x2="58.9112" y2="77.6892" stroke="#606060"
                  stroke-width="0.250136" />
                <rect width="15.6122" height="3.46939" transform="translate(63.9902 70.3267)"
                  fill="#FAFAFA" />
                <rect width="9.97449" height="0.867347" transform="translate(65.291 71.6274)"
                  fill="#2C2C2C" />
                <rect width="3.46939" height="3.46939" transform="translate(79.6025 70.3267)"
                  fill="#272727" />
                <path d="M80.4704 72.5063L81.3394 71.6373L82.2051 72.5063" stroke="#FAFAFA"
                  stroke-width="0.283012" stroke-miterlimit="10" stroke-linecap="round" />
                <line x1="88.4005" y1="66.4331" x2="88.4005" y2="77.6892" stroke="#606060"
                  stroke-width="0.250136" />
                <rect width="38.771" height="3.5019" transform="translate(93.4795 70.3105)"
                  fill="#FAFAFA" />
                <line x1="137.58" y1="66.4331" x2="137.58" y2="77.6892" stroke="#606060"
                  stroke-width="0.250136" />
                <rect width="28.1888" height="3.46939" transform="translate(142.659 70.3267)"
                  fill="#FAFAFA" />
                <line x1="176.177" y1="66.4331" x2="176.177" y2="77.6892" stroke="#606060"
                  stroke-width="0.250136" />
                <rect width="12.1429" height="3.46939" transform="translate(181.256 70.3267)"
                  fill="#FAFAFA" />
              </g>
            </g>
            <g filter="url(#filter2_dddd_1684_201342)">
              <rect width="19.0816" height="10.4082" transform="translate(63.9902 73.7959)"
                fill="#2C2C2C" />
              <rect width="9.97449" height="0.867347" transform="translate(65.7246 81.6021)"
                fill="#606060" />
              <rect width="8.2398" height="0.867347" transform="translate(65.7246 79)"
                fill="#606060" />
              <rect x="63.1221" y="74.6631" width="20.8163" height="3.03571" rx="0.433673"
                fill="#7E7E7E" />
              <rect width="9.97449" height="0.867347" transform="translate(65.7246 75.9644)"
                fill="#606060" />
            </g>
          </g>
        </g>
        <path d="M47.3062 42.5488H35.8008V38.2349H44.7796L47.3062 42.5488Z" fill="#A3A3A3" />
      </g>
    </g>
  </g>
  <defs>
    <filter id="filter0_d_1684_201342" x="20.7951" y="20.989" width="197.41" height="127.589"
      filterUnits="userSpaceOnUse" color-interpolation-filters="sRGB">
      <feFlood flood-opacity="0" result="BackgroundImageFix" />
      <feColorMatrix in="SourceAlpha" type="matrix"
        values="0 0 0 0 0 0 0 0 0 0 0 0 0 0 0 0 0 0 127 0" result="hardAlpha" />
      <feOffset dy="6" />
      <feGaussianBlur stdDeviation="3.6" />
      <feComposite in2="hardAlpha" operator="out" />
      <feColorMatrix type="matrix" values="0 0 0 0 0 0 0 0 0 0 0 0 0 0 0 0 0 0 0.3 0" />
      <feBlend mode="normal" in2="BackgroundImageFix" result="effect1_dropShadow_1684_201342" />
      <feBlend mode="normal" in="SourceGraphic" in2="effect1_dropShadow_1684_201342" result="shape" />
    </filter>
    <filter id="filter1_dddd_1684_201342" x="26.6938" y="63.8213" width="186.046" height="60.7142"
      filterUnits="userSpaceOnUse" color-interpolation-filters="sRGB">
      <feFlood flood-opacity="0" result="BackgroundImageFix" />
      <feColorMatrix in="SourceAlpha" type="matrix"
        values="0 0 0 0 0 0 0 0 0 0 0 0 0 0 0 0 0 0 127 0" result="hardAlpha" />
      <feOffset dy="2.16837" />
      <feGaussianBlur stdDeviation="2.3852" />
      <feColorMatrix type="matrix" values="0 0 0 0 0 0 0 0 0 0 0 0 0 0 0 0 0 0 0.1 0" />
      <feBlend mode="normal" in2="BackgroundImageFix" result="effect1_dropShadow_1684_201342" />
      <feColorMatrix in="SourceAlpha" type="matrix"
        values="0 0 0 0 0 0 0 0 0 0 0 0 0 0 0 0 0 0 127 0" result="hardAlpha" />
      <feOffset dy="8.2398" />
      <feGaussianBlur stdDeviation="4.1199" />
      <feColorMatrix type="matrix" values="0 0 0 0 0 0 0 0 0 0 0 0 0 0 0 0 0 0 0.09 0" />
      <feBlend mode="normal" in2="effect1_dropShadow_1684_201342"
        result="effect2_dropShadow_1684_201342" />
      <feColorMatrix in="SourceAlpha" type="matrix"
        values="0 0 0 0 0 0 0 0 0 0 0 0 0 0 0 0 0 0 127 0" result="hardAlpha" />
      <feOffset dy="18.648" />
      <feGaussianBlur stdDeviation="5.63775" />
      <feColorMatrix type="matrix" values="0 0 0 0 0 0 0 0 0 0 0 0 0 0 0 0 0 0 0.05 0" />
      <feBlend mode="normal" in2="effect2_dropShadow_1684_201342"
        result="effect3_dropShadow_1684_201342" />
      <feColorMatrix in="SourceAlpha" type="matrix"
        values="0 0 0 0 0 0 0 0 0 0 0 0 0 0 0 0 0 0 127 0" result="hardAlpha" />
      <feOffset dy="33.3929" />
      <feGaussianBlur stdDeviation="6.72194" />
      <feColorMatrix type="matrix" values="0 0 0 0 0 0 0 0 0 0 0 0 0 0 0 0 0 0 0.01 0" />
      <feBlend mode="normal" in2="effect3_dropShadow_1684_201342"
        result="effect4_dropShadow_1684_201342" />
      <feBlend mode="normal" in="SourceGraphic" in2="effect4_dropShadow_1684_201342" result="shape" />
    </filter>
    <filter id="filter2_dddd_1684_201342" x="59.6527" y="72.9286" width="27.7552" height="22.9847"
      filterUnits="userSpaceOnUse" color-interpolation-filters="sRGB">
      <feFlood flood-opacity="0" result="BackgroundImageFix" />
      <feColorMatrix in="SourceAlpha" type="matrix"
        values="0 0 0 0 0 0 0 0 0 0 0 0 0 0 0 0 0 0 127 0" result="hardAlpha" />
      <feOffset dy="0.433673" />
      <feGaussianBlur stdDeviation="0.65051" />
      <feColorMatrix type="matrix" values="0 0 0 0 0 0 0 0 0 0 0 0 0 0 0 0 0 0 0.1 0" />
      <feBlend mode="normal" in2="BackgroundImageFix" result="effect1_dropShadow_1684_201342" />
      <feColorMatrix in="SourceAlpha" type="matrix"
        values="0 0 0 0 0 0 0 0 0 0 0 0 0 0 0 0 0 0 127 0" result="hardAlpha" />
      <feOffset dy="2.16837" />
      <feGaussianBlur stdDeviation="1.08418" />
      <feColorMatrix type="matrix" values="0 0 0 0 0 0 0 0 0 0 0 0 0 0 0 0 0 0 0.09 0" />
      <feBlend mode="normal" in2="effect1_dropShadow_1684_201342"
        result="effect2_dropShadow_1684_201342" />
      <feColorMatrix in="SourceAlpha" type="matrix"
        values="0 0 0 0 0 0 0 0 0 0 0 0 0 0 0 0 0 0 127 0" result="hardAlpha" />
      <feOffset dy="4.77041" />
      <feGaussianBlur stdDeviation="1.51786" />
      <feColorMatrix type="matrix" values="0 0 0 0 0 0 0 0 0 0 0 0 0 0 0 0 0 0 0.05 0" />
      <feBlend mode="normal" in2="effect2_dropShadow_1684_201342"
        result="effect3_dropShadow_1684_201342" />
      <feColorMatrix in="SourceAlpha" type="matrix"
        values="0 0 0 0 0 0 0 0 0 0 0 0 0 0 0 0 0 0 127 0" result="hardAlpha" />
      <feOffset dy="8.2398" />
      <feGaussianBlur stdDeviation="1.73469" />
      <feColorMatrix type="matrix" values="0 0 0 0 0 0 0 0 0 0 0 0 0 0 0 0 0 0 0.01 0" />
      <feBlend mode="normal" in2="effect3_dropShadow_1684_201342"
        result="effect4_dropShadow_1684_201342" />
      <feBlend mode="normal" in="SourceGraphic" in2="effect4_dropShadow_1684_201342" result="shape" />
    </filter>
    <clipPath id="clip0_1684_201342">
      <rect width="239" height="158" fill="white" />
    </clipPath>
    <clipPath id="clip1_1684_201342">
      <rect x="27.9951" y="22.189" width="183.01" height="113.189" rx="4.33673" fill="white" />
    </clipPath>
    <clipPath id="clip2_1684_201342">
      <path
        d="M35.8008 42.5713H201.464C202.662 42.5713 203.632 43.5421 203.632 44.7397V126.27C203.632 127.468 202.662 128.439 201.464 128.439H37.9691C36.7716 128.439 35.8008 127.468 35.8008 126.27V42.5713Z"
        fill="white" />
    </clipPath>
    <clipPath id="clip3_1684_201342">
      <rect x="40.1377" y="66.4233" width="159.158" height="11.2755" rx="3.46939" fill="white" />
    </clipPath>
  </defs>
</svg>