<svg xmlns="http://www.w3.org/2000/svg" width="239" height="158" fill="none" viewBox="0 0 239 158"><g clip-path="url(#clip0_1684_201342)"><rect width="239" height="158" fill="#2c2c2c"/><g filter="url(#filter0_d_1684_201342)"><g clip-path="url(#clip1_1684_201342)"><rect width="183.01" height="113.189" x="27.995" y="22.189" fill="#2C2C2C" rx="4.337"/><path fill="#383838" d="M73.3267 42.5488H61.8213V38.2349H70.8001L73.3267 42.5488Z"/><path fill="#606060" d="M64.6539 42.5488H53.1484V38.2349H62.1272L64.6539 42.5488Z"/><path fill="#B0B0B0" d="M55.98 42.5488H44.4746V38.2349H53.4534L55.98 42.5488Z"/><rect width="183.01" height="7.806" fill="#4A4A4A" transform="translate(27.9951 22.189)"/><circle cx="32.841" cy="26.167" r=".942" fill="#B0B0B0"/><circle cx="35.801" cy="26.167" r=".942" fill="#B0B0B0"/><circle cx="38.762" cy="26.167" r=".942" fill="#B0B0B0"/><g opacity=".8"><g clip-path="url(#clip2_1684_201342)"><path fill="#383838" d="M35.8008 42.5713H201.464C202.662 42.5713 203.632 43.5421 203.632 44.7397V126.27C203.632 127.468 202.662 128.439 201.464 128.439H37.9691C36.7716 128.439 35.8008 127.468 35.8008 126.27V42.5713Z"/><rect width="7.806" height="7.806" x="45.775" y="57.307" fill="#606060" rx="3.903"/><line x1="58.911" x2="58.911" y1="55.581" y2="66.838" stroke="#606060" stroke-width=".25"/><rect width="15.612" height="3.469" fill="#606060" transform="translate(63.9902 59.4751)"/><rect width="3.469" height="3.469" fill="#2C2C2C" transform="translate(79.6025 59.4751)"/><path stroke="#9C9D9D" stroke-linecap="round" stroke-miterlimit="10" stroke-width=".283" d="M82.2054 60.7856L81.3364 61.6547L80.4707 60.7856"/><line x1="88.4" x2="88.4" y1="55.581" y2="66.838" stroke="#606060" stroke-width=".25"/><rect width="38.771" height="3.502" fill="#606060" transform="translate(93.4795 59.4585)"/><line x1="137.58" x2="137.58" y1="55.581" y2="66.838" stroke="#606060" stroke-width=".25"/><rect width="28.189" height="3.469" fill="#606060" transform="translate(142.659 59.4751)"/><line x1="176.177" x2="176.177" y1="55.581" y2="66.838" stroke="#606060" stroke-width=".25"/><rect width="12.143" height="3.469" fill="#606060" transform="translate(181.256 59.4751)"/><rect width="7.806" height="7.806" x="45.775" y="68.582" fill="#606060" rx="3.903"/><line x1="58.911" x2="58.911" y1="66.857" y2="78.113" stroke="#606060" stroke-width=".25"/><rect width="15.612" height="3.469" fill="#606060" transform="translate(63.9902 70.7505)"/><rect width="3.469" height="3.469" fill="#2C2C2C" transform="translate(79.6025 70.7505)"/><path stroke="#9C9D9D" stroke-linecap="round" stroke-miterlimit="10" stroke-width=".283" d="M82.2054 72.061L81.3364 72.93L80.4707 72.061"/><line x1="88.4" x2="88.4" y1="66.857" y2="78.113" stroke="#606060" stroke-width=".25"/><rect width="38.771" height="3.502" fill="#606060" transform="translate(93.4795 70.7344)"/><line x1="137.58" x2="137.58" y1="66.857" y2="78.113" stroke="#606060" stroke-width=".25"/><rect width="28.189" height="3.469" fill="#606060" transform="translate(142.659 70.7505)"/><line x1="176.177" x2="176.177" y1="66.857" y2="78.113" stroke="#606060" stroke-width=".25"/><rect width="12.143" height="3.469" fill="#606060" transform="translate(181.256 70.7505)"/><rect width="7.806" height="7.806" x="45.775" y="79.857" fill="#606060" rx="3.903"/><line x1="58.911" x2="58.911" y1="78.133" y2="89.389" stroke="#606060" stroke-width=".25"/><rect width="15.612" height="3.469" fill="#606060" transform="translate(63.9902 82.0259)"/><rect width="3.469" height="3.469" fill="#2C2C2C" transform="translate(79.6025 82.0259)"/><path stroke="#9C9D9D" stroke-linecap="round" stroke-miterlimit="10" stroke-width=".283" d="M82.2054 83.3369L81.3364 84.2059L80.4707 83.3369"/><line x1="88.4" x2="88.4" y1="78.133" y2="89.389" stroke="#606060" stroke-width=".25"/><rect width="38.771" height="3.502" fill="#606060" transform="translate(93.4795 82.0098)"/><line x1="137.58" x2="137.58" y1="78.133" y2="89.389" stroke="#606060" stroke-width=".25"/><rect width="28.189" height="3.469" fill="#606060" transform="translate(142.659 82.0259)"/><line x1="176.177" x2="176.177" y1="78.133" y2="89.389" stroke="#606060" stroke-width=".25"/><rect width="12.143" height="3.469" fill="#606060" transform="translate(181.256 82.0259)"/><rect width="7.806" height="7.806" x="45.775" y="91.133" fill="#606060" rx="3.903"/><line x1="58.911" x2="58.911" y1="89.408" y2="100.664" stroke="#606060" stroke-width=".25"/><rect width="15.612" height="3.469" fill="#606060" transform="translate(63.9902 93.3013)"/><rect width="3.469" height="3.469" fill="#2C2C2C" transform="translate(79.6025 93.3013)"/><path stroke="#9C9D9D" stroke-linecap="round" stroke-miterlimit="10" stroke-width=".283" d="M82.2054 94.6123L81.3364 95.4813L80.4707 94.6123"/><line x1="88.4" x2="88.4" y1="89.408" y2="100.664" stroke="#606060" stroke-width=".25"/><rect width="38.771" height="3.502" fill="#606060" transform="translate(93.4795 93.2852)"/><line x1="137.58" x2="137.58" y1="89.408" y2="100.664" stroke="#606060" stroke-width=".25"/><rect width="28.189" height="3.469" fill="#606060" transform="translate(142.659 93.3013)"/><line x1="176.177" x2="176.177" y1="89.408" y2="100.664" stroke="#606060" stroke-width=".25"/><rect width="12.143" height="3.469" fill="#606060" transform="translate(181.256 93.3013)"/><rect width="7.806" height="7.806" x="45.775" y="102.409" fill="#606060" rx="3.903"/><line x1="58.911" x2="58.911" y1="100.684" y2="111.94" stroke="#606060" stroke-width=".25"/><rect width="15.612" height="3.469" fill="#606060" transform="translate(63.9902 104.577)"/><rect width="3.469" height="3.469" fill="#2C2C2C" transform="translate(79.6025 104.577)"/><path stroke="#9C9D9D" stroke-linecap="round" stroke-miterlimit="10" stroke-width=".283" d="M82.2054 105.888L81.3364 106.757L80.4707 105.888"/><line x1="88.4" x2="88.4" y1="100.684" y2="111.94" stroke="#606060" stroke-width=".25"/><rect width="38.771" height="3.502" fill="#606060" transform="translate(93.4795 104.561)"/><line x1="137.58" x2="137.58" y1="100.684" y2="111.94" stroke="#606060" stroke-width=".25"/><rect width="28.189" height="3.469" fill="#606060" transform="translate(142.659 104.577)"/><line x1="176.177" x2="176.177" y1="100.684" y2="111.94" stroke="#606060" stroke-width=".25"/><rect width="12.143" height="3.469" fill="#606060" transform="translate(181.256 104.577)"/><g filter="url(#filter1_dddd_1684_201342)"><g clip-path="url(#clip3_1684_201342)"><rect width="159.158" height="11.275" x="40.138" y="66.423" fill="#2C2C2C" rx="3.469"/><rect width="7.806" height="7.806" x="45.775" y="68.158" fill="#FAFAFA" rx="3.903"/><line x1="58.911" x2="58.911" y1="66.433" y2="77.689" stroke="#606060" stroke-width=".25"/><rect width="15.612" height="3.469" fill="#FAFAFA" transform="translate(63.9902 70.3267)"/><rect width="9.974" height=".867" fill="#2C2C2C" transform="translate(65.291 71.6274)"/><rect width="3.469" height="3.469" fill="#272727" transform="translate(79.6025 70.3267)"/><path stroke="#FAFAFA" stroke-linecap="round" stroke-miterlimit="10" stroke-width=".283" d="M80.4704 72.5063L81.3394 71.6373L82.2051 72.5063"/><line x1="88.4" x2="88.4" y1="66.433" y2="77.689" stroke="#606060" stroke-width=".25"/><rect width="38.771" height="3.502" fill="#FAFAFA" transform="translate(93.4795 70.3105)"/><line x1="137.58" x2="137.58" y1="66.433" y2="77.689" stroke="#606060" stroke-width=".25"/><rect width="28.189" height="3.469" fill="#FAFAFA" transform="translate(142.659 70.3267)"/><line x1="176.177" x2="176.177" y1="66.433" y2="77.689" stroke="#606060" stroke-width=".25"/><rect width="12.143" height="3.469" fill="#FAFAFA" transform="translate(181.256 70.3267)"/></g></g><g filter="url(#filter2_dddd_1684_201342)"><rect width="19.082" height="10.408" fill="#2C2C2C" transform="translate(63.9902 73.7959)"/><rect width="9.974" height=".867" fill="#606060" transform="translate(65.7246 81.6021)"/><rect width="8.24" height=".867" fill="#606060" transform="translate(65.7246 79)"/><rect width="20.816" height="3.036" x="63.122" y="74.663" fill="#7E7E7E" rx=".434"/><rect width="9.974" height=".867" fill="#606060" transform="translate(65.7246 75.9644)"/></g></g></g><path fill="#A3A3A3" d="M47.3062 42.5488H35.8008V38.2349H44.7796L47.3062 42.5488Z"/></g></g></g><defs><filter id="filter0_d_1684_201342" width="197.41" height="127.589" x="20.795" y="20.989" color-interpolation-filters="sRGB" filterUnits="userSpaceOnUse"><feFlood flood-opacity="0" result="BackgroundImageFix"/><feColorMatrix in="SourceAlpha" result="hardAlpha" type="matrix" values="0 0 0 0 0 0 0 0 0 0 0 0 0 0 0 0 0 0 127 0"/><feOffset dy="6"/><feGaussianBlur stdDeviation="3.6"/><feComposite in2="hardAlpha" operator="out"/><feColorMatrix type="matrix" values="0 0 0 0 0 0 0 0 0 0 0 0 0 0 0 0 0 0 0.3 0"/><feBlend in2="BackgroundImageFix" mode="normal" result="effect1_dropShadow_1684_201342"/><feBlend in="SourceGraphic" in2="effect1_dropShadow_1684_201342" mode="normal" result="shape"/></filter><filter id="filter1_dddd_1684_201342" width="186.046" height="60.714" x="26.694" y="63.821" color-interpolation-filters="sRGB" filterUnits="userSpaceOnUse"><feFlood flood-opacity="0" result="BackgroundImageFix"/><feColorMatrix in="SourceAlpha" result="hardAlpha" type="matrix" values="0 0 0 0 0 0 0 0 0 0 0 0 0 0 0 0 0 0 127 0"/><feOffset dy="2.168"/><feGaussianBlur stdDeviation="2.385"/><feColorMatrix type="matrix" values="0 0 0 0 0 0 0 0 0 0 0 0 0 0 0 0 0 0 0.1 0"/><feBlend in2="BackgroundImageFix" mode="normal" result="effect1_dropShadow_1684_201342"/><feColorMatrix in="SourceAlpha" result="hardAlpha" type="matrix" values="0 0 0 0 0 0 0 0 0 0 0 0 0 0 0 0 0 0 127 0"/><feOffset dy="8.24"/><feGaussianBlur stdDeviation="4.12"/><feColorMatrix type="matrix" values="0 0 0 0 0 0 0 0 0 0 0 0 0 0 0 0 0 0 0.09 0"/><feBlend in2="effect1_dropShadow_1684_201342" mode="normal" result="effect2_dropShadow_1684_201342"/><feColorMatrix in="SourceAlpha" result="hardAlpha" type="matrix" values="0 0 0 0 0 0 0 0 0 0 0 0 0 0 0 0 0 0 127 0"/><feOffset dy="18.648"/><feGaussianBlur stdDeviation="5.638"/><feColorMatrix type="matrix" values="0 0 0 0 0 0 0 0 0 0 0 0 0 0 0 0 0 0 0.05 0"/><feBlend in2="effect2_dropShadow_1684_201342" mode="normal" result="effect3_dropShadow_1684_201342"/><feColorMatrix in="SourceAlpha" result="hardAlpha" type="matrix" values="0 0 0 0 0 0 0 0 0 0 0 0 0 0 0 0 0 0 127 0"/><feOffset dy="33.393"/><feGaussianBlur stdDeviation="6.722"/><feColorMatrix type="matrix" values="0 0 0 0 0 0 0 0 0 0 0 0 0 0 0 0 0 0 0.01 0"/><feBlend in2="effect3_dropShadow_1684_201342" mode="normal" result="effect4_dropShadow_1684_201342"/><feBlend in="SourceGraphic" in2="effect4_dropShadow_1684_201342" mode="normal" result="shape"/></filter><filter id="filter2_dddd_1684_201342" width="27.755" height="22.985" x="59.653" y="72.929" color-interpolation-filters="sRGB" filterUnits="userSpaceOnUse"><feFlood flood-opacity="0" result="BackgroundImageFix"/><feColorMatrix in="SourceAlpha" result="hardAlpha" type="matrix" values="0 0 0 0 0 0 0 0 0 0 0 0 0 0 0 0 0 0 127 0"/><feOffset dy=".434"/><feGaussianBlur stdDeviation=".651"/><feColorMatrix type="matrix" values="0 0 0 0 0 0 0 0 0 0 0 0 0 0 0 0 0 0 0.1 0"/><feBlend in2="BackgroundImageFix" mode="normal" result="effect1_dropShadow_1684_201342"/><feColorMatrix in="SourceAlpha" result="hardAlpha" type="matrix" values="0 0 0 0 0 0 0 0 0 0 0 0 0 0 0 0 0 0 127 0"/><feOffset dy="2.168"/><feGaussianBlur stdDeviation="1.084"/><feColorMatrix type="matrix" values="0 0 0 0 0 0 0 0 0 0 0 0 0 0 0 0 0 0 0.09 0"/><feBlend in2="effect1_dropShadow_1684_201342" mode="normal" result="effect2_dropShadow_1684_201342"/><feColorMatrix in="SourceAlpha" result="hardAlpha" type="matrix" values="0 0 0 0 0 0 0 0 0 0 0 0 0 0 0 0 0 0 127 0"/><feOffset dy="4.77"/><feGaussianBlur stdDeviation="1.518"/><feColorMatrix type="matrix" values="0 0 0 0 0 0 0 0 0 0 0 0 0 0 0 0 0 0 0.05 0"/><feBlend in2="effect2_dropShadow_1684_201342" mode="normal" result="effect3_dropShadow_1684_201342"/><feColorMatrix in="SourceAlpha" result="hardAlpha" type="matrix" values="0 0 0 0 0 0 0 0 0 0 0 0 0 0 0 0 0 0 127 0"/><feOffset dy="8.24"/><feGaussianBlur stdDeviation="1.735"/><feColorMatrix type="matrix" values="0 0 0 0 0 0 0 0 0 0 0 0 0 0 0 0 0 0 0.01 0"/><feBlend in2="effect3_dropShadow_1684_201342" mode="normal" result="effect4_dropShadow_1684_201342"/><feBlend in="SourceGraphic" in2="effect4_dropShadow_1684_201342" mode="normal" result="shape"/></filter><clipPath id="clip0_1684_201342"><rect width="239" height="158" fill="#fff"/></clipPath><clipPath id="clip1_1684_201342"><rect width="183.01" height="113.189" x="27.995" y="22.189" fill="#fff" rx="4.337"/></clipPath><clipPath id="clip2_1684_201342"><path fill="#fff" d="M35.8008 42.5713H201.464C202.662 42.5713 203.632 43.5421 203.632 44.7397V126.27C203.632 127.468 202.662 128.439 201.464 128.439H37.9691C36.7716 128.439 35.8008 127.468 35.8008 126.27V42.5713Z"/></clipPath><clipPath id="clip3_1684_201342"><rect width="159.158" height="11.275" x="40.138" y="66.423" fill="#fff" rx="3.469"/></clipPath></defs></svg>