<svg xmlns="http://www.w3.org/2000/svg" width="239" height="158" fill="none" viewBox="0 0 239 158"><g clip-path="url(#clip0_1684_201175)"><rect width="239" height="158" fill="#fff"/><g filter="url(#filter0_d_1684_201175)"><g clip-path="url(#clip1_1684_201175)"><rect width="180.139" height="111.413" x="29.431" y="23.08" fill="#fff" rx="4.269"/><path fill="#F8F8F8" d="M74.0515 43.1203H62.7266V38.874H71.5645L74.0515 43.1203Z"/><path fill="#DFDFDF" d="M65.5134 43.1203H54.1885V38.874H63.0264L65.5134 43.1203Z"/><path fill="#BFBFBF" d="M56.9763 43.1203H45.6514V38.874H54.4893L56.9763 43.1203Z"/><rect width="180.139" height="7.684" fill="#EBEBEB" transform="translate(29.4307 23.0801)"/><circle cx="34.2" cy="26.995" r=".927" fill="#BFBFBF"/><circle cx="37.114" cy="26.995" r=".927" fill="#BFBFBF"/><circle cx="40.029" cy="26.995" r=".927" fill="#BFBFBF"/><g opacity=".8"><g clip-path="url(#clip2_1684_201175)"><path fill="#F8F8F8" d="M37.1143 43.1431H200.179C201.358 43.1431 202.313 44.0986 202.313 45.2774V125.529C202.313 126.708 201.358 127.663 200.179 127.663H39.2486C38.0698 127.663 37.1143 126.708 37.1143 125.529V43.1431Z"/><rect width="7.684" height="7.684" x="46.932" y="57.647" fill="#DFDFDF" rx="3.842"/><line x1="59.86" x2="59.86" y1="55.949" y2="67.029" stroke="#DFDFDF" stroke-width=".246"/><rect width="15.367" height="3.415" fill="#DFDFDF" transform="translate(64.8604 59.7817)"/><g clip-path="url(#clip3_1684_201175)"><rect width="3.415" height="3.415" fill="#fff" transform="translate(80.2275 59.7817)"/><path stroke="#9C9D9D" stroke-linecap="round" stroke-miterlimit="10" stroke-width=".279" d="M82.7895 61.0718L81.9341 61.9272L81.082 61.0718"/></g><line x1="88.888" x2="88.888" y1="55.949" y2="67.029" stroke="#DFDFDF" stroke-width=".246"/><rect width="38.163" height="3.447" fill="#DFDFDF" transform="translate(93.8877 59.7656)"/><line x1="137.296" x2="137.296" y1="55.949" y2="67.029" stroke="#DFDFDF" stroke-width=".246"/><rect width="27.747" height="3.415" fill="#DFDFDF" transform="translate(142.295 59.7817)"/><line x1="175.287" x2="175.287" y1="55.949" y2="67.029" stroke="#DFDFDF" stroke-width=".246"/><rect width="11.952" height="3.415" fill="#DFDFDF" transform="translate(180.287 59.7817)"/><rect width="7.684" height="7.684" x="46.932" y="68.746" fill="#DFDFDF" rx="3.842"/><line x1="59.86" x2="59.86" y1="67.048" y2="78.127" stroke="#DFDFDF" stroke-width=".246"/><rect width="15.367" height="3.415" fill="#DFDFDF" transform="translate(64.8604 70.8804)"/><g clip-path="url(#clip4_1684_201175)"><rect width="3.415" height="3.415" fill="#fff" transform="translate(80.2275 70.8804)"/><path stroke="#9C9D9D" stroke-linecap="round" stroke-miterlimit="10" stroke-width=".279" d="M82.7895 72.1704L81.9341 73.0258L81.082 72.1704"/></g><line x1="88.888" x2="88.888" y1="67.048" y2="78.127" stroke="#DFDFDF" stroke-width=".246"/><rect width="38.163" height="3.447" fill="#DFDFDF" transform="translate(93.8877 70.8643)"/><line x1="137.296" x2="137.296" y1="67.048" y2="78.127" stroke="#DFDFDF" stroke-width=".246"/><rect width="27.747" height="3.415" fill="#DFDFDF" transform="translate(142.295 70.8804)"/><line x1="175.287" x2="175.287" y1="67.048" y2="78.127" stroke="#DFDFDF" stroke-width=".246"/><rect width="11.952" height="3.415" fill="#DFDFDF" transform="translate(180.287 70.8804)"/><rect width="7.684" height="7.684" x="46.932" y="79.844" fill="#DFDFDF" rx="3.842"/><line x1="59.86" x2="59.86" y1="78.147" y2="89.226" stroke="#DFDFDF" stroke-width=".246"/><rect width="15.367" height="3.415" fill="#DFDFDF" transform="translate(64.8604 81.979)"/><g clip-path="url(#clip5_1684_201175)"><rect width="3.415" height="3.415" fill="#fff" transform="translate(80.2275 81.979)"/><path stroke="#9C9D9D" stroke-linecap="round" stroke-miterlimit="10" stroke-width=".279" d="M82.7895 83.269L81.9341 84.1244L81.082 83.269"/></g><line x1="88.888" x2="88.888" y1="78.147" y2="89.226" stroke="#DFDFDF" stroke-width=".246"/><rect width="38.163" height="3.447" fill="#DFDFDF" transform="translate(93.8877 81.9629)"/><line x1="137.296" x2="137.296" y1="78.147" y2="89.226" stroke="#DFDFDF" stroke-width=".246"/><rect width="27.747" height="3.415" fill="#DFDFDF" transform="translate(142.295 81.979)"/><line x1="175.287" x2="175.287" y1="78.147" y2="89.226" stroke="#DFDFDF" stroke-width=".246"/><rect width="11.952" height="3.415" fill="#DFDFDF" transform="translate(180.287 81.979)"/><rect width="7.684" height="7.684" x="46.932" y="90.943" fill="#DFDFDF" rx="3.842"/><line x1="59.86" x2="59.86" y1="89.245" y2="100.325" stroke="#DFDFDF" stroke-width=".246"/><rect width="15.367" height="3.415" fill="#DFDFDF" transform="translate(64.8604 93.0776)"/><g clip-path="url(#clip6_1684_201175)"><rect width="3.415" height="3.415" fill="#fff" transform="translate(80.2275 93.0776)"/><path stroke="#9C9D9D" stroke-linecap="round" stroke-miterlimit="10" stroke-width=".279" d="M82.7895 94.3677L81.9341 95.2231L81.082 94.3677"/></g><line x1="88.888" x2="88.888" y1="89.245" y2="100.325" stroke="#DFDFDF" stroke-width=".246"/><rect width="38.163" height="3.447" fill="#DFDFDF" transform="translate(93.8877 93.0615)"/><line x1="137.296" x2="137.296" y1="89.245" y2="100.325" stroke="#DFDFDF" stroke-width=".246"/><rect width="27.747" height="3.415" fill="#DFDFDF" transform="translate(142.295 93.0776)"/><line x1="175.287" x2="175.287" y1="89.245" y2="100.325" stroke="#DFDFDF" stroke-width=".246"/><rect width="11.952" height="3.415" fill="#DFDFDF" transform="translate(180.287 93.0776)"/><rect width="7.684" height="7.684" x="46.932" y="102.042" fill="#DFDFDF" rx="3.842"/><line x1="59.86" x2="59.86" y1="100.344" y2="111.423" stroke="#DFDFDF" stroke-width=".246"/><rect width="15.367" height="3.415" fill="#DFDFDF" transform="translate(64.8604 104.176)"/><g clip-path="url(#clip7_1684_201175)"><rect width="3.415" height="3.415" fill="#fff" transform="translate(80.2275 104.176)"/><path stroke="#9C9D9D" stroke-linecap="round" stroke-miterlimit="10" stroke-width=".279" d="M82.7895 105.466L81.9341 106.322L81.082 105.466"/></g><line x1="88.888" x2="88.888" y1="100.344" y2="111.423" stroke="#DFDFDF" stroke-width=".246"/><rect width="38.163" height="3.447" fill="#DFDFDF" transform="translate(93.8877 104.16)"/><line x1="137.296" x2="137.296" y1="100.344" y2="111.423" stroke="#DFDFDF" stroke-width=".246"/><rect width="27.747" height="3.415" fill="#DFDFDF" transform="translate(142.295 104.176)"/><line x1="175.287" x2="175.287" y1="100.344" y2="111.423" stroke="#DFDFDF" stroke-width=".246"/><rect width="11.952" height="3.415" fill="#DFDFDF" transform="translate(180.287 104.176)"/><g filter="url(#filter1_dddd_1684_201175)"><g clip-path="url(#clip8_1684_201175)"><rect width="156.662" height="11.099" x="41.383" y="66.621" fill="#fff" rx="3.415"/><rect width="7.684" height="7.684" x="46.932" y="68.328" fill="#96C4D4" rx="3.842"/><line x1="59.86" x2="59.86" y1="66.63" y2="77.71" stroke="#DFDFDF" stroke-width=".246"/><rect width="15.367" height="3.415" fill="#007095" transform="translate(64.8604 70.4629)"/><rect width="9.818" height=".854" fill="#fff" transform="translate(66.1416 71.7437)"/><g clip-path="url(#clip9_1684_201175)"><rect width="3.415" height="3.415" fill="#E6F1F5" transform="translate(80.2275 70.4629)"/><path stroke="#007095" stroke-linecap="round" stroke-miterlimit="10" stroke-width=".279" d="M81.0816 72.6089L81.937 71.7535L82.7891 72.6089"/></g><line x1="88.888" x2="88.888" y1="66.63" y2="77.71" stroke="#DFDFDF" stroke-width=".246"/><rect width="38.163" height="3.447" fill="#96C4D4" transform="translate(93.8877 70.4468)"/><rect width="38.163" height="3.447" fill="#96C4D4" transform="translate(93.8877 70.4468)"/><line x1="137.296" x2="137.296" y1="66.63" y2="77.71" stroke="#DFDFDF" stroke-width=".246"/><rect width="27.747" height="3.415" fill="#96C4D4" transform="translate(142.295 70.4629)"/><line x1="175.287" x2="175.287" y1="66.63" y2="77.71" stroke="#DFDFDF" stroke-width=".246"/><rect width="11.952" height="3.415" fill="#96C4D4" transform="translate(180.287 70.4629)"/></g></g><g filter="url(#filter2_dddd_1684_201175)"><rect width="18.782" height="10.245" fill="#fff" transform="translate(64.8604 73.8774)"/><rect width="9.818" height=".854" fill="#DFDFDF" transform="translate(66.5684 81.561)"/><rect width="8.111" height=".854" fill="#DFDFDF" transform="translate(66.5684 79)"/><rect width="20.49" height="2.988" x="64.007" y="74.731" fill="#96C4D4" rx=".427"/><rect width="9.818" height=".854" fill="#DFDFDF" transform="translate(66.5684 76.0117)"/></g></g></g><path fill="#A3A3A3" d="M48.4392 43.1203H37.1143V38.874H45.9522L48.4392 43.1203Z"/></g></g></g><defs><filter id="filter0_d_1684_201175" width="194.54" height="125.813" x="22.231" y="21.88" color-interpolation-filters="sRGB" filterUnits="userSpaceOnUse"><feFlood flood-opacity="0" result="BackgroundImageFix"/><feColorMatrix in="SourceAlpha" result="hardAlpha" type="matrix" values="0 0 0 0 0 0 0 0 0 0 0 0 0 0 0 0 0 0 127 0"/><feOffset dy="6"/><feGaussianBlur stdDeviation="3.6"/><feComposite in2="hardAlpha" operator="out"/><feColorMatrix type="matrix" values="0 0 0 0 0 0 0 0 0 0 0 0 0 0 0 0 0 0 0.1 0"/><feBlend in2="BackgroundImageFix" mode="normal" result="effect1_dropShadow_1684_201175"/><feBlend in="SourceGraphic" in2="effect1_dropShadow_1684_201175" mode="normal" result="shape"/></filter><filter id="filter1_dddd_1684_201175" width="183.127" height="59.762" x="28.15" y="64.059" color-interpolation-filters="sRGB" filterUnits="userSpaceOnUse"><feFlood flood-opacity="0" result="BackgroundImageFix"/><feColorMatrix in="SourceAlpha" result="hardAlpha" type="matrix" values="0 0 0 0 0 0 0 0 0 0 0 0 0 0 0 0 0 0 127 0"/><feOffset dy="2.134"/><feGaussianBlur stdDeviation="2.348"/><feColorMatrix type="matrix" values="0 0 0 0 0 0 0 0 0 0 0 0 0 0 0 0 0 0 0.1 0"/><feBlend in2="BackgroundImageFix" mode="normal" result="effect1_dropShadow_1684_201175"/><feColorMatrix in="SourceAlpha" result="hardAlpha" type="matrix" values="0 0 0 0 0 0 0 0 0 0 0 0 0 0 0 0 0 0 127 0"/><feOffset dy="8.111"/><feGaussianBlur stdDeviation="4.055"/><feColorMatrix type="matrix" values="0 0 0 0 0 0 0 0 0 0 0 0 0 0 0 0 0 0 0.09 0"/><feBlend in2="effect1_dropShadow_1684_201175" mode="normal" result="effect2_dropShadow_1684_201175"/><feColorMatrix in="SourceAlpha" result="hardAlpha" type="matrix" values="0 0 0 0 0 0 0 0 0 0 0 0 0 0 0 0 0 0 127 0"/><feOffset dy="18.355"/><feGaussianBlur stdDeviation="5.549"/><feColorMatrix type="matrix" values="0 0 0 0 0 0 0 0 0 0 0 0 0 0 0 0 0 0 0.05 0"/><feBlend in2="effect2_dropShadow_1684_201175" mode="normal" result="effect3_dropShadow_1684_201175"/><feColorMatrix in="SourceAlpha" result="hardAlpha" type="matrix" values="0 0 0 0 0 0 0 0 0 0 0 0 0 0 0 0 0 0 127 0"/><feOffset dy="32.869"/><feGaussianBlur stdDeviation="6.617"/><feColorMatrix type="matrix" values="0 0 0 0 0 0 0 0 0 0 0 0 0 0 0 0 0 0 0.01 0"/><feBlend in2="effect3_dropShadow_1684_201175" mode="normal" result="effect4_dropShadow_1684_201175"/><feBlend in="SourceGraphic" in2="effect4_dropShadow_1684_201175" mode="normal" result="shape"/></filter><filter id="filter2_dddd_1684_201175" width="27.32" height="22.624" x="60.592" y="73.024" color-interpolation-filters="sRGB" filterUnits="userSpaceOnUse"><feFlood flood-opacity="0" result="BackgroundImageFix"/><feColorMatrix in="SourceAlpha" result="hardAlpha" type="matrix" values="0 0 0 0 0 0 0 0 0 0 0 0 0 0 0 0 0 0 127 0"/><feOffset dy=".427"/><feGaussianBlur stdDeviation=".64"/><feColorMatrix type="matrix" values="0 0 0 0 0 0 0 0 0 0 0 0 0 0 0 0 0 0 0.1 0"/><feBlend in2="BackgroundImageFix" mode="normal" result="effect1_dropShadow_1684_201175"/><feColorMatrix in="SourceAlpha" result="hardAlpha" type="matrix" values="0 0 0 0 0 0 0 0 0 0 0 0 0 0 0 0 0 0 127 0"/><feOffset dy="2.134"/><feGaussianBlur stdDeviation="1.067"/><feColorMatrix type="matrix" values="0 0 0 0 0 0 0 0 0 0 0 0 0 0 0 0 0 0 0.09 0"/><feBlend in2="effect1_dropShadow_1684_201175" mode="normal" result="effect2_dropShadow_1684_201175"/><feColorMatrix in="SourceAlpha" result="hardAlpha" type="matrix" values="0 0 0 0 0 0 0 0 0 0 0 0 0 0 0 0 0 0 127 0"/><feOffset dy="4.696"/><feGaussianBlur stdDeviation="1.494"/><feColorMatrix type="matrix" values="0 0 0 0 0 0 0 0 0 0 0 0 0 0 0 0 0 0 0.05 0"/><feBlend in2="effect2_dropShadow_1684_201175" mode="normal" result="effect3_dropShadow_1684_201175"/><feColorMatrix in="SourceAlpha" result="hardAlpha" type="matrix" values="0 0 0 0 0 0 0 0 0 0 0 0 0 0 0 0 0 0 127 0"/><feOffset dy="8.111"/><feGaussianBlur stdDeviation="1.707"/><feColorMatrix type="matrix" values="0 0 0 0 0 0 0 0 0 0 0 0 0 0 0 0 0 0 0.01 0"/><feBlend in2="effect3_dropShadow_1684_201175" mode="normal" result="effect4_dropShadow_1684_201175"/><feBlend in="SourceGraphic" in2="effect4_dropShadow_1684_201175" mode="normal" result="shape"/></filter><clipPath id="clip0_1684_201175"><rect width="239" height="158" fill="#fff"/></clipPath><clipPath id="clip1_1684_201175"><rect width="180.139" height="111.413" x="29.431" y="23.08" fill="#fff" rx="4.269"/></clipPath><clipPath id="clip2_1684_201175"><path fill="#fff" d="M37.1143 43.1431H200.179C201.358 43.1431 202.313 44.0986 202.313 45.2774V125.529C202.313 126.708 201.358 127.663 200.179 127.663H39.2486C38.0698 127.663 37.1143 126.708 37.1143 125.529V43.1431Z"/></clipPath><clipPath id="clip3_1684_201175"><rect width="3.415" height="3.415" fill="#fff" transform="translate(80.2275 59.7817)"/></clipPath><clipPath id="clip4_1684_201175"><rect width="3.415" height="3.415" fill="#fff" transform="translate(80.2275 70.8804)"/></clipPath><clipPath id="clip5_1684_201175"><rect width="3.415" height="3.415" fill="#fff" transform="translate(80.2275 81.979)"/></clipPath><clipPath id="clip6_1684_201175"><rect width="3.415" height="3.415" fill="#fff" transform="translate(80.2275 93.0776)"/></clipPath><clipPath id="clip7_1684_201175"><rect width="3.415" height="3.415" fill="#fff" transform="translate(80.2275 104.176)"/></clipPath><clipPath id="clip8_1684_201175"><rect width="156.662" height="11.099" x="41.383" y="66.621" fill="#fff" rx="3.415"/></clipPath><clipPath id="clip9_1684_201175"><rect width="3.415" height="3.415" fill="#fff" transform="translate(80.2275 70.4629)"/></clipPath></defs></svg>