<svg xmlns="http://www.w3.org/2000/svg" width="239" height="158" fill="none" viewBox="0 0 239 158"><g clip-path="url(#clip0_1684_201525)"><rect width="239" height="158" fill="#202020"/><g filter="url(#filter0_d_1684_201525)"><g clip-path="url(#clip1_1684_201525)"><rect width="179.515" height="113.114" x="29.936" y="22.636" fill="#2C2C2C" rx="3.861"/><g clip-path="url(#clip2_1684_201525)"><rect width="82.23" height="10.809" fill="#606060" transform="translate(35.3398 38.2363)"/><rect width="23.935" height="3.088" fill="#2C2C2C" transform="translate(39.2002 42.0972)"/><g clip-path="url(#clip3_1684_201525)"><path fill="#2C2C2C" d="M111.205 46.0122C111.351 46.0122 111.49 45.9519 111.593 45.8444C111.696 45.737 111.754 45.5913 111.754 45.4394C111.754 45.2875 111.696 45.1418 111.593 45.0344C111.49 44.927 111.351 44.8666 111.205 44.8666C111.06 44.8666 110.92 44.927 110.817 45.0344C110.714 45.1418 110.656 45.2875 110.656 45.4394C110.656 45.5913 110.714 45.737 110.817 45.8444C110.92 45.9519 111.06 46.0122 111.205 46.0122Z"/><path fill="#2C2C2C" d="M111.205 42.248C111.277 42.248 111.349 42.2332 111.415 42.2044C111.482 42.1757 111.542 42.1335 111.593 42.0803C111.644 42.0271 111.685 41.9639 111.712 41.8945C111.74 41.825 111.754 41.7505 111.754 41.6753C111.754 41.6 111.74 41.5256 111.712 41.4561C111.685 41.3866 111.644 41.3234 111.593 41.2702C111.542 41.217 111.482 41.1749 111.415 41.1461C111.349 41.1173 111.277 41.1025 111.205 41.1025C111.133 41.1025 111.062 41.1173 110.995 41.1461C110.929 41.1749 110.868 41.217 110.817 41.2702C110.766 41.3234 110.726 41.3866 110.698 41.4561C110.67 41.5256 110.656 41.6 110.656 41.6753C110.656 41.7505 110.67 41.825 110.698 41.8945C110.726 41.9639 110.766 42.0271 110.817 42.0803C110.868 42.1335 110.929 42.1757 110.995 42.2044C111.062 42.2332 111.133 42.248 111.205 42.248Z"/><path fill="#2C2C2C" d="M111.205 44.1299C111.351 44.1299 111.49 44.0695 111.593 43.9621C111.696 43.8547 111.754 43.709 111.754 43.5571C111.754 43.4052 111.696 43.2595 111.593 43.1521C111.49 43.0447 111.351 42.9843 111.205 42.9843C111.06 42.9843 110.92 43.0447 110.817 43.1521C110.714 43.2595 110.656 43.4052 110.656 43.5571C110.656 43.709 110.714 43.8547 110.817 43.9621C110.92 44.0695 111.06 44.1299 111.205 44.1299Z"/></g><g clip-path="url(#clip4_1684_201525)"><rect width="76.825" height="36.482" x="38.042" y="51.748" fill="#FAFAFA" rx="2.316"/><line x1="38.042" x2="114.867" y1="61.207" y2="61.207" stroke="#606060" stroke-width=".386"/><rect width="23.935" height="3.088" fill="#2C2C2C" transform="translate(41.1309 54.8369)"/><rect width="23.935" height="5.019" fill="#2C2C2C" transform="translate(51.5537 66.0327)"/><rect width="16.6" height="1.93" fill="#4F4E4E" transform="translate(53.0986 67.5771)"/><g clip-path="url(#clip5_1684_201525)"><path fill="#2C2C2C" d="M110.046 58.3574C110.169 58.3574 110.287 58.3064 110.374 58.2155C110.461 58.1246 110.51 58.0013 110.51 57.8728C110.51 57.7442 110.461 57.6209 110.374 57.53C110.287 57.4392 110.169 57.3881 110.046 57.3881C109.922 57.3881 109.804 57.4392 109.717 57.53C109.63 57.6209 109.581 57.7442 109.581 57.8728C109.581 58.0013 109.63 58.1246 109.717 58.2155C109.804 58.3064 109.922 58.3574 110.046 58.3574Z"/><path fill="#2C2C2C" d="M110.046 55.1729C110.107 55.1729 110.167 55.1603 110.223 55.136C110.28 55.1116 110.331 55.0759 110.374 55.0309C110.417 54.9859 110.451 54.9325 110.475 54.8737C110.498 54.8149 110.51 54.7518 110.51 54.6882C110.51 54.6245 110.498 54.5615 110.475 54.5027C110.451 54.4439 110.417 54.3905 110.374 54.3455C110.331 54.3005 110.28 54.2648 110.223 54.2404C110.167 54.2161 110.107 54.2035 110.046 54.2035C109.985 54.2035 109.924 54.2161 109.868 54.2404C109.811 54.2648 109.76 54.3005 109.717 54.3455C109.674 54.3905 109.64 54.4439 109.616 54.5027C109.593 54.5615 109.581 54.6245 109.581 54.6882C109.581 54.7518 109.593 54.8149 109.616 54.8737C109.64 54.9325 109.674 54.9859 109.717 55.0309C109.76 55.0759 109.811 55.1116 109.868 55.136C109.924 55.1603 109.985 55.1729 110.046 55.1729Z"/><path fill="#2C2C2C" d="M110.046 56.7651C110.169 56.7651 110.287 56.7141 110.374 56.6232C110.461 56.5323 110.51 56.409 110.51 56.2805C110.51 56.1519 110.461 56.0287 110.374 55.9378C110.287 55.8469 110.169 55.7958 110.046 55.7958C109.922 55.7958 109.804 55.8469 109.717 55.9378C109.63 56.0287 109.581 56.1519 109.581 56.2805C109.581 56.409 109.63 56.5323 109.717 56.6232C109.804 56.7141 109.922 56.7651 110.046 56.7651Z"/></g><rect width="7.335" height="7.721" x="41.131" y="64.488" fill="#2C2C2C" rx="3.668"/><path stroke="#606060" stroke-width=".386" d="M44.6982 70.619L43.0339 68.2539L44.7902 65.9707L46.5422 68.2482L44.6982 70.619Z"/></g><g clip-path="url(#clip6_1684_201525)"><rect width="76.825" height="36.482" x="38.042" y="90.547" fill="#4A4A4A" rx="2.316"/><line x1="38.042" x2="114.867" y1="100.005" y2="100.005" stroke="#606060" stroke-width=".386"/><rect width="23.935" height="3.088" fill="#2C2C2C" transform="translate(41.1309 93.6353)"/><g clip-path="url(#clip7_1684_201525)"><path fill="#2C2C2C" d="M110.046 97.1562C110.169 97.1562 110.287 97.1052 110.374 97.0143C110.461 96.9234 110.51 96.8001 110.51 96.6716C110.51 96.543 110.461 96.4198 110.374 96.3289C110.287 96.238 110.169 96.1869 110.046 96.1869C109.922 96.1869 109.804 96.238 109.717 96.3289C109.63 96.4198 109.581 96.543 109.581 96.6716C109.581 96.8001 109.63 96.9234 109.717 97.0143C109.804 97.1052 109.922 97.1562 110.046 97.1562Z"/><path fill="#2C2C2C" d="M110.046 93.9712C110.107 93.9712 110.167 93.9587 110.223 93.9343C110.28 93.9099 110.331 93.8742 110.374 93.8292C110.417 93.7842 110.451 93.7308 110.475 93.672C110.498 93.6132 110.51 93.5502 110.51 93.4865C110.51 93.4229 110.498 93.3599 110.475 93.3011C110.451 93.2422 110.417 93.1888 110.374 93.1438C110.331 93.0988 110.28 93.0631 110.223 93.0388C110.167 93.0144 110.107 93.0019 110.046 93.0019C109.985 93.0019 109.924 93.0144 109.868 93.0388C109.811 93.0631 109.76 93.0988 109.717 93.1438C109.674 93.1888 109.64 93.2422 109.616 93.3011C109.593 93.3599 109.581 93.4229 109.581 93.4865C109.581 93.5502 109.593 93.6132 109.616 93.672C109.64 93.7308 109.674 93.7842 109.717 93.8292C109.76 93.8742 109.811 93.9099 109.868 93.9343C109.924 93.9587 109.985 93.9712 110.046 93.9712Z"/><path fill="#2C2C2C" d="M110.046 95.5635C110.169 95.5635 110.287 95.5124 110.374 95.4215C110.461 95.3306 110.51 95.2074 110.51 95.0788C110.51 94.9503 110.461 94.827 110.374 94.7361C110.287 94.6452 110.169 94.5941 110.046 94.5941C109.922 94.5941 109.804 94.6452 109.717 94.7361C109.63 94.827 109.581 94.9503 109.581 95.0788C109.581 95.2074 109.63 95.3306 109.717 95.4215C109.804 95.5124 109.922 95.5635 110.046 95.5635Z"/></g><rect width="7.335" height="7.721" x="41.131" y="103.287" fill="#2C2C2C" rx="3.668"/><path stroke="#606060" stroke-width=".386" d="M44.6982 109.417L43.0339 107.052L44.7902 104.769L46.5422 107.047L44.6982 109.417Z"/></g></g><rect width="81.844" height="91.109" x="35.533" y="38.429" stroke="#4A4A4A" stroke-width=".386" rx="2.895"/><g clip-path="url(#clip8_1684_201525)"><rect width="82.23" height="10.809" fill="#606060" transform="translate(121.816 38.2363)"/><rect width="23.935" height="3.088" fill="#2C2C2C" transform="translate(125.677 42.0972)"/><g clip-path="url(#clip9_1684_201525)"><path fill="#2C2C2C" d="M197.682 46.0122C197.827 46.0122 197.967 45.9519 198.07 45.8444C198.173 45.737 198.231 45.5913 198.231 45.4394C198.231 45.2875 198.173 45.1418 198.07 45.0344C197.967 44.927 197.827 44.8666 197.682 44.8666C197.536 44.8666 197.397 44.927 197.294 45.0344C197.191 45.1418 197.133 45.2875 197.133 45.4394C197.133 45.5913 197.191 45.737 197.294 45.8444C197.397 45.9519 197.536 46.0122 197.682 46.0122Z"/><path fill="#2C2C2C" d="M197.682 42.248C197.754 42.248 197.825 42.2332 197.892 42.2044C197.958 42.1757 198.019 42.1335 198.07 42.0803C198.121 42.0271 198.161 41.9639 198.189 41.8945C198.216 41.825 198.231 41.7505 198.231 41.6753C198.231 41.6 198.216 41.5256 198.189 41.4561C198.161 41.3866 198.121 41.3234 198.07 41.2702C198.019 41.217 197.958 41.1749 197.892 41.1461C197.825 41.1173 197.754 41.1025 197.682 41.1025C197.61 41.1025 197.538 41.1173 197.472 41.1461C197.405 41.1749 197.345 41.217 197.294 41.2702C197.243 41.3234 197.202 41.3866 197.175 41.4561C197.147 41.5256 197.133 41.6 197.133 41.6753C197.133 41.7505 197.147 41.825 197.175 41.8945C197.202 41.9639 197.243 42.0271 197.294 42.0803C197.345 42.1335 197.405 42.1757 197.472 42.2044C197.538 42.2332 197.61 42.248 197.682 42.248Z"/><path fill="#2C2C2C" d="M197.682 44.1299C197.827 44.1299 197.967 44.0695 198.07 43.9621C198.173 43.8547 198.231 43.709 198.231 43.5571C198.231 43.4052 198.173 43.2595 198.07 43.1521C197.967 43.0447 197.827 42.9843 197.682 42.9843C197.536 42.9843 197.397 43.0447 197.294 43.1521C197.191 43.2595 197.133 43.4052 197.133 43.5571C197.133 43.709 197.191 43.8547 197.294 43.9621C197.397 44.0695 197.536 44.1299 197.682 44.1299Z"/></g><g clip-path="url(#clip10_1684_201525)"><rect width="76.825" height="23.549" x="124.519" y="51.748" fill="#4A4A4A" rx="2.316"/><line x1="124.519" x2="201.343" y1="61.207" y2="61.207" stroke="#606060" stroke-width=".386"/><rect width="23.935" height="3.088" fill="#2C2C2C" transform="translate(127.607 54.8369)"/><g clip-path="url(#clip11_1684_201525)"><path fill="#2C2C2C" d="M196.522 58.3574C196.645 58.3574 196.763 58.3064 196.851 58.2155C196.938 58.1246 196.987 58.0013 196.987 57.8728C196.987 57.7442 196.938 57.6209 196.851 57.53C196.763 57.4392 196.645 57.3881 196.522 57.3881C196.399 57.3881 196.281 57.4392 196.194 57.53C196.107 57.6209 196.058 57.7442 196.058 57.8728C196.058 58.0013 196.107 58.1246 196.194 58.2155C196.281 58.3064 196.399 58.3574 196.522 58.3574Z"/><path fill="#2C2C2C" d="M196.522 55.1729C196.583 55.1729 196.643 55.1603 196.7 55.136C196.756 55.1116 196.807 55.0759 196.851 55.0309C196.894 54.9859 196.928 54.9325 196.951 54.8737C196.975 54.8149 196.987 54.7518 196.987 54.6882C196.987 54.6245 196.975 54.5615 196.951 54.5027C196.928 54.4439 196.894 54.3905 196.851 54.3455C196.807 54.3005 196.756 54.2648 196.7 54.2404C196.643 54.2161 196.583 54.2035 196.522 54.2035C196.461 54.2035 196.401 54.2161 196.344 54.2404C196.288 54.2648 196.237 54.3005 196.194 54.3455C196.151 54.3905 196.116 54.4439 196.093 54.5027C196.07 54.5615 196.058 54.6245 196.058 54.6882C196.058 54.7518 196.07 54.8149 196.093 54.8737C196.116 54.9325 196.151 54.9859 196.194 55.0309C196.237 55.0759 196.288 55.1116 196.344 55.136C196.401 55.1603 196.461 55.1729 196.522 55.1729Z"/><path fill="#2C2C2C" d="M196.522 56.7651C196.645 56.7651 196.763 56.7141 196.851 56.6232C196.938 56.5323 196.987 56.409 196.987 56.2805C196.987 56.1519 196.938 56.0287 196.851 55.9378C196.763 55.8469 196.645 55.7958 196.522 55.7958C196.399 55.7958 196.281 55.8469 196.194 55.9378C196.107 56.0287 196.058 56.1519 196.058 56.2805C196.058 56.409 196.107 56.5323 196.194 56.6232C196.281 56.7141 196.399 56.7651 196.522 56.7651Z"/></g><rect width="7.335" height="7.721" x="127.607" y="64.488" fill="#2C2C2C" rx="3.668"/><path stroke="#606060" stroke-width=".386" d="M131.176 70.6195L129.511 68.2544L131.268 65.9712L133.02 68.2487L131.176 70.6195Z"/></g><g clip-path="url(#clip12_1684_201525)"><rect width="76.825" height="23.549" x="124.519" y="77.614" fill="#4A4A4A" rx="2.316"/><line x1="124.519" x2="201.343" y1="87.073" y2="87.073" stroke="#606060" stroke-width=".386"/><rect width="23.935" height="3.088" fill="#2C2C2C" transform="translate(127.607 80.7026)"/><g clip-path="url(#clip13_1684_201525)"><path fill="#2C2C2C" d="M196.522 84.2231C196.645 84.2231 196.763 84.1721 196.851 84.0812C196.938 83.9903 196.987 83.867 196.987 83.7385C196.987 83.6099 196.938 83.4867 196.851 83.3958C196.763 83.3049 196.645 83.2538 196.522 83.2538C196.399 83.2538 196.281 83.3049 196.194 83.3958C196.107 83.4867 196.058 83.6099 196.058 83.7385C196.058 83.867 196.107 83.9903 196.194 84.0812C196.281 84.1721 196.399 84.2231 196.522 84.2231Z"/><path fill="#2C2C2C" d="M196.522 81.0386C196.583 81.0386 196.643 81.026 196.7 81.0017C196.756 80.9773 196.807 80.9416 196.851 80.8966C196.894 80.8516 196.928 80.7982 196.951 80.7394C196.975 80.6806 196.987 80.6176 196.987 80.5539C196.987 80.4903 196.975 80.4272 196.951 80.3684C196.928 80.3096 196.894 80.2562 196.851 80.2112C196.807 80.1662 196.756 80.1305 196.7 80.1061C196.643 80.0818 196.583 80.0692 196.522 80.0692C196.461 80.0692 196.401 80.0818 196.344 80.1061C196.288 80.1305 196.237 80.1662 196.194 80.2112C196.151 80.2562 196.116 80.3096 196.093 80.3684C196.07 80.4272 196.058 80.4903 196.058 80.5539C196.058 80.6176 196.07 80.6806 196.093 80.7394C196.116 80.7982 196.151 80.8516 196.194 80.8966C196.237 80.9416 196.288 80.9773 196.344 81.0017C196.401 81.026 196.461 81.0386 196.522 81.0386Z"/><path fill="#2C2C2C" d="M196.522 82.6309C196.645 82.6309 196.763 82.5798 196.851 82.4889C196.938 82.398 196.987 82.2747 196.987 82.1462C196.987 82.0177 196.938 81.8944 196.851 81.8035C196.763 81.7126 196.645 81.6615 196.522 81.6615C196.399 81.6615 196.281 81.7126 196.194 81.8035C196.107 81.8944 196.058 82.0177 196.058 82.1462C196.058 82.2747 196.107 82.398 196.194 82.4889C196.281 82.5798 196.399 82.6309 196.522 82.6309Z"/></g><rect width="7.335" height="7.721" x="127.607" y="90.354" fill="#2C2C2C" rx="3.668"/><path stroke="#606060" stroke-width=".386" d="M131.176 96.4847L129.511 94.1196L131.268 91.8364L133.02 94.1139L131.176 96.4847Z"/></g></g><rect width="81.844" height="91.109" x="122.009" y="38.429" stroke="#4A4A4A" stroke-width=".386" rx="2.895"/><rect width="181.575" height="7.745" fill="#4A4A4A" transform="translate(29.7129 22.0649)"/><circle cx="34.521" cy="26.011" r=".935" fill="#B0B0B0"/><circle cx="37.458" cy="26.011" r=".935" fill="#B0B0B0"/><circle cx="40.397" cy="26.011" r=".935" fill="#B0B0B0"/></g></g></g><defs><filter id="filter0_d_1684_201525" width="193.916" height="127.514" x="22.735" y="21.436" color-interpolation-filters="sRGB" filterUnits="userSpaceOnUse"><feFlood flood-opacity="0" result="BackgroundImageFix"/><feColorMatrix in="SourceAlpha" result="hardAlpha" type="matrix" values="0 0 0 0 0 0 0 0 0 0 0 0 0 0 0 0 0 0 127 0"/><feOffset dy="6"/><feGaussianBlur stdDeviation="3.6"/><feComposite in2="hardAlpha" operator="out"/><feColorMatrix type="matrix" values="0 0 0 0 0 0 0 0 0 0 0 0 0 0 0 0 0 0 0.3 0"/><feBlend in2="BackgroundImageFix" mode="normal" result="effect1_dropShadow_1684_201525"/><feBlend in="SourceGraphic" in2="effect1_dropShadow_1684_201525" mode="normal" result="shape"/></filter><clipPath id="clip0_1684_201525"><rect width="239" height="158" fill="#fff"/></clipPath><clipPath id="clip1_1684_201525"><rect width="179.515" height="113.114" x="29.936" y="22.636" fill="#fff" rx="3.861"/></clipPath><clipPath id="clip2_1684_201525"><rect width="82.23" height="91.495" x="35.34" y="38.236" fill="#fff" rx="3.088"/></clipPath><clipPath id="clip3_1684_201525"><rect width="5.237" height="5.019" fill="#fff" transform="matrix(0 -1 1 0 108.69 46.1758)"/></clipPath><clipPath id="clip4_1684_201525"><rect width="76.825" height="36.482" x="38.042" y="51.748" fill="#fff" rx="2.316"/></clipPath><clipPath id="clip5_1684_201525"><rect width="4.431" height="4.247" fill="#fff" transform="matrix(0 -1 1 0 107.918 58.4961)"/></clipPath><clipPath id="clip6_1684_201525"><rect width="76.825" height="36.482" x="38.042" y="90.547" fill="#fff" rx="2.316"/></clipPath><clipPath id="clip7_1684_201525"><rect width="4.431" height="4.247" fill="#fff" transform="matrix(0 -1 1 0 107.918 97.2944)"/></clipPath><clipPath id="clip8_1684_201525"><rect width="82.23" height="91.495" x="121.816" y="38.236" fill="#fff" rx="3.088"/></clipPath><clipPath id="clip9_1684_201525"><rect width="5.237" height="5.019" fill="#fff" transform="matrix(0 -1 1 0 195.167 46.1758)"/></clipPath><clipPath id="clip10_1684_201525"><rect width="76.825" height="23.549" x="124.519" y="51.748" fill="#fff" rx="2.316"/></clipPath><clipPath id="clip11_1684_201525"><rect width="4.431" height="4.247" fill="#fff" transform="matrix(0 -1 1 0 194.395 58.4961)"/></clipPath><clipPath id="clip12_1684_201525"><rect width="76.825" height="23.549" x="124.519" y="77.614" fill="#fff" rx="2.316"/></clipPath><clipPath id="clip13_1684_201525"><rect width="4.431" height="4.247" fill="#fff" transform="matrix(0 -1 1 0 194.395 84.3618)"/></clipPath></defs></svg>