<svg xmlns="http://www.w3.org/2000/svg" width="239" height="158" fill="none" viewBox="0 0 239 158"><g clip-path="url(#clip0_1684_201462)"><rect width="239" height="158" fill="#f8f8f8"/><g filter="url(#filter0_d_1684_201462)"><g clip-path="url(#clip1_1684_201462)"><rect width="179.515" height="113.114" x="29.936" y="22.636" fill="#fff" rx="3.861"/><g clip-path="url(#clip2_1684_201462)"><rect width="82.23" height="10.809" fill="#DFDFDF" transform="translate(34.3398 39.2363)"/><rect width="23.935" height="3.088" fill="#fff" transform="translate(38.2002 43.0972)"/><g clip-path="url(#clip3_1684_201462)"><path fill="#fff" d="M110.205 47.0122C110.351 47.0122 110.49 46.9519 110.593 46.8444C110.696 46.737 110.754 46.5913 110.754 46.4394C110.754 46.2875 110.696 46.1418 110.593 46.0344C110.49 45.927 110.351 45.8666 110.205 45.8666C110.06 45.8666 109.92 45.927 109.817 46.0344C109.714 46.1418 109.656 46.2875 109.656 46.4394C109.656 46.5913 109.714 46.737 109.817 46.8444C109.92 46.9519 110.06 47.0122 110.205 47.0122Z"/><path fill="#fff" d="M110.205 43.248C110.277 43.248 110.349 43.2332 110.415 43.2044C110.482 43.1757 110.542 43.1335 110.593 43.0803C110.644 43.0271 110.685 42.9639 110.712 42.8945C110.74 42.825 110.754 42.7505 110.754 42.6753C110.754 42.6 110.74 42.5256 110.712 42.4561C110.685 42.3866 110.644 42.3234 110.593 42.2702C110.542 42.217 110.482 42.1749 110.415 42.1461C110.349 42.1173 110.277 42.1025 110.205 42.1025C110.133 42.1025 110.062 42.1173 109.995 42.1461C109.929 42.1749 109.868 42.217 109.817 42.2702C109.766 42.3234 109.726 42.3866 109.698 42.4561C109.67 42.5256 109.656 42.6 109.656 42.6753C109.656 42.7505 109.67 42.825 109.698 42.8945C109.726 42.9639 109.766 43.0271 109.817 43.0803C109.868 43.1335 109.929 43.1757 109.995 43.2044C110.062 43.2332 110.133 43.248 110.205 43.248Z"/><path fill="#fff" d="M110.205 45.1304C110.351 45.1304 110.49 45.07 110.593 44.9626C110.696 44.8552 110.754 44.7095 110.754 44.5576C110.754 44.4057 110.696 44.26 110.593 44.1526C110.49 44.0451 110.351 43.9848 110.205 43.9848C110.06 43.9848 109.92 44.0451 109.817 44.1526C109.714 44.26 109.656 44.4057 109.656 44.5576C109.656 44.7095 109.714 44.8552 109.817 44.9626C109.92 45.07 110.06 45.1304 110.205 45.1304Z"/></g><g clip-path="url(#clip4_1684_201462)"><rect width="76.825" height="36.482" x="37.043" y="52.748" fill="#E6F1F5" rx="2.316"/><line x1="37.043" x2="113.868" y1="62.207" y2="62.207" stroke="#DFDFDF" stroke-width=".386"/><rect width="23.935" height="3.088" fill="#fff" transform="translate(40.1309 55.8369)"/><rect width="23.935" height="5.019" fill="#fff" transform="translate(50.5547 67.0327)"/><rect width="16.6" height="1.93" fill="#E7E7E7" transform="translate(52.0986 68.5771)"/><g clip-path="url(#clip5_1684_201462)"><path fill="#fff" d="M109.046 59.3579C109.169 59.3579 109.287 59.3068 109.374 59.216C109.461 59.1251 109.51 59.0018 109.51 58.8732C109.51 58.7447 109.461 58.6214 109.374 58.5305C109.287 58.4396 109.169 58.3886 109.046 58.3886C108.922 58.3886 108.804 58.4396 108.717 58.5305C108.63 58.6214 108.581 58.7447 108.581 58.8732C108.581 59.0018 108.63 59.1251 108.717 59.216C108.804 59.3068 108.922 59.3579 109.046 59.3579Z"/><path fill="#fff" d="M109.046 56.1729C109.107 56.1729 109.167 56.1603 109.223 56.136C109.28 56.1116 109.331 56.0759 109.374 56.0309C109.417 55.9859 109.451 55.9325 109.475 55.8737C109.498 55.8149 109.51 55.7518 109.51 55.6882C109.51 55.6245 109.498 55.5615 109.475 55.5027C109.451 55.4439 109.417 55.3905 109.374 55.3455C109.331 55.3005 109.28 55.2648 109.223 55.2404C109.167 55.2161 109.107 55.2035 109.046 55.2035C108.985 55.2035 108.924 55.2161 108.868 55.2404C108.811 55.2648 108.76 55.3005 108.717 55.3455C108.674 55.3905 108.64 55.4439 108.616 55.5027C108.593 55.5615 108.581 55.6245 108.581 55.6882C108.581 55.7518 108.593 55.8149 108.616 55.8737C108.64 55.9325 108.674 55.9859 108.717 56.0309C108.76 56.0759 108.811 56.1116 108.868 56.136C108.924 56.1603 108.985 56.1729 109.046 56.1729Z"/><path fill="#fff" d="M109.046 57.7651C109.169 57.7651 109.287 57.7141 109.374 57.6232C109.461 57.5323 109.51 57.409 109.51 57.2805C109.51 57.1519 109.461 57.0287 109.374 56.9378C109.287 56.8469 109.169 56.7958 109.046 56.7958C108.922 56.7958 108.804 56.8469 108.717 56.9378C108.63 57.0287 108.581 57.1519 108.581 57.2805C108.581 57.409 108.63 57.5323 108.717 57.6232C108.804 57.7141 108.922 57.7651 109.046 57.7651Z"/></g><rect width="7.335" height="7.721" x="40.131" y="65.488" fill="#fff" rx="3.668"/><path stroke="#DFDFDF" stroke-width=".386" d="M43.6982 71.6195L42.0339 69.2544L43.7902 66.9712L45.5422 69.2487L43.6982 71.6195Z"/></g><g clip-path="url(#clip6_1684_201462)"><rect width="76.825" height="36.482" x="37.043" y="91.547" fill="#EBEBEB" rx="2.316"/><line x1="37.043" x2="113.868" y1="101.005" y2="101.005" stroke="#DFDFDF" stroke-width=".386"/><rect width="23.935" height="3.088" fill="#fff" transform="translate(40.1309 94.6353)"/><g clip-path="url(#clip7_1684_201462)"><path fill="#fff" d="M109.046 98.1562C109.169 98.1562 109.287 98.1052 109.374 98.0143C109.461 97.9234 109.51 97.8001 109.51 97.6716C109.51 97.543 109.461 97.4198 109.374 97.3289C109.287 97.238 109.169 97.1869 109.046 97.1869C108.922 97.1869 108.804 97.238 108.717 97.3289C108.63 97.4198 108.581 97.543 108.581 97.6716C108.581 97.8001 108.63 97.9234 108.717 98.0143C108.804 98.1052 108.922 98.1562 109.046 98.1562Z"/><path fill="#fff" d="M109.046 94.9712C109.107 94.9712 109.167 94.9587 109.223 94.9343C109.28 94.9099 109.331 94.8742 109.374 94.8292C109.417 94.7842 109.451 94.7308 109.475 94.672C109.498 94.6132 109.51 94.5502 109.51 94.4865C109.51 94.4229 109.498 94.3599 109.475 94.3011C109.451 94.2422 109.417 94.1888 109.374 94.1438C109.331 94.0988 109.28 94.0631 109.223 94.0388C109.167 94.0144 109.107 94.0019 109.046 94.0019C108.985 94.0019 108.924 94.0144 108.868 94.0388C108.811 94.0631 108.76 94.0988 108.717 94.1438C108.674 94.1888 108.64 94.2422 108.616 94.3011C108.593 94.3599 108.581 94.4229 108.581 94.4865C108.581 94.5502 108.593 94.6132 108.616 94.672C108.64 94.7308 108.674 94.7842 108.717 94.8292C108.76 94.8742 108.811 94.9099 108.868 94.9343C108.924 94.9587 108.985 94.9712 109.046 94.9712Z"/><path fill="#fff" d="M109.046 96.5635C109.169 96.5635 109.287 96.5124 109.374 96.4215C109.461 96.3306 109.51 96.2074 109.51 96.0788C109.51 95.9503 109.461 95.827 109.374 95.7361C109.287 95.6452 109.169 95.5941 109.046 95.5941C108.922 95.5941 108.804 95.6452 108.717 95.7361C108.63 95.827 108.581 95.9503 108.581 96.0788C108.581 96.2074 108.63 96.3306 108.717 96.4215C108.804 96.5124 108.922 96.5635 109.046 96.5635Z"/></g><rect width="7.335" height="7.721" x="40.131" y="104.287" fill="#fff" rx="3.668"/><path stroke="#DFDFDF" stroke-width=".386" d="M43.6982 110.418L42.0339 108.053L43.7902 105.77L45.5422 108.047L43.6982 110.418Z"/></g></g><rect width="81.844" height="91.109" x="34.533" y="39.429" stroke="#EBEBEB" stroke-width=".386" rx="2.895"/><g clip-path="url(#clip8_1684_201462)"><rect width="82.23" height="10.809" fill="#DFDFDF" transform="translate(120.816 39.2363)"/><rect width="23.935" height="3.088" fill="#fff" transform="translate(124.677 43.0972)"/><g clip-path="url(#clip9_1684_201462)"><path fill="#fff" d="M196.681 47.0122C196.826 47.0122 196.966 46.9519 197.069 46.8444C197.172 46.737 197.23 46.5913 197.23 46.4394C197.23 46.2875 197.172 46.1418 197.069 46.0344C196.966 45.927 196.826 45.8666 196.681 45.8666C196.535 45.8666 196.396 45.927 196.293 46.0344C196.19 46.1418 196.132 46.2875 196.132 46.4394C196.132 46.5913 196.19 46.737 196.293 46.8444C196.396 46.9519 196.535 47.0122 196.681 47.0122Z"/><path fill="#fff" d="M196.681 43.248C196.753 43.248 196.824 43.2332 196.891 43.2044C196.957 43.1757 197.018 43.1335 197.069 43.0803C197.12 43.0271 197.16 42.9639 197.188 42.8945C197.215 42.825 197.23 42.7505 197.23 42.6753C197.23 42.6 197.215 42.5256 197.188 42.4561C197.16 42.3866 197.12 42.3234 197.069 42.2702C197.018 42.217 196.957 42.1749 196.891 42.1461C196.824 42.1173 196.753 42.1025 196.681 42.1025C196.609 42.1025 196.537 42.1173 196.471 42.1461C196.404 42.1749 196.344 42.217 196.293 42.2702C196.242 42.3234 196.201 42.3866 196.174 42.4561C196.146 42.5256 196.132 42.6 196.132 42.6753C196.132 42.7505 196.146 42.825 196.174 42.8945C196.201 42.9639 196.242 43.0271 196.293 43.0803C196.344 43.1335 196.404 43.1757 196.471 43.2044C196.537 43.2332 196.609 43.248 196.681 43.248Z"/><path fill="#fff" d="M196.681 45.1304C196.826 45.1304 196.966 45.07 197.069 44.9626C197.172 44.8552 197.23 44.7095 197.23 44.5576C197.23 44.4057 197.172 44.26 197.069 44.1526C196.966 44.0451 196.826 43.9848 196.681 43.9848C196.535 43.9848 196.396 44.0451 196.293 44.1526C196.19 44.26 196.132 44.4057 196.132 44.5576C196.132 44.7095 196.19 44.8552 196.293 44.9626C196.396 45.07 196.535 45.1304 196.681 45.1304Z"/></g><g clip-path="url(#clip10_1684_201462)"><rect width="76.825" height="23.549" x="123.519" y="52.748" fill="#EBEBEB" rx="2.316"/><line x1="123.519" x2="200.343" y1="62.206" y2="62.206" stroke="#DFDFDF" stroke-width=".386"/><rect width="23.935" height="3.088" fill="#fff" transform="translate(126.607 55.8369)"/><g clip-path="url(#clip11_1684_201462)"><path fill="#fff" d="M195.522 59.3574C195.645 59.3574 195.763 59.3064 195.851 59.2155C195.938 59.1246 195.987 59.0013 195.987 58.8728C195.987 58.7442 195.938 58.6209 195.851 58.53C195.763 58.4392 195.645 58.3881 195.522 58.3881C195.399 58.3881 195.281 58.4392 195.194 58.53C195.107 58.6209 195.058 58.7442 195.058 58.8728C195.058 59.0013 195.107 59.1246 195.194 59.2155C195.281 59.3064 195.399 59.3574 195.522 59.3574Z"/><path fill="#fff" d="M195.522 56.1724C195.583 56.1724 195.643 56.1598 195.7 56.1355C195.756 56.1111 195.807 56.0754 195.851 56.0304C195.894 55.9854 195.928 55.932 195.951 55.8732C195.975 55.8144 195.987 55.7513 195.987 55.6877C195.987 55.624 195.975 55.561 195.951 55.5022C195.928 55.4434 195.894 55.39 195.851 55.345C195.807 55.3 195.756 55.2643 195.7 55.2399C195.643 55.2156 195.583 55.203 195.522 55.203C195.461 55.203 195.401 55.2156 195.344 55.2399C195.288 55.2643 195.237 55.3 195.194 55.345C195.151 55.39 195.116 55.4434 195.093 55.5022C195.07 55.561 195.058 55.624 195.058 55.6877C195.058 55.7513 195.07 55.8144 195.093 55.8732C195.116 55.932 195.151 55.9854 195.194 56.0304C195.237 56.0754 195.288 56.1111 195.344 56.1355C195.401 56.1598 195.461 56.1724 195.522 56.1724Z"/><path fill="#fff" d="M195.522 57.7646C195.645 57.7646 195.763 57.7136 195.851 57.6227C195.938 57.5318 195.987 57.4085 195.987 57.28C195.987 57.1514 195.938 57.0282 195.851 56.9373C195.763 56.8464 195.645 56.7953 195.522 56.7953C195.399 56.7953 195.281 56.8464 195.194 56.9373C195.107 57.0282 195.058 57.1514 195.058 57.28C195.058 57.4085 195.107 57.5318 195.194 57.6227C195.281 57.7136 195.399 57.7646 195.522 57.7646Z"/></g><rect width="7.335" height="7.721" x="126.607" y="65.488" fill="#fff" rx="3.668"/><path stroke="#DFDFDF" stroke-width=".386" d="M130.175 71.619L128.51 69.2539L130.267 66.9707L132.019 69.2482L130.175 71.619Z"/></g><g clip-path="url(#clip12_1684_201462)"><rect width="76.825" height="23.549" x="123.519" y="78.614" fill="#EBEBEB" rx="2.316"/><line x1="123.519" x2="200.343" y1="88.072" y2="88.072" stroke="#DFDFDF" stroke-width=".386"/><rect width="23.935" height="3.088" fill="#fff" transform="translate(126.607 81.7021)"/><g clip-path="url(#clip13_1684_201462)"><path fill="#fff" d="M195.522 85.2231C195.645 85.2231 195.763 85.1721 195.851 85.0812C195.938 84.9903 195.987 84.867 195.987 84.7385C195.987 84.6099 195.938 84.4867 195.851 84.3958C195.763 84.3049 195.645 84.2538 195.522 84.2538C195.399 84.2538 195.281 84.3049 195.194 84.3958C195.107 84.4867 195.058 84.6099 195.058 84.7385C195.058 84.867 195.107 84.9903 195.194 85.0812C195.281 85.1721 195.399 85.2231 195.522 85.2231Z"/><path fill="#fff" d="M195.522 82.0381C195.583 82.0381 195.643 82.0255 195.7 82.0012C195.756 81.9768 195.807 81.9411 195.851 81.8961C195.894 81.8511 195.928 81.7977 195.951 81.7389C195.975 81.6801 195.987 81.6171 195.987 81.5534C195.987 81.4898 195.975 81.4267 195.951 81.3679C195.928 81.3091 195.894 81.2557 195.851 81.2107C195.807 81.1657 195.756 81.13 195.7 81.1056C195.643 81.0813 195.583 81.0688 195.522 81.0688C195.461 81.0688 195.401 81.0813 195.344 81.1056C195.288 81.13 195.237 81.1657 195.194 81.2107C195.151 81.2557 195.116 81.3091 195.093 81.3679C195.07 81.4267 195.058 81.4898 195.058 81.5534C195.058 81.6171 195.07 81.6801 195.093 81.7389C195.116 81.7977 195.151 81.8511 195.194 81.8961C195.237 81.9411 195.288 81.9768 195.344 82.0012C195.401 82.0255 195.461 82.0381 195.522 82.0381Z"/><path fill="#fff" d="M195.522 83.6304C195.645 83.6304 195.763 83.5793 195.851 83.4884C195.938 83.3975 195.987 83.2742 195.987 83.1457C195.987 83.0172 195.938 82.8939 195.851 82.803C195.763 82.7121 195.645 82.661 195.522 82.661C195.399 82.661 195.281 82.7121 195.194 82.803C195.107 82.8939 195.058 83.0172 195.058 83.1457C195.058 83.2742 195.107 83.3975 195.194 83.4884C195.281 83.5793 195.399 83.6304 195.522 83.6304Z"/></g><rect width="7.335" height="7.721" x="126.607" y="91.353" fill="#fff" rx="3.668"/><path stroke="#DFDFDF" stroke-width=".386" d="M130.175 97.4847L128.51 95.1196L130.267 92.8364L132.019 95.1139L130.175 97.4847Z"/></g></g><rect width="81.844" height="91.109" x="121.009" y="39.429" stroke="#EBEBEB" stroke-width=".386" rx="2.895"/><rect width="181" height="8" fill="#EBEBEB" transform="translate(30 22)"/><circle cx="34.769" cy="25.916" r=".927" fill="#BFBFBF"/><circle cx="37.684" cy="25.916" r=".927" fill="#BFBFBF"/><circle cx="40.598" cy="25.916" r=".927" fill="#BFBFBF"/></g></g></g><defs><filter id="filter0_d_1684_201462" width="193.916" height="127.514" x="22.735" y="21.436" color-interpolation-filters="sRGB" filterUnits="userSpaceOnUse"><feFlood flood-opacity="0" result="BackgroundImageFix"/><feColorMatrix in="SourceAlpha" result="hardAlpha" type="matrix" values="0 0 0 0 0 0 0 0 0 0 0 0 0 0 0 0 0 0 127 0"/><feOffset dy="6"/><feGaussianBlur stdDeviation="3.6"/><feComposite in2="hardAlpha" operator="out"/><feColorMatrix type="matrix" values="0 0 0 0 0 0 0 0 0 0 0 0 0 0 0 0 0 0 0.1 0"/><feBlend in2="BackgroundImageFix" mode="normal" result="effect1_dropShadow_1684_201462"/><feBlend in="SourceGraphic" in2="effect1_dropShadow_1684_201462" mode="normal" result="shape"/></filter><clipPath id="clip0_1684_201462"><rect width="239" height="158" fill="#fff"/></clipPath><clipPath id="clip1_1684_201462"><rect width="179.515" height="113.114" x="29.936" y="22.636" fill="#fff" rx="3.861"/></clipPath><clipPath id="clip2_1684_201462"><rect width="82.23" height="91.495" x="34.34" y="39.236" fill="#fff" rx="3.088"/></clipPath><clipPath id="clip3_1684_201462"><rect width="5.237" height="5.019" fill="#fff" transform="matrix(0 -1 1 0 107.69 47.1758)"/></clipPath><clipPath id="clip4_1684_201462"><rect width="76.825" height="36.482" x="37.043" y="52.748" fill="#fff" rx="2.316"/></clipPath><clipPath id="clip5_1684_201462"><rect width="4.431" height="4.247" fill="#fff" transform="matrix(0 -1 1 0 106.918 59.4961)"/></clipPath><clipPath id="clip6_1684_201462"><rect width="76.825" height="36.482" x="37.043" y="91.547" fill="#fff" rx="2.316"/></clipPath><clipPath id="clip7_1684_201462"><rect width="4.431" height="4.247" fill="#fff" transform="matrix(0 -1 1 0 106.918 98.2944)"/></clipPath><clipPath id="clip8_1684_201462"><rect width="82.23" height="91.495" x="120.816" y="39.236" fill="#fff" rx="3.088"/></clipPath><clipPath id="clip9_1684_201462"><rect width="5.237" height="5.019" fill="#fff" transform="matrix(0 -1 1 0 194.167 47.1758)"/></clipPath><clipPath id="clip10_1684_201462"><rect width="76.825" height="23.549" x="123.519" y="52.748" fill="#fff" rx="2.316"/></clipPath><clipPath id="clip11_1684_201462"><rect width="4.431" height="4.247" fill="#fff" transform="matrix(0 -1 1 0 193.395 59.4956)"/></clipPath><clipPath id="clip12_1684_201462"><rect width="76.825" height="23.549" x="123.519" y="78.614" fill="#fff" rx="2.316"/></clipPath><clipPath id="clip13_1684_201462"><rect width="4.431" height="4.247" fill="#fff" transform="matrix(0 -1 1 0 193.395 85.3613)"/></clipPath></defs></svg>