<svg width="239" height="158" viewBox="0 0 239 158" fill="none" xmlns="http://www.w3.org/2000/svg">
  <g clip-path="url(#clip0_1684_201294)">
    <rect width="239" height="158" fill="#2c2c2c" />
    <g filter="url(#filter0_d_1684_201294)">
      <g clip-path="url(#clip1_1684_201294)">
        <rect x="29" y="19" width="179.914" height="119.034" rx="4.54329" fill="#2C2C2C" />
        <rect x="35" y="38.0352" width="10.1354" height="55.542" rx="2.02708" fill="white" />
        <rect width="34.8658" height="3.24333" transform="matrix(0 -1 1 0 38.2422 83.0366)"
          fill="#2C2C2C" />
        <rect x="46.3516" y="38.0352" width="10.1354" height="27.1629" rx="2.02708" fill="#383838" />
        <rect width="18.6491" height="3.24333" transform="matrix(0 -1 1 0 49.5947 60.7383)"
          fill="#4A4A4A" />
        <rect x="57.9766" y="38" width="144.216" height="27.3766" rx="2.02708" fill="#383838" />
        <rect x="137.225" y="43.6008" width="28.3791" height="15.6806" rx="2.02708" fill="white" />
        <rect width="19.0546" height="3.24333" transform="translate(142.09 47.2495)" fill="#4F4E4E" />
        <rect width="21.4871" height="3.24333" transform="translate(140.873 52.1147)" fill="#4F4E4E" />
        <rect x="88.6113" y="43.6008" width="28.1684" height="15.9015" rx="2.02708" fill="white" />
        <rect width="22.4755" height="3.13611" transform="translate(91.4482 49.6821)" fill="#4F4E4E" />
        <circle cx="69.3022" cy="51.5515" r="3.63071" fill="#2C2C2C" stroke="white"
          stroke-width="0.462174" />
        <path d="M87.475 50.8701H74.0723" stroke="#B0B0B0" stroke-width="0.681493" />
        <circle cx="186.306" cy="51.5411" r="3.54334" fill="#2C2C2C" stroke="#FAFAFA"
          stroke-width="0.616232" />
        <path d="M181.146 51.0703H166.755" stroke="#B0B0B0" stroke-width="0.681493" />
        <rect x="46.3516" y="66.4146" width="10.1354" height="27.1629" rx="2.02708" fill="#383838" />
        <rect width="18.6491" height="3.24333" transform="matrix(0 -1 1 0 49.5947 89.1177)"
          fill="#4A4A4A" />
        <rect x="57.9775" y="66.3545" width="144.216" height="27.3766" rx="2.02708" fill="#383838" />
        <rect x="88.1582" y="72.2236" width="28.3791" height="15.6806" rx="2.02708" fill="white" />
        <rect width="17.8383" height="3.24333" transform="translate(93.4277 78.3052)" fill="#4F4E4E" />
        <path d="M144.722 79.4927H118.144" stroke="#B0B0B0" stroke-width="0.681493" />
        <rect width="8.63881" height="8.63881" transform="translate(145.663 80.1494) rotate(-45)"
          fill="white" />
        <path d="M150.161 81.6963L153.321 78.5369" stroke="#202020" stroke-width="0.364548"
          stroke-linecap="round" />
        <path d="M150.161 78.5371L153.321 81.6965" stroke="#202020" stroke-width="0.364548"
          stroke-linecap="round" />
        <path d="M103.056 67.3857V55.8003" stroke="#B0B0B0" stroke-width="0.681493" />
        <path d="M152.123 68.9758V55.8003" stroke="#B0B0B0" stroke-width="0.681493" />
        <rect x="35" y="95.873" width="21.5807" height="27.4664" rx="2.02708" fill="#383838" />
        <rect width="18.6491" height="3.24333" transform="matrix(0 -1 1 0 49.3594 118.576)"
          fill="#4A4A4A" />
        <rect x="57.9775" y="95.9629" width="144.216" height="27.3766" rx="2.02708" fill="#383838" />
        <rect x="137.68" y="101.755" width="28.3791" height="15.8112" rx="2.02708" fill="white" />
        <rect width="12.7212" height="2.72597" transform="translate(145.342 108.021)" fill="#4F4E4E" />
        <circle cx="186.307" cy="109.695" r="3.54334" fill="#2C2C2C" stroke="#FAFAFA"
          stroke-width="0.616232" />
        <path d="M181.147 109.679H166.756" stroke="#B0B0B0" stroke-width="0.608124" />
        <path d="M152.123 97.3716V82.606" stroke="#B0B0B0" stroke-width="0.681493" />
        <rect width="180.139" height="7.68367" transform="translate(28.4297 19.0798)" fill="#4A4A4A" />
        <circle cx="33.1988" cy="22.9955" r="0.92734" fill="#B0B0B0" />
        <circle cx="36.1139" cy="22.9955" r="0.92734" fill="#B0B0B0" />
        <circle cx="39.0279" cy="22.9955" r="0.92734" fill="#B0B0B0" />
      </g>
    </g>
  </g>
  <defs>
    <filter id="filter0_d_1684_201294" x="21.8" y="17.8" width="194.314" height="133.434"
      filterUnits="userSpaceOnUse" color-interpolation-filters="sRGB">
      <feFlood flood-opacity="0" result="BackgroundImageFix" />
      <feColorMatrix in="SourceAlpha" type="matrix"
        values="0 0 0 0 0 0 0 0 0 0 0 0 0 0 0 0 0 0 127 0" result="hardAlpha" />
      <feOffset dy="6" />
      <feGaussianBlur stdDeviation="3.6" />
      <feComposite in2="hardAlpha" operator="out" />
      <feColorMatrix type="matrix" values="0 0 0 0 0 0 0 0 0 0 0 0 0 0 0 0 0 0 0.3 0" />
      <feBlend mode="normal" in2="BackgroundImageFix" result="effect1_dropShadow_1684_201294" />
      <feBlend mode="normal" in="SourceGraphic" in2="effect1_dropShadow_1684_201294" result="shape" />
    </filter>
    <clipPath id="clip0_1684_201294">
      <rect width="239" height="158" fill="white" />
    </clipPath>
    <clipPath id="clip1_1684_201294">
      <rect x="29" y="19" width="179.914" height="119.034" rx="4.54329" fill="white" />
    </clipPath>
  </defs>
</svg>