<svg xmlns="http://www.w3.org/2000/svg" width="239" height="158" fill="none" viewBox="0 0 239 158"><g clip-path="url(#clip0_1684_201294)"><rect width="239" height="158" fill="#2c2c2c"/><g filter="url(#filter0_d_1684_201294)"><g clip-path="url(#clip1_1684_201294)"><rect width="179.914" height="119.034" x="29" y="19" fill="#2C2C2C" rx="4.543"/><rect width="10.135" height="55.542" x="35" y="38.035" fill="#fff" rx="2.027"/><rect width="34.866" height="3.243" fill="#2C2C2C" transform="matrix(0 -1 1 0 38.2422 83.0366)"/><rect width="10.135" height="27.163" x="46.352" y="38.035" fill="#383838" rx="2.027"/><rect width="18.649" height="3.243" fill="#4A4A4A" transform="matrix(0 -1 1 0 49.5947 60.7383)"/><rect width="144.216" height="27.377" x="57.977" y="38" fill="#383838" rx="2.027"/><rect width="28.379" height="15.681" x="137.225" y="43.601" fill="#fff" rx="2.027"/><rect width="19.055" height="3.243" fill="#4F4E4E" transform="translate(142.09 47.2495)"/><rect width="21.487" height="3.243" fill="#4F4E4E" transform="translate(140.873 52.1147)"/><rect width="28.168" height="15.902" x="88.611" y="43.601" fill="#fff" rx="2.027"/><rect width="22.476" height="3.136" fill="#4F4E4E" transform="translate(91.4482 49.6821)"/><circle cx="69.302" cy="51.551" r="3.631" fill="#2C2C2C" stroke="#fff" stroke-width=".462"/><path stroke="#B0B0B0" stroke-width=".681" d="M87.475 50.8701H74.0723"/><circle cx="186.306" cy="51.541" r="3.543" fill="#2C2C2C" stroke="#FAFAFA" stroke-width=".616"/><path stroke="#B0B0B0" stroke-width=".681" d="M181.146 51.0703H166.755"/><rect width="10.135" height="27.163" x="46.352" y="66.415" fill="#383838" rx="2.027"/><rect width="18.649" height="3.243" fill="#4A4A4A" transform="matrix(0 -1 1 0 49.5947 89.1177)"/><rect width="144.216" height="27.377" x="57.977" y="66.355" fill="#383838" rx="2.027"/><rect width="28.379" height="15.681" x="88.158" y="72.224" fill="#fff" rx="2.027"/><rect width="17.838" height="3.243" fill="#4F4E4E" transform="translate(93.4277 78.3052)"/><path stroke="#B0B0B0" stroke-width=".681" d="M144.722 79.4927H118.144"/><rect width="8.639" height="8.639" fill="#fff" transform="translate(145.663 80.1494) rotate(-45)"/><path stroke="#202020" stroke-linecap="round" stroke-width=".365" d="M150.161 81.6963L153.321 78.5369"/><path stroke="#202020" stroke-linecap="round" stroke-width=".365" d="M150.161 78.5371L153.321 81.6965"/><path stroke="#B0B0B0" stroke-width=".681" d="M103.056 67.3857V55.8003"/><path stroke="#B0B0B0" stroke-width=".681" d="M152.123 68.9758V55.8003"/><rect width="21.581" height="27.466" x="35" y="95.873" fill="#383838" rx="2.027"/><rect width="18.649" height="3.243" fill="#4A4A4A" transform="matrix(0 -1 1 0 49.3594 118.576)"/><rect width="144.216" height="27.377" x="57.977" y="95.963" fill="#383838" rx="2.027"/><rect width="28.379" height="15.811" x="137.68" y="101.755" fill="#fff" rx="2.027"/><rect width="12.721" height="2.726" fill="#4F4E4E" transform="translate(145.342 108.021)"/><circle cx="186.307" cy="109.695" r="3.543" fill="#2C2C2C" stroke="#FAFAFA" stroke-width=".616"/><path stroke="#B0B0B0" stroke-width=".608" d="M181.147 109.679H166.756"/><path stroke="#B0B0B0" stroke-width=".681" d="M152.123 97.3716V82.606"/><rect width="180.139" height="7.684" fill="#4A4A4A" transform="translate(28.4297 19.0798)"/><circle cx="33.199" cy="22.995" r=".927" fill="#B0B0B0"/><circle cx="36.114" cy="22.995" r=".927" fill="#B0B0B0"/><circle cx="39.028" cy="22.995" r=".927" fill="#B0B0B0"/></g></g></g><defs><filter id="filter0_d_1684_201294" width="194.314" height="133.434" x="21.8" y="17.8" color-interpolation-filters="sRGB" filterUnits="userSpaceOnUse"><feFlood flood-opacity="0" result="BackgroundImageFix"/><feColorMatrix in="SourceAlpha" result="hardAlpha" type="matrix" values="0 0 0 0 0 0 0 0 0 0 0 0 0 0 0 0 0 0 127 0"/><feOffset dy="6"/><feGaussianBlur stdDeviation="3.6"/><feComposite in2="hardAlpha" operator="out"/><feColorMatrix type="matrix" values="0 0 0 0 0 0 0 0 0 0 0 0 0 0 0 0 0 0 0.3 0"/><feBlend in2="BackgroundImageFix" mode="normal" result="effect1_dropShadow_1684_201294"/><feBlend in="SourceGraphic" in2="effect1_dropShadow_1684_201294" mode="normal" result="shape"/></filter><clipPath id="clip0_1684_201294"><rect width="239" height="158" fill="#fff"/></clipPath><clipPath id="clip1_1684_201294"><rect width="179.914" height="119.034" x="29" y="19" fill="#fff" rx="4.543"/></clipPath></defs></svg>