<svg xmlns="http://www.w3.org/2000/svg" width="239" height="158" fill="none" viewBox="0 0 239 158">
  <g clip-path="url(#clip0_1684_201127)">
    <rect width="239" height="158" fill="#f8f8f8" />
    <g filter="url(#filter0_d_1684_201127)">
      <g clip-path="url(#clip1_1684_201127)">
        <rect width="179.076" height="118.479" x="29" y="20" fill="#fff" rx="4.522" />
        <rect width="10.088" height="55.283" x="35.33" y="38.263" fill="#EBEBEB" rx="2.018" />
        <rect width="34.703" height="3.228" fill="#fff" transform="matrix(0 -1 1 0 38.5576 83.0542)" />
        <rect width="10.088" height="27.036" x="46.63" y="38.262" fill="#F8F8F8" rx="2.018" />
        <rect width="18.562" height="3.228" fill="#EBEBEB"
          transform="matrix(0 -1 1 0 49.8594 60.8599)" />
        <rect width="143.544" height="27.249" x="58.201" y="38.227" fill="#F8F8F8" rx="2.018" />
        <rect width="28.247" height="15.607" x="137.079" y="43.802" fill="#fff" rx="2.018" />
        <rect width="18.966" height="3.228" fill="#E7E7E7" transform="translate(141.921 47.4336)" />
        <rect width="21.387" height="3.228" fill="#E7E7E7" transform="translate(140.71 52.2764)" />
        <rect width="28.037" height="15.827" x="88.691" y="43.802" fill="#fff" rx="2.018" />
        <rect width="22.371" height="3.122" fill="#E7E7E7" transform="translate(91.5156 49.855)" />
        <circle cx="69.473" cy="51.716" r="3.614" fill="#fff" stroke="#6BACC2" stroke-width=".46" />
        <path stroke="#DFDFDF" stroke-width=".678" d="M87.561 51.4897H74.2207" />
        <circle cx="185.93" cy="51.706" r="3.527" fill="#fff" stroke="#007095" stroke-width=".613" />
        <path stroke="#DFDFDF" stroke-width=".678" d="M180.796 51.689H166.472" />
        <rect width="10.088" height="27.036" x="46.63" y="66.509" fill="#F8F8F8" rx="2.018" />
        <rect width="18.562" height="3.228" fill="#EBEBEB"
          transform="matrix(0 -1 1 0 49.8594 89.1069)" />
        <rect width="143.544" height="27.249" x="58.2" y="66.45" fill="#F8F8F8" rx="2.018" />
        <rect width="28.247" height="15.607" x="88.238" y="72.291" fill="#fff" rx="2.018" />
        <rect width="17.755" height="3.228" fill="#E7E7E7" transform="translate(93.4844 78.3442)" />
        <path stroke="#DFDFDF" stroke-width=".678" d="M144.539 79.979H118.085" />
        <rect width="8.599" height="8.599" fill="#fff"
          transform="translate(145.478 80.1802) rotate(-45)" />
        <path stroke="#BFBFBF" stroke-linecap="round" stroke-width=".363"
          d="M149.952 81.7197L153.097 78.575" />
        <path stroke="#BFBFBF" stroke-linecap="round" stroke-width=".363"
          d="M149.952 78.5752L153.097 81.7199" />
        <path stroke="#DFDFDF" stroke-width=".678" d="M102.711 68.6125V57.0811" />
        <path stroke="#DFDFDF" stroke-width=".678" d="M151.55 70.1952V57.0811" />
        <rect width="21.48" height="27.338" x="35.33" y="96.283" fill="#F8F8F8" rx="2.018" />
        <rect width="18.562" height="3.228" fill="#EBEBEB"
          transform="matrix(0 -1 1 0 49.624 118.88)" />
        <rect width="143.544" height="27.249" x="58.2" y="96.372" fill="#F8F8F8" rx="2.018" />
        <rect width="28.247" height="15.738" x="137.53" y="102.137" fill="#fff" rx="2.018" />
        <rect width="12.662" height="2.713" fill="#E7E7E7" transform="translate(145.157 108.375)" />
        <circle cx="185.93" cy="110.041" r="3.527" fill="#fff" stroke="#007095" stroke-width=".613" />
        <path stroke="#DFDFDF" stroke-width=".605" d="M180.796 110.024H166.472" />
        <path stroke="#DFDFDF" stroke-width=".678" d="M151.55 98.4586V83.7617" />
        <rect width="180.139" height="7.684" fill="#EBEBEB" transform="translate(28.4297 20.0798)" />
        <circle cx="33.199" cy="23.995" r=".927" fill="#BFBFBF" />
        <circle cx="36.114" cy="23.995" r=".927" fill="#BFBFBF" />
        <circle cx="39.028" cy="23.995" r=".927" fill="#BFBFBF" />
      </g>
    </g>
  </g>
  <defs>
    <filter id="filter0_d_1684_201127" width="193.476" height="132.879" x="21.8" y="18.8"
      color-interpolation-filters="sRGB" filterUnits="userSpaceOnUse">
      <feFlood flood-opacity="0" result="BackgroundImageFix" />
      <feColorMatrix in="SourceAlpha" result="hardAlpha" type="matrix"
        values="0 0 0 0 0 0 0 0 0 0 0 0 0 0 0 0 0 0 127 0" />
      <feOffset dy="6" />
      <feGaussianBlur stdDeviation="3.6" />
      <feComposite in2="hardAlpha" operator="out" />
      <feColorMatrix type="matrix" values="0 0 0 0 0 0 0 0 0 0 0 0 0 0 0 0 0 0 0.1 0" />
      <feBlend in2="BackgroundImageFix" mode="normal" result="effect1_dropShadow_1684_201127" />
      <feBlend in="SourceGraphic" in2="effect1_dropShadow_1684_201127" mode="normal" result="shape" />
    </filter>
    <clipPath id="clip0_1684_201127">
      <rect width="239" height="158" fill="#fff" />
    </clipPath>
    <clipPath id="clip1_1684_201127">
      <rect width="179.076" height="118.479" x="29" y="20" fill="#fff" rx="4.522" />
    </clipPath>
  </defs>
</svg>