<svg xmlns="http://www.w3.org/2000/svg" width="159" height="129" fill="none" viewBox="0 -5 159 129">
  <path fill="#4a4a4a" d="M66.3919 98.9695H92.5897L100.352 115.719H58.3062L66.3919 98.9695Z" />
  <rect width="51.617" height="1.709" fill="#2c2c2c" transform="translate(53.5205 115.719)" />
  <g filter="url(#filter0_dddd_1314_82201)">
    <g clip-path="url(#clip0_1314_82201)">
      <rect width="141.862" height="97.082" x="8.398" y="2.229" fill="#4a4a4a" rx="3.418" />
      <path fill="#757575"
        d="M8.39795 5.64785C8.39795 3.75994 9.9284 2.22949 11.8163 2.22949H146.842C148.73 2.22949 150.26 3.75995 150.26 5.64786V84.954H8.39795V5.64785Z" />
      <rect width="131.265" height="72.469" fill="#2c2c2c" transform="translate(13.5254 7.35718)" />
      <rect width="10.255" height="1.709" fill="#4f4f4f" transform="translate(89.7549 13.5103)" />
      <rect width="10.255" height="1.709" fill="#4f4f4f" transform="translate(103.087 13.5103)" />
      <rect width="10.255" height="1.709" fill="#4f4f4f" transform="translate(116.418 13.5103)" />
      <rect width="10.255" height="1.709" fill="#4f4f4f" transform="translate(129.75 13.5103)" />
      <rect width="10.255" height="1.709" fill="#4f4f4f" transform="translate(89.7549 22.3979)" />
      <rect width="50.25" height="5.128" x="89.755" y="25.816" fill="#202020" rx="1.026" />
      <rect width="27.005" height="1.709" fill="#fafafa" transform="translate(92.1479 27.5254)" />
      <rect width="10.255" height="1.709" fill="#4f4f4f" transform="translate(89.7549 36.0715)" />
      <rect width="50.25" height="5.128" x="89.755" y="39.831" fill="#202020" rx="1.026" />
      <rect width="27.005" height="1.709" fill="#96C4D4" transform="translate(92.1479 41.5408)" />
      <rect width="24.27" height="5.128" x="89.755" y="47.01" fill="#202020" rx="1.026" />
      <rect width="19.485" height="1.709" fill="#4f4f4f" transform="translate(92.1479 48.7195)" />
      <rect width="24.27" height="5.128" x="115.735" y="47.01" fill="#202020" rx="1.026" />
      <rect width="12.306" height="1.709" fill="#4f4f4f" transform="translate(117.957 48.7195)" />
      <rect width="50.25" height="5.128" x="89.755" y="54.189" fill="#202020" rx="1.026" />
      <rect width="27.005" height="1.709" fill="#4f4f4f" transform="translate(92.1479 55.8979)" />
      <rect width="50.25" height="5.128" x="89.755" y="61.367" fill="#202020" rx="1.026" />
      <rect width="27.005" height="1.709" fill="#4f4f4f" transform="translate(92.1479 63.0764)" />
      <rect width="24.27" height="5.128" x="89.755" y="68.546" fill="#202020" rx="1.026" />
      <rect width="19.485" height="1.709" fill="#4f4f4f" transform="translate(92.1479 70.2551)" />
      <rect width="24.27" height="5.128" x="115.735" y="68.546" fill="#202020" rx="1.026" />
      <rect width="12.306" height="1.709" fill="#4f4f4f" transform="translate(117.957 70.2551)" />
      <rect width="3.958" height="21.69" x="17.969" y="26.856" fill="#4a4a4a" rx=".792" />
      <rect width="13.616" height="1.267" fill="#2c2c2c" transform="matrix(0 -1 1 0 19.2358 44.429)" />
      <rect width="3.958" height="10.607" x="22.402" y="26.856" fill="#202020" rx=".792" />
      <rect width="7.283" height="1.267" fill="#4a4a4a" transform="matrix(0 -1 1 0 23.6689 35.7214)" />
      <rect width="56.318" height="10.691" x="26.942" y="26.842" fill="#202020" rx=".792" />
      <rect width="11.082" height="6.123" x="57.889" y="29.029" fill="#2c2c2c" rx=".792" />
      <rect width="7.441" height="1.267" fill="#4f4f4f" transform="translate(59.7886 30.4539)" />
      <rect width="8.391" height="1.267" fill="#4f4f4f" transform="translate(59.314 32.3535)" />
      <rect width="11" height="6.21" x="38.905" y="29.029" fill="#2c2c2c" rx=".792" />
      <rect width="8.777" height="1.225" fill="#4f4f4f" transform="translate(40.0132 31.4038)" />
      <circle cx="31.364" cy="32.134" r="1.418" fill="#2c2c2c" stroke="#6bacc2" stroke-width=".18" />
      <path stroke="#606060" stroke-width=".266" d="M38.4614 32.0452H33.2275" />
      <circle cx="77.056" cy="32.13" r="1.384" fill="#2c2c2c" stroke="#fafafa" stroke-width=".241" />
      <path stroke="#606060" stroke-width=".266" d="M75.0413 32.1235H69.4214" />
      <rect width="3.958" height="10.607" x="22.402" y="37.938" fill="#202020" rx=".792" />
      <rect width="7.283" height="1.267" fill="#4a4a4a" transform="matrix(0 -1 1 0 23.6689 46.804)" />
      <rect width="56.318" height="10.691" x="26.942" y="37.915" fill="#202020" rx=".792" />
      <rect width="11.082" height="6.123" x="38.727" y="40.206" fill="#2c2c2c" rx=".792" />
      <rect width="6.966" height="1.267" fill="#4f4f4f" transform="translate(40.7856 42.5813)" />
      <path stroke="#606060" stroke-width=".266" d="M60.8166 43.2227H50.4375" />
      <g clip-path="url(#clip1_1314_82201)">
        <rect width="3.374" height="3.374" fill="#2c2c2c"
          transform="translate(61.1846 43.3018) rotate(-45)" />
        <path stroke="#b0b0b0" stroke-linecap="round" stroke-width=".142"
          d="M62.9404 43.9058L64.1742 42.672" />
        <path stroke="#b0b0b0" stroke-linecap="round" stroke-width=".142"
          d="M62.9404 42.6719L64.1742 43.9057" />
      </g>
      <path stroke="#606060" stroke-width=".266" d="M44.4053 39.9402V35.416" />
      <path stroke="#606060" stroke-width=".266" d="M63.5664 40.5612V35.416" />
      <rect width="8.428" height="10.726" x="17.969" y="49.619" fill="#202020" rx=".792" />
      <rect width="7.283" height="1.267" fill="#4a4a4a" transform="matrix(0 -1 1 0 23.5776 58.4854)" />
      <rect width="56.318" height="10.691" x="26.942" y="49.654" fill="#202020" rx=".792" />
      <rect width="11.082" height="6.174" x="58.066" y="51.916" fill="#2c2c2c" rx=".792" />
      <rect width="4.968" height="1.065" fill="#4f4f4f" transform="translate(61.0591 54.3635)" />
      <circle cx="77.056" cy="55.017" r="1.384" fill="#2c2c2c" stroke="#fafafa" stroke-width=".241" />
      <path stroke="#606060" stroke-width=".237" d="M75.0413 55.0107H69.4214" />
      <path stroke="#606060" stroke-width=".266" d="M63.5664 51.6502V45.884" />
      <rect width="6.153" height="6.153" x="17.627" y="11.117" fill="#4f4f4f" rx="3.077" />
    </g>
  </g>
  <defs>
    <filter id="filter0_dddd_1314_82201" width="158.27" height="127.505" x=".194" y=".862"
      color-interpolation-filters="sRGB" filterUnits="userSpaceOnUse">
      <feFlood flood-opacity="0" result="BackgroundImageFix" />
      <feColorMatrix in="SourceAlpha" result="hardAlpha" type="matrix"
        values="0 0 0 0 0 0 0 0 0 0 0 0 0 0 0 0 0 0 127 0" />
      <feOffset dy="1.367" />
      <feGaussianBlur stdDeviation="1.367" />
      <feColorMatrix type="matrix" values="0 0 0 0 0 0 0 0 0 0 0 0 0 0 0 0 0 0 0.1 0" />
      <feBlend in2="BackgroundImageFix" mode="normal" result="effect1_dropShadow_1314_82201" />
      <feColorMatrix in="SourceAlpha" result="hardAlpha" type="matrix"
        values="0 0 0 0 0 0 0 0 0 0 0 0 0 0 0 0 0 0 127 0" />
      <feOffset dy="5.128" />
      <feGaussianBlur stdDeviation="2.564" />
      <feColorMatrix type="matrix" values="0 0 0 0 0 0 0 0 0 0 0 0 0 0 0 0 0 0 0.09 0" />
      <feBlend in2="effect1_dropShadow_1314_82201" mode="normal"
        result="effect2_dropShadow_1314_82201" />
      <feColorMatrix in="SourceAlpha" result="hardAlpha" type="matrix"
        values="0 0 0 0 0 0 0 0 0 0 0 0 0 0 0 0 0 0 127 0" />
      <feOffset dy="11.622" />
      <feGaussianBlur stdDeviation="3.589" />
      <feColorMatrix type="matrix" values="0 0 0 0 0 0 0 0 0 0 0 0 0 0 0 0 0 0 0.05 0" />
      <feBlend in2="effect2_dropShadow_1314_82201" mode="normal"
        result="effect3_dropShadow_1314_82201" />
      <feColorMatrix in="SourceAlpha" result="hardAlpha" type="matrix"
        values="0 0 0 0 0 0 0 0 0 0 0 0 0 0 0 0 0 0 127 0" />
      <feOffset dy="20.852" />
      <feGaussianBlur stdDeviation="4.102" />
      <feColorMatrix type="matrix" values="0 0 0 0 0 0 0 0 0 0 0 0 0 0 0 0 0 0 0.01 0" />
      <feBlend in2="effect3_dropShadow_1314_82201" mode="normal"
        result="effect4_dropShadow_1314_82201" />
      <feBlend in="SourceGraphic" in2="effect4_dropShadow_1314_82201" mode="normal" result="shape" />
    </filter>
    <clipPath id="clip0_1314_82201">
      <rect width="141.862" height="97.082" x="8.398" y="2.229" fill="#2c2c2c" rx="3.418" />
    </clipPath>
    <clipPath id="clip1_1314_82201">
      <rect width="3.374" height="3.374" fill="#2c2c2c"
        transform="translate(61.1846 43.3018) rotate(-45)" />
    </clipPath>
  </defs>
</svg>