<svg width="159" height="129" viewBox="0 0 159 129" fill="none" xmlns="http://www.w3.org/2000/svg">
  <path d="M66.3919 98.9695H92.5897L100.352 115.719H58.3062L66.3919 98.9695Z" fill="var(--N100)" />
  <rect width="51.6173" height="1.70918" transform="translate(53.5205 115.719)" fill="var(--N100)" />
  <g filter="url(#filter0_dddd_1314_82201)">
    <g clip-path="url(#clip0_1314_82201)">
      <rect x="8.39795" y="2.22949" width="141.862" height="97.0816" rx="3.41837" fill="var(--N100)" />
      <path
        d="M8.39795 5.64785C8.39795 3.75994 9.9284 2.22949 11.8163 2.22949H146.842C148.73 2.22949 150.26 3.75995 150.26 5.64786V84.954H8.39795V5.64785Z"
        fill="var(--N500)" />
      <rect width="131.265" height="72.4694" transform="translate(13.5254 7.35718)"
        fill="var(--background)" />
      <rect width="10.2551" height="1.70918" transform="translate(89.7549 13.5103)"
        fill="var(--N200)" />
      <rect width="10.2551" height="1.70918" transform="translate(103.087 13.5103)"
        fill="var(--N200)" />
      <rect width="10.2551" height="1.70918" transform="translate(116.418 13.5103)"
        fill="var(--N200)" />
      <rect width="10.2551" height="1.70918" transform="translate(129.75 13.5103)"
        fill="var(--N200)" />
      <rect width="10.2551" height="1.70918" transform="translate(89.7549 22.3979)"
        fill="var(--N200)" />
      <rect x="89.7549" y="25.8164" width="50.25" height="5.12755" rx="1.02551" fill="var(--N50)" />
      <rect width="27.0051" height="1.70918" transform="translate(92.1479 27.5254)"
        fill="var(--P300)" />
      <rect width="10.2551" height="1.70918" transform="translate(89.7549 36.0715)"
        fill="var(--N200)" />
      <rect x="89.7549" y="39.8315" width="50.25" height="5.12755" rx="1.02551" fill="var(--N50)" />
      <rect width="27.0051" height="1.70918" transform="translate(92.1479 41.5408)" fill="#96C4D4" />
      <rect x="89.7549" y="47.0103" width="24.2704" height="5.12755" rx="1.02551" fill="var(--N50)" />
      <rect width="19.4847" height="1.70918" transform="translate(92.1479 48.7195)"
        fill="var(--N200)" />
      <rect x="115.735" y="47.0103" width="24.2704" height="5.12755" rx="1.02551" fill="var(--N50)" />
      <rect width="12.3061" height="1.70918" transform="translate(117.957 48.7195)"
        fill="var(--N200)" />
      <rect x="89.7549" y="54.1887" width="50.25" height="5.12755" rx="1.02551" fill="var(--N50)" />
      <rect width="27.0051" height="1.70918" transform="translate(92.1479 55.8979)"
        fill="var(--N200)" />
      <rect x="89.7549" y="61.3674" width="50.25" height="5.12755" rx="1.02551" fill="var(--N50)" />
      <rect width="27.0051" height="1.70918" transform="translate(92.1479 63.0764)"
        fill="var(--N200)" />
      <rect x="89.7549" y="68.5459" width="24.2704" height="5.12755" rx="1.02551" fill="var(--N50)" />
      <rect width="19.4847" height="1.70918" transform="translate(92.1479 70.2551)"
        fill="var(--N200)" />
      <rect x="115.735" y="68.5459" width="24.2704" height="5.12755" rx="1.02551" fill="var(--N50)" />
      <rect width="12.3061" height="1.70918" transform="translate(117.957 70.2551)"
        fill="var(--N200)" />
      <rect x="17.9692" y="26.8557" width="3.95799" height="21.6898" rx="0.791599"
        fill="var(--N100)" />
      <rect width="13.6155" height="1.26656" transform="matrix(0 -1 1 0 19.2358 44.429)"
        fill="var(--background)" />
      <rect x="22.4023" y="26.8557" width="3.95799" height="10.6074" rx="0.791599" fill="var(--N50)" />
      <rect width="7.28271" height="1.26656" transform="matrix(0 -1 1 0 23.6689 35.7214)"
        fill="var(--N100)" />
      <rect x="26.9419" y="26.8418" width="56.3181" height="10.6909" rx="0.791599" fill="var(--N50)" />
      <rect x="57.8892" y="29.0291" width="11.0824" height="6.12344" rx="0.791599"
        fill="var(--background)" />
      <rect width="7.44103" height="1.26656" transform="translate(59.7886 30.4539)"
        fill="var(--N200)" />
      <rect width="8.39095" height="1.26656" transform="translate(59.314 32.3535)"
        fill="var(--N200)" />
      <rect x="38.9053" y="29.0291" width="11.0001" height="6.20972" rx="0.791599"
        fill="var(--background)" />
      <rect width="8.77693" height="1.22469" transform="translate(40.0132 31.4038)"
        fill="var(--N200)" />
      <circle cx="31.3645" cy="32.1338" r="1.41783" fill="var(--background)" stroke="var(--P100)"
        stroke-width="0.180485" />
      <path d="M38.4614 32.0452H33.2275" stroke="var(--N300)" stroke-width="0.266131" />
      <circle cx="77.0558" cy="32.1298" r="1.38371" fill="var(--background)" stroke="var(--P300)"
        stroke-width="0.240646" />
      <path d="M75.0413 32.1235H69.4214" stroke="var(--N300)" stroke-width="0.266131" />
      <rect x="22.4023" y="37.938" width="3.95799" height="10.6074" rx="0.791599" fill="var(--N50)" />
      <rect width="7.28271" height="1.26656" transform="matrix(0 -1 1 0 23.6689 46.804)"
        fill="var(--N100)" />
      <rect x="26.9419" y="37.9146" width="56.3181" height="10.6909" rx="0.791599" fill="var(--N50)" />
      <rect x="38.7275" y="40.2065" width="11.0824" height="6.12344" rx="0.791599"
        fill="var(--background)" />
      <rect width="6.96607" height="1.26656" transform="translate(40.7856 42.5813)"
        fill="var(--N200)" />
      <path d="M60.8166 43.2227H50.4375" stroke="var(--N300)" stroke-width="0.266131" />
      <g clip-path="url(#clip1_1314_82201)">
        <rect width="3.37356" height="3.37356" transform="translate(61.1846 43.3018) rotate(-45)"
          fill="var(--background)" />
        <path d="M62.9404 43.9058L64.1742 42.672" stroke="var(--N400)" stroke-width="0.14236"
          stroke-linecap="round" />
        <path d="M62.9404 42.6719L64.1742 43.9057" stroke="var(--N400)" stroke-width="0.14236"
          stroke-linecap="round" />
      </g>
      <path d="M44.4053 39.9402V35.416" stroke="var(--N300)" stroke-width="0.266131" />
      <path d="M63.5664 40.5612V35.416" stroke="var(--N300)" stroke-width="0.266131" />
      <rect x="17.9692" y="49.6194" width="8.42753" height="10.7259" rx="0.791599" fill="var(--N50)" />
      <rect width="7.28271" height="1.26656" transform="matrix(0 -1 1 0 23.5776 58.4854)"
        fill="var(--N100)" />
      <rect x="26.9419" y="49.6545" width="56.3181" height="10.6909" rx="0.791599" fill="var(--N50)" />
      <rect x="58.0664" y="51.9163" width="11.0824" height="6.17447" rx="0.791599"
        fill="var(--background)" />
      <rect width="4.96778" height="1.06452" transform="translate(61.0591 54.3635)"
        fill="var(--N200)" />
      <circle cx="77.0558" cy="55.017" r="1.38371" fill="var(--background)" stroke="var(--P300)"
        stroke-width="0.240646" />
      <path d="M75.0413 55.0107H69.4214" stroke="var(--N300)" stroke-width="0.23748" />
      <path d="M63.5664 51.6502V45.884" stroke="var(--N300)" stroke-width="0.266131" />
      <rect x="17.6274" y="11.1174" width="6.15306" height="6.15306" rx="3.07653" fill="var(--N200)" />
    </g>
  </g>
  <defs>
    <filter id="filter0_dddd_1314_82201" x="0.193868" y="0.862145" width="158.27" height="127.505"
      filterUnits="userSpaceOnUse" color-interpolation-filters="sRGB">
      <feFlood flood-opacity="0" result="BackgroundImageFix" />
      <feColorMatrix in="SourceAlpha" type="matrix"
        values="0 0 0 0 0 0 0 0 0 0 0 0 0 0 0 0 0 0 127 0" result="hardAlpha" />
      <feOffset dy="1.36735" />
      <feGaussianBlur stdDeviation="1.36735" />
      <feColorMatrix type="matrix" values="0 0 0 0 0 0 0 0 0 0 0 0 0 0 0 0 0 0 0.1 0" />
      <feBlend mode="normal" in2="BackgroundImageFix" result="effect1_dropShadow_1314_82201" />
      <feColorMatrix in="SourceAlpha" type="matrix"
        values="0 0 0 0 0 0 0 0 0 0 0 0 0 0 0 0 0 0 127 0" result="hardAlpha" />
      <feOffset dy="5.12755" />
      <feGaussianBlur stdDeviation="2.56378" />
      <feColorMatrix type="matrix" values="0 0 0 0 0 0 0 0 0 0 0 0 0 0 0 0 0 0 0.09 0" />
      <feBlend mode="normal" in2="effect1_dropShadow_1314_82201"
        result="effect2_dropShadow_1314_82201" />
      <feColorMatrix in="SourceAlpha" type="matrix"
        values="0 0 0 0 0 0 0 0 0 0 0 0 0 0 0 0 0 0 127 0" result="hardAlpha" />
      <feOffset dy="11.6224" />
      <feGaussianBlur stdDeviation="3.58929" />
      <feColorMatrix type="matrix" values="0 0 0 0 0 0 0 0 0 0 0 0 0 0 0 0 0 0 0.05 0" />
      <feBlend mode="normal" in2="effect2_dropShadow_1314_82201"
        result="effect3_dropShadow_1314_82201" />
      <feColorMatrix in="SourceAlpha" type="matrix"
        values="0 0 0 0 0 0 0 0 0 0 0 0 0 0 0 0 0 0 127 0" result="hardAlpha" />
      <feOffset dy="20.852" />
      <feGaussianBlur stdDeviation="4.10204" />
      <feColorMatrix type="matrix" values="0 0 0 0 0 0 0 0 0 0 0 0 0 0 0 0 0 0 0.01 0" />
      <feBlend mode="normal" in2="effect3_dropShadow_1314_82201"
        result="effect4_dropShadow_1314_82201" />
      <feBlend mode="normal" in="SourceGraphic" in2="effect4_dropShadow_1314_82201" result="shape" />
    </filter>
    <clipPath id="clip0_1314_82201">
      <rect x="8.39795" y="2.22949" width="141.862" height="97.0816" rx="3.41837"
        fill="var(--background)" />
    </clipPath>
    <clipPath id="clip1_1314_82201">
      <rect width="3.37356" height="3.37356" fill="var(--background)"
        transform="translate(61.1846 43.3018) rotate(-45)" />
    </clipPath>
  </defs>
</svg>
  