<svg width="209" height="140" viewBox="0 0 209 140" fill="none" xmlns="http://www.w3.org/2000/svg">
  <g filter="url(#filter0_dddd_1223_91308)">
    <rect x="17.6221" y="3.52051" width="173.755" height="114.959" rx="4.38775"
      fill="var(--background)" />
    <rect x="23.7646" y="18.3293" width="9.78844" height="53.6406" rx="1.95769" fill="var(--N100)" />
    <rect width="33.6722" height="3.1323" transform="matrix(0 -1 1 0 26.8965 61.79)"
      fill="var(--background)" />
    <rect x="34.7285" y="18.3291" width="9.78844" height="26.233" rx="1.95769" fill="var(--N50)" />
    <rect width="18.0107" height="3.1323" transform="matrix(0 -1 1 0 37.8613 40.2551)"
      fill="var(--N100)" />
    <rect x="45.9561" y="18.2952" width="139.279" height="26.4394" rx="1.95769" fill="var(--N50)" />
    <rect x="122.49" y="23.7041" width="27.4076" height="15.1438" rx="1.95769"
      fill="var(--background)" />
    <rect width="18.4023" height="3.1323" transform="translate(127.188 27.228)" fill="var(--N200)" />
    <rect width="20.7515" height="3.1323" transform="translate(126.014 31.9265)" fill="var(--N200)" />
    <rect x="75.541" y="23.7041" width="27.2041" height="15.3571" rx="1.95769"
      fill="var(--background)" />
    <rect width="21.7061" height="3.02875" transform="translate(78.2812 29.5771)" fill="var(--N200)" />
    <circle cx="56.8927" cy="31.3827" r="3.50642" fill="var(--background)" stroke="var(--P100)"
      stroke-width="0.446353" />
    <path d="M74.4439 31.1633H61.5" stroke="var(--N300)" stroke-width="0.658163" />
    <circle cx="169.891" cy="31.3727" r="3.42204" fill="var(--background)" stroke="var(--P300)"
      stroke-width="0.595137" />
    <path d="M164.908 31.3569H151.01" stroke="var(--N300)" stroke-width="0.658163" />
    <rect x="34.7285" y="45.7368" width="9.78844" height="26.233" rx="1.95769" fill="var(--N50)" />
    <rect width="18.0107" height="3.1323" transform="matrix(0 -1 1 0 37.8613 67.6628)"
      fill="var(--N100)" />
    <rect x="45.9551" y="45.679" width="139.279" height="26.4394" rx="1.95769" fill="var(--N50)" />
    <rect x="75.1006" y="51.3472" width="27.4076" height="15.1438" rx="1.95769"
      fill="var(--background)" />
    <rect width="17.2276" height="3.1323" transform="translate(80.1904 57.2202)" fill="var(--N200)" />
    <path d="M129.729 58.8062H104.061" stroke="var(--N300)" stroke-width="0.658163" />
    <rect width="8.34307" height="8.34307" transform="translate(130.639 59.0015) rotate(-45)"
      fill="var(--background)" />
    <path d="M134.98 60.4956L138.032 57.4444" stroke="var(--N400)" stroke-width="0.352069"
      stroke-linecap="round" />
    <path d="M134.98 57.4443L138.032 60.4956" stroke="var(--N400)" stroke-width="0.352069"
      stroke-linecap="round" />
    <path d="M89.1426 50.6888V39.5" stroke="var(--N300)" stroke-width="0.658163" />
    <path d="M136.53 52.2245V39.5" stroke="var(--N300)" stroke-width="0.658163" />
    <rect x="23.7646" y="74.6257" width="20.8419" height="26.5261" rx="1.95769" fill="var(--N50)" />
    <rect width="18.0107" height="3.1323" transform="matrix(0 -1 1 0 37.6338 96.5518)"
      fill="var(--N100)" />
    <rect x="45.9551" y="74.7124" width="139.279" height="26.4394" rx="1.95769" fill="var(--N50)" />
    <rect x="122.928" y="80.3062" width="27.4076" height="15.27" rx="1.95769"
      fill="var(--background)" />
    <rect width="12.2857" height="2.63265" transform="translate(130.328 86.3586)" fill="var(--N200)" />
    <circle cx="169.89" cy="87.9747" r="3.42204" fill="var(--background)" stroke="var(--P300)"
      stroke-width="0.595137" />
    <path d="M164.907 87.959H151.009" stroke="var(--N300)" stroke-width="0.587306" />
    <path d="M136.53 79.6479V65.3877" stroke="var(--N300)" stroke-width="0.658163" />
  </g>
  <defs>
    <filter id="filter0_dddd_1223_91308" x="0.509825" y="0.0103037" width="207.979" height="178.582"
      filterUnits="userSpaceOnUse" color-interpolation-filters="sRGB">
      <feFlood flood-opacity="0" result="BackgroundImageFix" />
      <feColorMatrix in="SourceAlpha" type="matrix"
        values="0 0 0 0 0 0 0 0 0 0 0 0 0 0 0 0 0 0 127 0" result="hardAlpha" />
      <feOffset dy="2.63265" />
      <feGaussianBlur stdDeviation="3.07143" />
      <feColorMatrix type="matrix" values="0 0 0 0 0 0 0 0 0 0 0 0 0 0 0 0 0 0 0.1 0" />
      <feBlend mode="normal" in2="BackgroundImageFix" result="effect1_dropShadow_1223_91308" />
      <feColorMatrix in="SourceAlpha" type="matrix"
        values="0 0 0 0 0 0 0 0 0 0 0 0 0 0 0 0 0 0 127 0" result="hardAlpha" />
      <feOffset dy="10.9694" />
      <feGaussianBlur stdDeviation="5.48469" />
      <feColorMatrix type="matrix" values="0 0 0 0 0 0 0 0 0 0 0 0 0 0 0 0 0 0 0.09 0" />
      <feBlend mode="normal" in2="effect1_dropShadow_1223_91308"
        result="effect2_dropShadow_1223_91308" />
      <feColorMatrix in="SourceAlpha" type="matrix"
        values="0 0 0 0 0 0 0 0 0 0 0 0 0 0 0 0 0 0 127 0" result="hardAlpha" />
      <feOffset dy="24.1327" />
      <feGaussianBlur stdDeviation="7.2398" />
      <feColorMatrix type="matrix" values="0 0 0 0 0 0 0 0 0 0 0 0 0 0 0 0 0 0 0.05 0" />
      <feBlend mode="normal" in2="effect2_dropShadow_1223_91308"
        result="effect3_dropShadow_1223_91308" />
      <feColorMatrix in="SourceAlpha" type="matrix"
        values="0 0 0 0 0 0 0 0 0 0 0 0 0 0 0 0 0 0 127 0" result="hardAlpha" />
      <feOffset dy="43" />
      <feGaussianBlur stdDeviation="8.55612" />
      <feColorMatrix type="matrix" values="0 0 0 0 0 0 0 0 0 0 0 0 0 0 0 0 0 0 0.01 0" />
      <feBlend mode="normal" in2="effect3_dropShadow_1223_91308"
        result="effect4_dropShadow_1223_91308" />
      <feBlend mode="normal" in="SourceGraphic" in2="effect4_dropShadow_1223_91308" result="shape" />
    </filter>
  </defs>
</svg>