<svg width="215" height="142" viewBox="0 0 215 142" fill="none" xmlns="http://www.w3.org/2000/svg">
  <g filter="url(#filter0_dddd_1311_193284)">
    <g clip-path="url(#clip0_1311_193284)">
      <rect x="18" y="4" width="179.076" height="118.479" rx="4.52213" fill="var(--background)" />
      <rect x="24.3301" y="22.2625" width="10.0882" height="55.2832" rx="2.01764" fill="var(--N100)" />
      <rect width="34.7033" height="3.22822" transform="matrix(0 -1 1 0 27.5576 67.0542)"
        fill="var(--background)" />
      <rect x="35.6299" y="22.2622" width="10.0882" height="27.0363" rx="2.01764" fill="var(--N50)" />
      <rect width="18.5623" height="3.22822" transform="matrix(0 -1 1 0 38.8594 44.8599)"
        fill="var(--N100)" />
      <rect x="47.2012" y="22.2273" width="143.544" height="27.2491" rx="2.01764" fill="var(--N50)" />
      <rect x="126.079" y="27.802" width="28.2469" height="15.6075" rx="2.01764"
        fill="var(--background)" />
      <rect width="18.9658" height="3.22822" transform="translate(130.921 31.4338)"
        fill="var(--N200)" />
      <rect width="21.3869" height="3.22822" transform="translate(129.71 36.2761)"
        fill="var(--N200)" />
      <rect x="77.6914" y="27.802" width="28.0371" height="15.8274" rx="2.01764"
        fill="var(--background)" />
      <rect width="22.3707" height="3.1215" transform="translate(80.5156 33.8547)"
        fill="var(--N200)" />
      <circle cx="58.4727" cy="35.7156" r="3.61379" fill="var(--background)" stroke="var(--P100)"
        stroke-width="0.460022" />
      <path d="M76.561 35.4895H63.2207" stroke="var(--N300)" stroke-width="0.678319" />
      <circle cx="174.93" cy="35.7053" r="3.52683" fill="var(--background)" stroke="var(--P300)"
        stroke-width="0.613362" />
      <path d="M169.796 35.6892H155.472" stroke="var(--N300)" stroke-width="0.678319" />
      <rect x="35.6299" y="50.5093" width="10.0882" height="27.0363" rx="2.01764" fill="var(--N50)" />
      <rect width="18.5623" height="3.22822" transform="matrix(0 -1 1 0 38.8594 73.1067)"
        fill="var(--N100)" />
      <rect x="47.2002" y="50.4497" width="143.544" height="27.2491" rx="2.01764" fill="var(--N50)" />
      <rect x="77.2383" y="56.2915" width="28.2469" height="15.6075" rx="2.01764"
        fill="var(--background)" />
      <rect width="17.7552" height="3.22822" transform="translate(82.4844 62.3442)"
        fill="var(--N200)" />
      <path d="M133.539 63.9788H107.085" stroke="var(--N300)" stroke-width="0.678319" />
      <rect width="8.59856" height="8.59856" transform="translate(134.478 64.1802) rotate(-45)"
        fill="var(--background)" />
      <path d="M138.952 65.72L142.097 62.5753" stroke="var(--N400)" stroke-width="0.362851"
        stroke-linecap="round" />
      <path d="M138.952 62.5754L142.097 65.7201" stroke="var(--N400)" stroke-width="0.362851"
        stroke-linecap="round" />
      <path d="M91.7109 52.6127V41.0813" stroke="var(--N300)" stroke-width="0.678319" />
      <path d="M140.55 54.1954V41.0813" stroke="var(--N300)" stroke-width="0.678319" />
      <rect x="24.3301" y="80.2827" width="21.4802" height="27.3384" rx="2.01764" fill="var(--N50)" />
      <rect width="18.5623" height="3.22822" transform="matrix(0 -1 1 0 38.624 102.88)"
        fill="var(--N100)" />
      <rect x="47.2002" y="80.3721" width="143.544" height="27.2491" rx="2.01764" fill="var(--N50)" />
      <rect x="126.53" y="86.137" width="28.2469" height="15.7376" rx="2.01764"
        fill="var(--background)" />
      <rect width="12.6619" height="2.71327" transform="translate(134.157 92.3748)"
        fill="var(--N200)" />
      <circle cx="174.93" cy="94.0405" r="3.52683" fill="var(--background)" stroke="var(--P300)"
        stroke-width="0.613362" />
      <path d="M169.796 94.0242H155.472" stroke="var(--N300)" stroke-width="0.605292" />
      <path d="M140.55 82.4586V67.7617" stroke="var(--N300)" stroke-width="0.678319" />
      <rect width="180.139" height="7.68367" transform="translate(17.4297 4.07983)"
        fill="var(--N100)" />
      <circle cx="22.1988" cy="7.99546" r="0.92734" fill="var(--N400)" />
      <circle cx="25.1139" cy="7.99546" r="0.92734" fill="var(--N400)" />
      <circle cx="28.0279" cy="7.99546" r="0.92734" fill="var(--N400)" />
    </g>
  </g>
  <defs>
    <filter id="filter0_dddd_1311_193284" x="0.36371" y="0.3823" width="214.349" height="184.05"
      filterUnits="userSpaceOnUse" color-interpolation-filters="sRGB">
      <feFlood flood-opacity="0" result="BackgroundImageFix" />
      <feColorMatrix in="SourceAlpha" type="matrix"
        values="0 0 0 0 0 0 0 0 0 0 0 0 0 0 0 0 0 0 127 0" result="hardAlpha" />
      <feOffset dy="2.71328" />
      <feGaussianBlur stdDeviation="3.16549" />
      <feColorMatrix type="matrix" values="0 0 0 0 0 0 0 0 0 0 0 0 0 0 0 0 0 0 0.1 0" />
      <feBlend mode="normal" in2="BackgroundImageFix" result="effect1_dropShadow_1311_193284" />
      <feColorMatrix in="SourceAlpha" type="matrix"
        values="0 0 0 0 0 0 0 0 0 0 0 0 0 0 0 0 0 0 127 0" result="hardAlpha" />
      <feOffset dy="11.3053" />
      <feGaussianBlur stdDeviation="5.65266" />
      <feColorMatrix type="matrix" values="0 0 0 0 0 0 0 0 0 0 0 0 0 0 0 0 0 0 0.09 0" />
      <feBlend mode="normal" in2="effect1_dropShadow_1311_193284"
        result="effect2_dropShadow_1311_193284" />
      <feColorMatrix in="SourceAlpha" type="matrix"
        values="0 0 0 0 0 0 0 0 0 0 0 0 0 0 0 0 0 0 127 0" result="hardAlpha" />
      <feOffset dy="24.8717" />
      <feGaussianBlur stdDeviation="7.46151" />
      <feColorMatrix type="matrix" values="0 0 0 0 0 0 0 0 0 0 0 0 0 0 0 0 0 0 0.05 0" />
      <feBlend mode="normal" in2="effect2_dropShadow_1311_193284"
        result="effect3_dropShadow_1311_193284" />
      <feColorMatrix in="SourceAlpha" type="matrix"
        values="0 0 0 0 0 0 0 0 0 0 0 0 0 0 0 0 0 0 127 0" result="hardAlpha" />
      <feOffset dy="44.3168" />
      <feGaussianBlur stdDeviation="8.81814" />
      <feColorMatrix type="matrix" values="0 0 0 0 0 0 0 0 0 0 0 0 0 0 0 0 0 0 0.01 0" />
      <feBlend mode="normal" in2="effect3_dropShadow_1311_193284"
        result="effect4_dropShadow_1311_193284" />
      <feBlend mode="normal" in="SourceGraphic" in2="effect4_dropShadow_1311_193284" result="shape" />
    </filter>
    <clipPath id="clip0_1311_193284">
      <rect x="18" y="4" width="179.076" height="118.479" rx="4.52213" fill="var(--background)" />
    </clipPath>
  </defs>
</svg>
  