<svg width="215" height="139" viewBox="0 0 215 139" fill="none" xmlns="http://www.w3.org/2000/svg">
  <g filter="url(#filter0_dddd_1167_210164)">
    <rect x="17.9355" y="3.63599" width="179.515" height="113.114" rx="3.86054"
      fill="var(--background)" />
    <rect width="23.9354" height="3.08844" transform="translate(23.3403 10.9709)" fill="var(--N300)" />
    <g clip-path="url(#clip0_1167_210164)">
      <rect width="82.2296" height="10.8095" transform="translate(23.3408 20.2361)"
        fill="var(--N300)" />
      <rect width="23.9354" height="3.08844" transform="translate(27.2017 24.0967)"
        fill="var(--background)" />
      <g clip-path="url(#clip1_1167_210164)">
        <path
          d="M99.2057 28.012C99.3512 28.012 99.4909 27.9516 99.5938 27.8442C99.6967 27.7368 99.7546 27.5911 99.7546 27.4392C99.7546 27.2873 99.6967 27.1416 99.5938 27.0342C99.4909 26.9267 99.3512 26.8664 99.2057 26.8664C99.0601 26.8664 98.9205 26.9267 98.8175 27.0342C98.7146 27.1416 98.6567 27.2873 98.6567 27.4392C98.6567 27.5911 98.7146 27.7368 98.8175 27.8442C98.9205 27.9516 99.0601 28.012 99.2057 28.012Z"
          fill="var(--background)" />
        <path
          d="M99.2057 24.2478C99.2777 24.2478 99.3491 24.233 99.4157 24.2042C99.4823 24.1754 99.5428 24.1332 99.5938 24.08C99.6448 24.0268 99.6852 23.9637 99.7128 23.8942C99.7404 23.8247 99.7546 23.7502 99.7546 23.675C99.7546 23.5998 99.7404 23.5253 99.7128 23.4558C99.6852 23.3863 99.6448 23.3232 99.5938 23.27C99.5428 23.2168 99.4823 23.1746 99.4157 23.1458C99.3491 23.117 99.2777 23.1022 99.2057 23.1022C99.1336 23.1022 99.0622 23.117 98.9956 23.1458C98.929 23.1746 98.8685 23.2168 98.8175 23.27C98.7665 23.3232 98.7261 23.3863 98.6985 23.4558C98.6709 23.5253 98.6567 23.5998 98.6567 23.675C98.6567 23.7502 98.6709 23.8247 98.6985 23.8942C98.7261 23.9637 98.7665 24.0268 98.8175 24.08C98.8685 24.1332 98.929 24.1754 98.9956 24.2042C99.0622 24.233 99.1336 24.2478 99.2057 24.2478Z"
          fill="var(--background)" />
        <path
          d="M99.2057 26.1299C99.3512 26.1299 99.4909 26.0695 99.5938 25.9621C99.6967 25.8547 99.7546 25.709 99.7546 25.5571C99.7546 25.4052 99.6967 25.2595 99.5938 25.1521C99.4909 25.0447 99.3512 24.9843 99.2057 24.9843C99.0601 24.9843 98.9205 25.0447 98.8175 25.1521C98.7146 25.2595 98.6567 25.4052 98.6567 25.5571C98.6567 25.709 98.7146 25.8547 98.8175 25.9621C98.9205 26.0695 99.0601 26.1299 99.2057 26.1299Z"
          fill="var(--background)" />
      </g>
      <g clip-path="url(#clip2_1167_210164)">
        <rect x="26.043" y="33.748" width="76.8248" height="36.4821" rx="2.31633" fill="var(--P50)" />
        <line x1="26.0425" y1="43.2066" x2="102.867" y2="43.2066" stroke="var(--N300)"
          stroke-width="0.386054" />
        <rect width="23.9354" height="3.08844" transform="translate(29.1309 36.8367)"
          fill="var(--background)" />
        <rect width="23.9354" height="5.01871" transform="translate(39.5542 48.0322)"
          fill="var(--background)" />
        <rect width="16.6003" height="1.93027" transform="translate(41.0981 49.5764)"
          fill="var(--N200)" />
        <g clip-path="url(#clip3_1167_210164)">
          <path
            d="M98.0465 40.3574C98.1697 40.3574 98.2878 40.3064 98.3749 40.2155C98.462 40.1246 98.511 40.0013 98.511 39.8728C98.511 39.7442 98.462 39.6209 98.3749 39.53C98.2878 39.4392 98.1697 39.3881 98.0465 39.3881C97.9233 39.3881 97.8052 39.4392 97.7181 39.53C97.631 39.6209 97.582 39.7442 97.582 39.8728C97.582 40.0013 97.631 40.1246 97.7181 40.2155C97.8052 40.3064 97.9233 40.3574 98.0465 40.3574Z"
            fill="var(--background)" />
          <path
            d="M98.0465 37.1724C98.1075 37.1724 98.1679 37.1598 98.2242 37.1355C98.2806 37.1111 98.3318 37.0754 98.3749 37.0304C98.4181 36.9854 98.4523 36.932 98.4756 36.8732C98.499 36.8144 98.511 36.7513 98.511 36.6877C98.511 36.624 98.499 36.561 98.4756 36.5022C98.4523 36.4434 98.4181 36.39 98.3749 36.345C98.3318 36.3 98.2806 36.2643 98.2242 36.2399C98.1679 36.2156 98.1075 36.203 98.0465 36.203C97.9855 36.203 97.9251 36.2156 97.8688 36.2399C97.8124 36.2643 97.7612 36.3 97.7181 36.345C97.6749 36.39 97.6407 36.4434 97.6174 36.5022C97.594 36.561 97.582 36.624 97.582 36.6877C97.582 36.7513 97.594 36.8144 97.6174 36.8732C97.6407 36.932 97.6749 36.9854 97.7181 37.0304C97.7612 37.0754 97.8124 37.1111 97.8688 37.1355C97.9251 37.1598 97.9855 37.1724 98.0465 37.1724Z"
            fill="var(--background)" />
          <path
            d="M98.0465 38.7646C98.1697 38.7646 98.2878 38.7136 98.3749 38.6227C98.462 38.5318 98.511 38.4085 98.511 38.28C98.511 38.1514 98.462 38.0282 98.3749 37.9373C98.2878 37.8464 98.1697 37.7953 98.0465 37.7953C97.9233 37.7953 97.8052 37.8464 97.7181 37.9373C97.631 38.0282 97.582 38.1514 97.582 38.28C97.582 38.4085 97.631 38.5318 97.7181 38.6227C97.8052 38.7136 97.9233 38.7646 98.0465 38.7646Z"
            fill="var(--background)" />
        </g>
        <rect x="29.1309" y="46.488" width="7.33503" height="7.72109" rx="3.66752"
          fill="var(--background)" />
        <path d="M32.6987 52.6192L31.0344 50.2542L32.7907 47.9709L34.5427 50.2484L32.6987 52.6192Z"
          stroke="var(--N300)" stroke-width="0.386054" />
      </g>
      <g clip-path="url(#clip4_1167_210164)">
        <rect x="26.043" y="72.5466" width="76.8248" height="36.4821" rx="2.31633"
          fill="var(--N100)" />
        <line x1="26.0425" y1="82.005" x2="102.867" y2="82.005" stroke="var(--N300)"
          stroke-width="0.386054" />
        <rect width="23.9354" height="3.08844" transform="translate(29.1309 75.6353)"
          fill="var(--background)" />
        <g clip-path="url(#clip5_1167_210164)">
          <path
            d="M98.0465 79.1558C98.1697 79.1558 98.2878 79.1047 98.3749 79.0138C98.462 78.9229 98.511 78.7996 98.511 78.6711C98.511 78.5426 98.462 78.4193 98.3749 78.3284C98.2878 78.2375 98.1697 78.1864 98.0465 78.1864C97.9233 78.1864 97.8052 78.2375 97.7181 78.3284C97.631 78.4193 97.582 78.5426 97.582 78.6711C97.582 78.7996 97.631 78.9229 97.7181 79.0138C97.8052 79.1047 97.9233 79.1558 98.0465 79.1558Z"
            fill="var(--background)" />
          <path
            d="M98.0465 75.9709C98.1075 75.9709 98.1679 75.9584 98.2242 75.9341C98.2806 75.9097 98.3318 75.874 98.3749 75.829C98.4181 75.784 98.4523 75.7306 98.4756 75.6718C98.499 75.613 98.511 75.5499 98.511 75.4863C98.511 75.4226 98.499 75.3596 98.4756 75.3008C98.4523 75.242 98.4181 75.1886 98.3749 75.1436C98.3318 75.0986 98.2806 75.0629 98.2242 75.0385C98.1679 75.0142 98.1075 75.0016 98.0465 75.0016C97.9855 75.0016 97.9251 75.0142 97.8688 75.0385C97.8124 75.0629 97.7612 75.0986 97.7181 75.1436C97.6749 75.1886 97.6407 75.242 97.6174 75.3008C97.594 75.3596 97.582 75.4226 97.582 75.4863C97.582 75.5499 97.594 75.613 97.6174 75.6718C97.6407 75.7306 97.6749 75.784 97.7181 75.829C97.7612 75.874 97.8124 75.9097 97.8688 75.9341C97.9251 75.9584 97.9855 75.9709 98.0465 75.9709Z"
            fill="var(--background)" />
          <path
            d="M98.0465 77.5632C98.1697 77.5632 98.2878 77.5122 98.3749 77.4213C98.462 77.3304 98.511 77.2071 98.511 77.0786C98.511 76.95 98.462 76.8267 98.3749 76.7359C98.2878 76.645 98.1697 76.5939 98.0465 76.5939C97.9233 76.5939 97.8052 76.645 97.7181 76.7359C97.631 76.8267 97.582 76.95 97.582 77.0786C97.582 77.2071 97.631 77.3304 97.7181 77.4213C97.8052 77.5122 97.9233 77.5632 98.0465 77.5632Z"
            fill="var(--background)" />
        </g>
        <rect x="29.1309" y="85.2866" width="7.33503" height="7.72109" rx="3.66752"
          fill="var(--background)" />
        <path d="M32.6987 91.4176L31.0344 89.0525L32.7907 86.7693L34.5427 89.0468L32.6987 91.4176Z"
          stroke="var(--N300)" stroke-width="0.386054" />
      </g>
    </g>
    <rect x="23.5334" y="20.4291" width="81.8435" height="91.1088" rx="2.89541" stroke="var(--N100)"
      stroke-width="0.386054" />
    <g clip-path="url(#clip6_1167_210164)">
      <rect width="82.2296" height="10.8095" transform="translate(109.816 20.2361)"
        fill="var(--N300)" />
      <rect width="23.9354" height="3.08844" transform="translate(113.677 24.0967)"
        fill="var(--background)" />
      <g clip-path="url(#clip7_1167_210164)">
        <path
          d="M185.68 28.012C185.826 28.012 185.965 27.9516 186.068 27.8442C186.171 27.7368 186.229 27.5911 186.229 27.4392C186.229 27.2873 186.171 27.1416 186.068 27.0342C185.965 26.9267 185.826 26.8664 185.68 26.8664C185.535 26.8664 185.395 26.9267 185.292 27.0342C185.189 27.1416 185.131 27.2873 185.131 27.4392C185.131 27.5911 185.189 27.7368 185.292 27.8442C185.395 27.9516 185.535 28.012 185.68 28.012Z"
          fill="var(--background)" />
        <path
          d="M185.68 24.2478C185.752 24.2478 185.824 24.233 185.89 24.2042C185.957 24.1754 186.017 24.1332 186.068 24.08C186.119 24.0268 186.16 23.9637 186.187 23.8942C186.215 23.8247 186.229 23.7502 186.229 23.675C186.229 23.5998 186.215 23.5253 186.187 23.4558C186.16 23.3863 186.119 23.3232 186.068 23.27C186.017 23.2168 185.957 23.1746 185.89 23.1458C185.824 23.117 185.752 23.1022 185.68 23.1022C185.608 23.1022 185.537 23.117 185.47 23.1458C185.404 23.1746 185.343 23.2168 185.292 23.27C185.241 23.3232 185.201 23.3863 185.173 23.4558C185.146 23.5253 185.131 23.5998 185.131 23.675C185.131 23.7502 185.146 23.8247 185.173 23.8942C185.201 23.9637 185.241 24.0268 185.292 24.08C185.343 24.1332 185.404 24.1754 185.47 24.2042C185.537 24.233 185.608 24.2478 185.68 24.2478Z"
          fill="var(--background)" />
        <path
          d="M185.68 26.1299C185.826 26.1299 185.965 26.0695 186.068 25.9621C186.171 25.8547 186.229 25.709 186.229 25.5571C186.229 25.4052 186.171 25.2595 186.068 25.1521C185.965 25.0447 185.826 24.9843 185.68 24.9843C185.535 24.9843 185.395 25.0447 185.292 25.1521C185.189 25.2595 185.131 25.4052 185.131 25.5571C185.131 25.709 185.189 25.8547 185.292 25.9621C185.395 26.0695 185.535 26.1299 185.68 26.1299Z"
          fill="var(--background)" />
      </g>
      <g clip-path="url(#clip8_1167_210164)">
        <rect x="112.519" y="33.748" width="76.8248" height="23.5493" rx="2.31633"
          fill="var(--N100)" />
        <line x1="112.519" y1="43.2061" x2="189.343" y2="43.2061" stroke="var(--N300)"
          stroke-width="0.386054" />
        <rect width="23.9354" height="3.08844" transform="translate(115.607 36.8362)"
          fill="var(--background)" />
        <g clip-path="url(#clip9_1167_210164)">
          <path
            d="M184.522 40.3572C184.645 40.3572 184.763 40.3061 184.851 40.2152C184.938 40.1243 184.987 40.0011 184.987 39.8725C184.987 39.744 184.938 39.6207 184.851 39.5298C184.763 39.4389 184.645 39.3878 184.522 39.3878C184.399 39.3878 184.281 39.4389 184.194 39.5298C184.107 39.6207 184.058 39.744 184.058 39.8725C184.058 40.0011 184.107 40.1243 184.194 40.2152C184.281 40.3061 184.399 40.3572 184.522 40.3572Z"
            fill="var(--background)" />
          <path
            d="M184.522 37.1721C184.583 37.1721 184.643 37.1596 184.7 37.1352C184.756 37.1109 184.807 37.0752 184.851 37.0302C184.894 36.9852 184.928 36.9317 184.951 36.8729C184.975 36.8141 184.987 36.7511 184.987 36.6875C184.987 36.6238 184.975 36.5608 184.951 36.502C184.928 36.4432 184.894 36.3897 184.851 36.3447C184.807 36.2997 184.756 36.264 184.7 36.2397C184.643 36.2153 184.583 36.2028 184.522 36.2028C184.461 36.2028 184.401 36.2153 184.344 36.2397C184.288 36.264 184.237 36.2997 184.194 36.3447C184.151 36.3897 184.116 36.4432 184.093 36.502C184.07 36.5608 184.058 36.6238 184.058 36.6875C184.058 36.7511 184.07 36.8141 184.093 36.8729C184.116 36.9317 184.151 36.9852 184.194 37.0302C184.237 37.0752 184.288 37.1109 184.344 37.1352C184.401 37.1596 184.461 37.1721 184.522 37.1721Z"
            fill="var(--background)" />
          <path
            d="M184.522 38.7644C184.645 38.7644 184.763 38.7133 184.851 38.6224C184.938 38.5316 184.987 38.4083 184.987 38.2797C184.987 38.1512 184.938 38.0279 184.851 37.937C184.763 37.8461 184.645 37.7951 184.522 37.7951C184.399 37.7951 184.281 37.8461 184.194 37.937C184.107 38.0279 184.058 38.1512 184.058 38.2797C184.058 38.4083 184.107 38.5316 184.194 38.6224C184.281 38.7133 184.399 38.7644 184.522 38.7644Z"
            fill="var(--background)" />
        </g>
        <rect x="115.607" y="46.4875" width="7.33503" height="7.72109" rx="3.66752"
          fill="var(--background)" />
        <path d="M119.174 52.6183L117.51 50.2532L119.266 47.9699L121.018 50.2474L119.174 52.6183Z"
          stroke="var(--N300)" stroke-width="0.386054" />
      </g>
      <g clip-path="url(#clip10_1167_210164)">
        <rect x="112.519" y="59.6135" width="76.8248" height="23.5493" rx="2.31633"
          fill="var(--N100)" />
        <line x1="112.519" y1="69.0721" x2="189.343" y2="69.0721" stroke="var(--N300)"
          stroke-width="0.386054" />
        <rect width="23.9354" height="3.08844" transform="translate(115.607 62.7021)"
          fill="var(--background)" />
        <g clip-path="url(#clip11_1167_210164)">
          <path
            d="M184.522 66.2229C184.645 66.2229 184.763 66.1718 184.851 66.0809C184.938 65.9901 184.987 65.8668 184.987 65.7382C184.987 65.6097 184.938 65.4864 184.851 65.3955C184.763 65.3046 184.645 65.2536 184.522 65.2536C184.399 65.2536 184.281 65.3046 184.194 65.3955C184.107 65.4864 184.058 65.6097 184.058 65.7382C184.058 65.8668 184.107 65.9901 184.194 66.0809C184.281 66.1718 184.399 66.2229 184.522 66.2229Z"
            fill="var(--background)" />
          <path
            d="M184.522 63.0378C184.583 63.0378 184.643 63.0253 184.7 63.0009C184.756 62.9766 184.807 62.9409 184.851 62.8959C184.894 62.8509 184.928 62.7975 184.951 62.7386C184.975 62.6798 184.987 62.6168 184.987 62.5532C184.987 62.4895 184.975 62.4265 184.951 62.3677C184.928 62.3089 184.894 62.2555 184.851 62.2105C184.807 62.1655 184.756 62.1298 184.7 62.1054C184.643 62.081 184.583 62.0685 184.522 62.0685C184.461 62.0685 184.401 62.081 184.344 62.1054C184.288 62.1298 184.237 62.1655 184.194 62.2105C184.151 62.2555 184.116 62.3089 184.093 62.3677C184.07 62.4265 184.058 62.4895 184.058 62.5532C184.058 62.6168 184.07 62.6798 184.093 62.7386C184.116 62.7975 184.151 62.8509 184.194 62.8959C184.237 62.9409 184.288 62.9766 184.344 63.0009C184.401 63.0253 184.461 63.0378 184.522 63.0378Z"
            fill="var(--background)" />
          <path
            d="M184.522 64.6301C184.645 64.6301 184.763 64.5791 184.851 64.4882C184.938 64.3973 184.987 64.274 184.987 64.1455C184.987 64.0169 184.938 63.8936 184.851 63.8028C184.763 63.7119 184.645 63.6608 184.522 63.6608C184.399 63.6608 184.281 63.7119 184.194 63.8028C184.107 63.8936 184.058 64.0169 184.058 64.1455C184.058 64.274 184.107 64.3973 184.194 64.4882C184.281 64.5791 184.399 64.6301 184.522 64.6301Z"
            fill="var(--background)" />
        </g>
        <rect x="115.607" y="72.3535" width="7.33503" height="7.72109" rx="3.66752"
          fill="var(--background)" />
        <path d="M119.174 78.4847L117.51 76.1196L119.266 73.8364L121.018 76.1139L119.174 78.4847Z"
          stroke="var(--N300)" stroke-width="0.386054" />
      </g>
    </g>
    <rect x="110.009" y="20.4291" width="81.8435" height="91.1088" rx="2.89541" stroke="var(--N100)"
      stroke-width="0.386054" />
  </g>
  <defs>
    <filter id="filter0_dddd_1167_210164" x="0.949154" y="0.547551" width="213.488" height="175.655"
      filterUnits="userSpaceOnUse" color-interpolation-filters="sRGB">
      <feFlood flood-opacity="0" result="BackgroundImageFix" />
      <feColorMatrix in="SourceAlpha" type="matrix"
        values="0 0 0 0 0 0 0 0 0 0 0 0 0 0 0 0 0 0 127 0" result="hardAlpha" />
      <feOffset dy="2.70238" />
      <feGaussianBlur stdDeviation="2.89541" />
      <feColorMatrix type="matrix" values="0 0 0 0 0 0 0 0 0 0 0 0 0 0 0 0 0 0 0.1 0" />
      <feBlend mode="normal" in2="BackgroundImageFix" result="effect1_dropShadow_1167_210164" />
      <feColorMatrix in="SourceAlpha" type="matrix"
        values="0 0 0 0 0 0 0 0 0 0 0 0 0 0 0 0 0 0 127 0" result="hardAlpha" />
      <feOffset dy="10.8095" />
      <feGaussianBlur stdDeviation="5.40476" />
      <feColorMatrix type="matrix" values="0 0 0 0 0 0 0 0 0 0 0 0 0 0 0 0 0 0 0.09 0" />
      <feBlend mode="normal" in2="effect1_dropShadow_1167_210164"
        result="effect2_dropShadow_1167_210164" />
      <feColorMatrix in="SourceAlpha" type="matrix"
        values="0 0 0 0 0 0 0 0 0 0 0 0 0 0 0 0 0 0 127 0" result="hardAlpha" />
      <feOffset dy="23.9354" />
      <feGaussianBlur stdDeviation="7.14201" />
      <feColorMatrix type="matrix" values="0 0 0 0 0 0 0 0 0 0 0 0 0 0 0 0 0 0 0.05 0" />
      <feBlend mode="normal" in2="effect2_dropShadow_1167_210164"
        result="effect3_dropShadow_1167_210164" />
      <feColorMatrix in="SourceAlpha" type="matrix"
        values="0 0 0 0 0 0 0 0 0 0 0 0 0 0 0 0 0 0 127 0" result="hardAlpha" />
      <feOffset dy="42.466" />
      <feGaussianBlur stdDeviation="8.4932" />
      <feColorMatrix type="matrix" values="0 0 0 0 0 0 0 0 0 0 0 0 0 0 0 0 0 0 0.01 0" />
      <feBlend mode="normal" in2="effect3_dropShadow_1167_210164"
        result="effect4_dropShadow_1167_210164" />
      <feBlend mode="normal" in="SourceGraphic" in2="effect4_dropShadow_1167_210164" result="shape" />
    </filter>
    <clipPath id="clip0_1167_210164">
      <rect x="23.3403" y="20.2361" width="82.2296" height="91.4949" rx="3.08844"
        fill="var(--background)" />
    </clipPath>
    <clipPath id="clip1_1167_210164">
      <rect width="5.23691" height="5.01871" fill="var(--background)"
        transform="matrix(0 -1 1 0 96.6914 28.1755)" />
    </clipPath>
    <clipPath id="clip2_1167_210164">
      <rect x="26.043" y="33.748" width="76.8248" height="36.4821" rx="2.31633"
        fill="var(--background)" />
    </clipPath>
    <clipPath id="clip3_1167_210164">
      <rect width="4.43123" height="4.2466" fill="var(--background)"
        transform="matrix(0 -1 1 0 95.9185 40.4956)" />
    </clipPath>
    <clipPath id="clip4_1167_210164">
      <rect x="26.043" y="72.5466" width="76.8248" height="36.4821" rx="2.31633"
        fill="var(--background)" />
    </clipPath>
    <clipPath id="clip5_1167_210164">
      <rect width="4.43123" height="4.2466" fill="var(--background)"
        transform="matrix(0 -1 1 0 95.9185 79.2942)" />
    </clipPath>
    <clipPath id="clip6_1167_210164">
      <rect x="109.816" y="20.2361" width="82.2296" height="91.4949" rx="3.08844"
        fill="var(--background)" />
    </clipPath>
    <clipPath id="clip7_1167_210164">
      <rect width="5.23691" height="5.01871" fill="var(--background)"
        transform="matrix(0 -1 1 0 183.167 28.1755)" />
    </clipPath>
    <clipPath id="clip8_1167_210164">
      <rect x="112.519" y="33.748" width="76.8248" height="23.5493" rx="2.31633"
        fill="var(--background)" />
    </clipPath>
    <clipPath id="clip9_1167_210164">
      <rect width="4.43123" height="4.2466" fill="var(--background)"
        transform="matrix(0 -1 1 0 182.395 40.4954)" />
    </clipPath>
    <clipPath id="clip10_1167_210164">
      <rect x="112.519" y="59.6135" width="76.8248" height="23.5493" rx="2.31633"
        fill="var(--background)" />
    </clipPath>
    <clipPath id="clip11_1167_210164">
      <rect width="4.43123" height="4.2466" fill="var(--background)"
        transform="matrix(0 -1 1 0 182.395 66.3611)" />
    </clipPath>
  </defs>
</svg>