<svg width="215" height="139" viewBox="0 0 215 139" fill="none" xmlns="http://www.w3.org/2000/svg">
  <g filter="url(#filter0_dddd_1311_192651)">
    <g clip-path="url(#clip0_1311_192651)">
      <rect x="17.9355" y="3.63599" width="179.515" height="113.114" rx="3.86054"
        fill="var(--background)" />
      <g clip-path="url(#clip1_1311_192651)">
        <rect width="82.2296" height="10.8095" transform="translate(22.3408 20.2361)"
          fill="var(--N300)" />
        <rect width="23.9354" height="3.08844" transform="translate(26.2017 24.0967)"
          fill="var(--background)" />
        <g clip-path="url(#clip2_1311_192651)">
          <path
            d="M98.2057 28.012C98.3512 28.012 98.4909 27.9516 98.5938 27.8442C98.6967 27.7368 98.7546 27.5911 98.7546 27.4392C98.7546 27.2873 98.6967 27.1416 98.5938 27.0342C98.4909 26.9267 98.3512 26.8664 98.2057 26.8664C98.0601 26.8664 97.9205 26.9267 97.8175 27.0342C97.7146 27.1416 97.6567 27.2873 97.6567 27.4392C97.6567 27.5911 97.7146 27.7368 97.8175 27.8442C97.9205 27.9516 98.0601 28.012 98.2057 28.012Z"
            fill="var(--background)" />
          <path
            d="M98.2057 24.2478C98.2777 24.2478 98.3491 24.233 98.4157 24.2042C98.4823 24.1754 98.5428 24.1332 98.5938 24.08C98.6448 24.0268 98.6852 23.9637 98.7128 23.8942C98.7404 23.8247 98.7546 23.7502 98.7546 23.675C98.7546 23.5998 98.7404 23.5253 98.7128 23.4558C98.6852 23.3863 98.6448 23.3232 98.5938 23.27C98.5428 23.2168 98.4823 23.1746 98.4157 23.1458C98.3491 23.117 98.2777 23.1022 98.2057 23.1022C98.1336 23.1022 98.0622 23.117 97.9956 23.1458C97.929 23.1746 97.8685 23.2168 97.8175 23.27C97.7665 23.3232 97.7261 23.3863 97.6985 23.4558C97.6709 23.5253 97.6567 23.5998 97.6567 23.675C97.6567 23.7502 97.6709 23.8247 97.6985 23.8942C97.7261 23.9637 97.7665 24.0268 97.8175 24.08C97.8685 24.1332 97.929 24.1754 97.9956 24.2042C98.0622 24.233 98.1336 24.2478 98.2057 24.2478Z"
            fill="var(--background)" />
          <path
            d="M98.2057 26.1299C98.3512 26.1299 98.4909 26.0695 98.5938 25.9621C98.6967 25.8547 98.7546 25.709 98.7546 25.5571C98.7546 25.4052 98.6967 25.2595 98.5938 25.1521C98.4909 25.0447 98.3512 24.9843 98.2057 24.9843C98.0601 24.9843 97.9205 25.0447 97.8175 25.1521C97.7146 25.2595 97.6567 25.4052 97.6567 25.5571C97.6567 25.709 97.7146 25.8547 97.8175 25.9621C97.9205 26.0695 98.0601 26.1299 98.2057 26.1299Z"
            fill="var(--background)" />
        </g>
        <g clip-path="url(#clip3_1311_192651)">
          <rect x="25.043" y="33.748" width="76.8248" height="36.4821" rx="2.31633"
            fill="var(--P50)" />
          <line x1="25.0425" y1="43.2066" x2="101.867" y2="43.2066" stroke="var(--N300)"
            stroke-width="0.386054" />
          <rect width="23.9354" height="3.08844" transform="translate(28.1309 36.8367)"
            fill="var(--background)" />
          <rect width="23.9354" height="5.01871" transform="translate(38.5542 48.0322)"
            fill="var(--background)" />
          <rect width="16.6003" height="1.93027" transform="translate(40.0981 49.5764)"
            fill="var(--N200)" />
          <g clip-path="url(#clip4_1311_192651)">
            <path
              d="M97.0465 40.3574C97.1697 40.3574 97.2878 40.3064 97.3749 40.2155C97.462 40.1246 97.511 40.0013 97.511 39.8728C97.511 39.7442 97.462 39.6209 97.3749 39.53C97.2878 39.4392 97.1697 39.3881 97.0465 39.3881C96.9233 39.3881 96.8052 39.4392 96.7181 39.53C96.631 39.6209 96.582 39.7442 96.582 39.8728C96.582 40.0013 96.631 40.1246 96.7181 40.2155C96.8052 40.3064 96.9233 40.3574 97.0465 40.3574Z"
              fill="var(--background)" />
            <path
              d="M97.0465 37.1724C97.1075 37.1724 97.1679 37.1598 97.2242 37.1355C97.2806 37.1111 97.3318 37.0754 97.3749 37.0304C97.4181 36.9854 97.4523 36.932 97.4756 36.8732C97.499 36.8144 97.511 36.7513 97.511 36.6877C97.511 36.624 97.499 36.561 97.4756 36.5022C97.4523 36.4434 97.4181 36.39 97.3749 36.345C97.3318 36.3 97.2806 36.2643 97.2242 36.2399C97.1679 36.2156 97.1075 36.203 97.0465 36.203C96.9855 36.203 96.9251 36.2156 96.8688 36.2399C96.8124 36.2643 96.7612 36.3 96.7181 36.345C96.6749 36.39 96.6407 36.4434 96.6174 36.5022C96.594 36.561 96.582 36.624 96.582 36.6877C96.582 36.7513 96.594 36.8144 96.6174 36.8732C96.6407 36.932 96.6749 36.9854 96.7181 37.0304C96.7612 37.0754 96.8124 37.1111 96.8688 37.1355C96.9251 37.1598 96.9855 37.1724 97.0465 37.1724Z"
              fill="var(--background)" />
            <path
              d="M97.0465 38.7646C97.1697 38.7646 97.2878 38.7136 97.3749 38.6227C97.462 38.5318 97.511 38.4085 97.511 38.28C97.511 38.1514 97.462 38.0282 97.3749 37.9373C97.2878 37.8464 97.1697 37.7953 97.0465 37.7953C96.9233 37.7953 96.8052 37.8464 96.7181 37.9373C96.631 38.0282 96.582 38.1514 96.582 38.28C96.582 38.4085 96.631 38.5318 96.7181 38.6227C96.8052 38.7136 96.9233 38.7646 97.0465 38.7646Z"
              fill="var(--background)" />
          </g>
          <rect x="28.1309" y="46.488" width="7.33503" height="7.72109" rx="3.66752"
            fill="var(--background)" />
          <path
            d="M31.6987 52.6192L30.0344 50.2542L31.7907 47.9709L33.5427 50.2484L31.6987 52.6192Z"
            stroke="var(--N300)" stroke-width="0.386054" />
        </g>
        <g clip-path="url(#clip5_1311_192651)">
          <rect x="25.043" y="72.5466" width="76.8248" height="36.4821" rx="2.31633"
            fill="var(--N100)" />
          <line x1="25.0425" y1="82.005" x2="101.867" y2="82.005" stroke="var(--N300)"
            stroke-width="0.386054" />
          <rect width="23.9354" height="3.08844" transform="translate(28.1309 75.6353)"
            fill="var(--background)" />
          <g clip-path="url(#clip6_1311_192651)">
            <path
              d="M97.0465 79.1558C97.1697 79.1558 97.2878 79.1047 97.3749 79.0138C97.462 78.9229 97.511 78.7996 97.511 78.6711C97.511 78.5426 97.462 78.4193 97.3749 78.3284C97.2878 78.2375 97.1697 78.1864 97.0465 78.1864C96.9233 78.1864 96.8052 78.2375 96.7181 78.3284C96.631 78.4193 96.582 78.5426 96.582 78.6711C96.582 78.7996 96.631 78.9229 96.7181 79.0138C96.8052 79.1047 96.9233 79.1558 97.0465 79.1558Z"
              fill="var(--background)" />
            <path
              d="M97.0465 75.9709C97.1075 75.9709 97.1679 75.9584 97.2242 75.9341C97.2806 75.9097 97.3318 75.874 97.3749 75.829C97.4181 75.784 97.4523 75.7306 97.4756 75.6718C97.499 75.613 97.511 75.5499 97.511 75.4863C97.511 75.4226 97.499 75.3596 97.4756 75.3008C97.4523 75.242 97.4181 75.1886 97.3749 75.1436C97.3318 75.0986 97.2806 75.0629 97.2242 75.0385C97.1679 75.0142 97.1075 75.0016 97.0465 75.0016C96.9855 75.0016 96.9251 75.0142 96.8688 75.0385C96.8124 75.0629 96.7612 75.0986 96.7181 75.1436C96.6749 75.1886 96.6407 75.242 96.6174 75.3008C96.594 75.3596 96.582 75.4226 96.582 75.4863C96.582 75.5499 96.594 75.613 96.6174 75.6718C96.6407 75.7306 96.6749 75.784 96.7181 75.829C96.7612 75.874 96.8124 75.9097 96.8688 75.9341C96.9251 75.9584 96.9855 75.9709 97.0465 75.9709Z"
              fill="var(--background)" />
            <path
              d="M97.0465 77.5632C97.1697 77.5632 97.2878 77.5122 97.3749 77.4213C97.462 77.3304 97.511 77.2071 97.511 77.0786C97.511 76.95 97.462 76.8267 97.3749 76.7359C97.2878 76.645 97.1697 76.5939 97.0465 76.5939C96.9233 76.5939 96.8052 76.645 96.7181 76.7359C96.631 76.8267 96.582 76.95 96.582 77.0786C96.582 77.2071 96.631 77.3304 96.7181 77.4213C96.8052 77.5122 96.9233 77.5632 97.0465 77.5632Z"
              fill="var(--background)" />
          </g>
          <rect x="28.1309" y="85.2866" width="7.33503" height="7.72109" rx="3.66752"
            fill="var(--background)" />
          <path
            d="M31.6987 91.4176L30.0344 89.0525L31.7907 86.7693L33.5427 89.0468L31.6987 91.4176Z"
            stroke="var(--N300)" stroke-width="0.386054" />
        </g>
      </g>
      <rect x="22.5334" y="20.4291" width="81.8435" height="91.1088" rx="2.89541"
        stroke="var(--N100)"
        stroke-width="0.386054" />
      <g clip-path="url(#clip7_1311_192651)">
        <rect width="82.2296" height="10.8095" transform="translate(108.816 20.2361)"
          fill="var(--N300)" />
        <rect width="23.9354" height="3.08844" transform="translate(112.677 24.0967)"
          fill="var(--background)" />
        <g clip-path="url(#clip8_1311_192651)">
          <path
            d="M184.68 28.012C184.826 28.012 184.965 27.9516 185.068 27.8442C185.171 27.7368 185.229 27.5911 185.229 27.4392C185.229 27.2873 185.171 27.1416 185.068 27.0342C184.965 26.9267 184.826 26.8664 184.68 26.8664C184.535 26.8664 184.395 26.9267 184.292 27.0342C184.189 27.1416 184.131 27.2873 184.131 27.4392C184.131 27.5911 184.189 27.7368 184.292 27.8442C184.395 27.9516 184.535 28.012 184.68 28.012Z"
            fill="var(--background)" />
          <path
            d="M184.68 24.2478C184.752 24.2478 184.824 24.233 184.89 24.2042C184.957 24.1754 185.017 24.1332 185.068 24.08C185.119 24.0268 185.16 23.9637 185.187 23.8942C185.215 23.8247 185.229 23.7502 185.229 23.675C185.229 23.5998 185.215 23.5253 185.187 23.4558C185.16 23.3863 185.119 23.3232 185.068 23.27C185.017 23.2168 184.957 23.1746 184.89 23.1458C184.824 23.117 184.752 23.1022 184.68 23.1022C184.608 23.1022 184.537 23.117 184.47 23.1458C184.404 23.1746 184.343 23.2168 184.292 23.27C184.241 23.3232 184.201 23.3863 184.173 23.4558C184.146 23.5253 184.131 23.5998 184.131 23.675C184.131 23.7502 184.146 23.8247 184.173 23.8942C184.201 23.9637 184.241 24.0268 184.292 24.08C184.343 24.1332 184.404 24.1754 184.47 24.2042C184.537 24.233 184.608 24.2478 184.68 24.2478Z"
            fill="var(--background)" />
          <path
            d="M184.68 26.1299C184.826 26.1299 184.965 26.0695 185.068 25.9621C185.171 25.8547 185.229 25.709 185.229 25.5571C185.229 25.4052 185.171 25.2595 185.068 25.1521C184.965 25.0447 184.826 24.9843 184.68 24.9843C184.535 24.9843 184.395 25.0447 184.292 25.1521C184.189 25.2595 184.131 25.4052 184.131 25.5571C184.131 25.709 184.189 25.8547 184.292 25.9621C184.395 26.0695 184.535 26.1299 184.68 26.1299Z"
            fill="var(--background)" />
        </g>
        <g clip-path="url(#clip9_1311_192651)">
          <rect x="111.519" y="33.748" width="76.8248" height="23.5493" rx="2.31633"
            fill="var(--N100)" />
          <line x1="111.519" y1="43.2061" x2="188.343" y2="43.2061" stroke="var(--N300)"
            stroke-width="0.386054" />
          <rect width="23.9354" height="3.08844" transform="translate(114.607 36.8362)"
            fill="var(--background)" />
          <g clip-path="url(#clip10_1311_192651)">
            <path
              d="M183.522 40.3572C183.645 40.3572 183.763 40.3061 183.851 40.2152C183.938 40.1243 183.987 40.0011 183.987 39.8725C183.987 39.744 183.938 39.6207 183.851 39.5298C183.763 39.4389 183.645 39.3878 183.522 39.3878C183.399 39.3878 183.281 39.4389 183.194 39.5298C183.107 39.6207 183.058 39.744 183.058 39.8725C183.058 40.0011 183.107 40.1243 183.194 40.2152C183.281 40.3061 183.399 40.3572 183.522 40.3572Z"
              fill="var(--background)" />
            <path
              d="M183.522 37.1721C183.583 37.1721 183.643 37.1596 183.7 37.1352C183.756 37.1109 183.807 37.0752 183.851 37.0302C183.894 36.9852 183.928 36.9317 183.951 36.8729C183.975 36.8141 183.987 36.7511 183.987 36.6875C183.987 36.6238 183.975 36.5608 183.951 36.502C183.928 36.4432 183.894 36.3897 183.851 36.3447C183.807 36.2997 183.756 36.264 183.7 36.2397C183.643 36.2153 183.583 36.2028 183.522 36.2028C183.461 36.2028 183.401 36.2153 183.344 36.2397C183.288 36.264 183.237 36.2997 183.194 36.3447C183.151 36.3897 183.116 36.4432 183.093 36.502C183.07 36.5608 183.058 36.6238 183.058 36.6875C183.058 36.7511 183.07 36.8141 183.093 36.8729C183.116 36.9317 183.151 36.9852 183.194 37.0302C183.237 37.0752 183.288 37.1109 183.344 37.1352C183.401 37.1596 183.461 37.1721 183.522 37.1721Z"
              fill="var(--background)" />
            <path
              d="M183.522 38.7644C183.645 38.7644 183.763 38.7133 183.851 38.6224C183.938 38.5316 183.987 38.4083 183.987 38.2797C183.987 38.1512 183.938 38.0279 183.851 37.937C183.763 37.8461 183.645 37.7951 183.522 37.7951C183.399 37.7951 183.281 37.8461 183.194 37.937C183.107 38.0279 183.058 38.1512 183.058 38.2797C183.058 38.4083 183.107 38.5316 183.194 38.6224C183.281 38.7133 183.399 38.7644 183.522 38.7644Z"
              fill="var(--background)" />
          </g>
          <rect x="114.607" y="46.4875" width="7.33503" height="7.72109" rx="3.66752"
            fill="var(--background)" />
          <path d="M118.174 52.6183L116.51 50.2532L118.266 47.9699L120.018 50.2474L118.174 52.6183Z"
            stroke="var(--N300)" stroke-width="0.386054" />
        </g>
        <g clip-path="url(#clip11_1311_192651)">
          <rect x="111.519" y="59.6135" width="76.8248" height="23.5493" rx="2.31633"
            fill="var(--N100)" />
          <line x1="111.519" y1="69.0721" x2="188.343" y2="69.0721" stroke="var(--N300)"
            stroke-width="0.386054" />
          <rect width="23.9354" height="3.08844" transform="translate(114.607 62.7021)"
            fill="var(--background)" />
          <g clip-path="url(#clip12_1311_192651)">
            <path
              d="M183.522 66.2229C183.645 66.2229 183.763 66.1718 183.851 66.0809C183.938 65.9901 183.987 65.8668 183.987 65.7382C183.987 65.6097 183.938 65.4864 183.851 65.3955C183.763 65.3046 183.645 65.2536 183.522 65.2536C183.399 65.2536 183.281 65.3046 183.194 65.3955C183.107 65.4864 183.058 65.6097 183.058 65.7382C183.058 65.8668 183.107 65.9901 183.194 66.0809C183.281 66.1718 183.399 66.2229 183.522 66.2229Z"
              fill="var(--background)" />
            <path
              d="M183.522 63.0378C183.583 63.0378 183.643 63.0253 183.7 63.0009C183.756 62.9766 183.807 62.9409 183.851 62.8959C183.894 62.8509 183.928 62.7975 183.951 62.7386C183.975 62.6798 183.987 62.6168 183.987 62.5532C183.987 62.4895 183.975 62.4265 183.951 62.3677C183.928 62.3089 183.894 62.2555 183.851 62.2105C183.807 62.1655 183.756 62.1298 183.7 62.1054C183.643 62.081 183.583 62.0685 183.522 62.0685C183.461 62.0685 183.401 62.081 183.344 62.1054C183.288 62.1298 183.237 62.1655 183.194 62.2105C183.151 62.2555 183.116 62.3089 183.093 62.3677C183.07 62.4265 183.058 62.4895 183.058 62.5532C183.058 62.6168 183.07 62.6798 183.093 62.7386C183.116 62.7975 183.151 62.8509 183.194 62.8959C183.237 62.9409 183.288 62.9766 183.344 63.0009C183.401 63.0253 183.461 63.0378 183.522 63.0378Z"
              fill="var(--background)" />
            <path
              d="M183.522 64.6301C183.645 64.6301 183.763 64.5791 183.851 64.4882C183.938 64.3973 183.987 64.274 183.987 64.1455C183.987 64.0169 183.938 63.8936 183.851 63.8028C183.763 63.7119 183.645 63.6608 183.522 63.6608C183.399 63.6608 183.281 63.7119 183.194 63.8028C183.107 63.8936 183.058 64.0169 183.058 64.1455C183.058 64.274 183.107 64.3973 183.194 64.4882C183.281 64.5791 183.399 64.6301 183.522 64.6301Z"
              fill="var(--background)" />
          </g>
          <rect x="114.607" y="72.3535" width="7.33503" height="7.72109" rx="3.66752"
            fill="var(--background)" />
          <path d="M118.174 78.4847L116.51 76.1196L118.266 73.8364L120.018 76.1139L118.174 78.4847Z"
            stroke="var(--N300)" stroke-width="0.386054" />
        </g>
      </g>
      <rect x="109.009" y="20.4291" width="81.8435" height="91.1088" rx="2.89541"
        stroke="var(--N100)"
        stroke-width="0.386054" />
      <rect width="181" height="8" transform="translate(18 3)" fill="var(--N100)" />
      <circle cx="22.7691" cy="6.91538" r="0.92734" fill="var(--N400)" />
      <circle cx="25.6837" cy="6.91538" r="0.92734" fill="var(--N400)" />
      <circle cx="28.5982" cy="6.91538" r="0.92734" fill="var(--N400)" />
    </g>
  </g>
  <defs>
    <filter id="filter0_dddd_1311_192651" x="0.949154" y="0.547551" width="213.488" height="175.655"
      filterUnits="userSpaceOnUse" color-interpolation-filters="sRGB">
      <feFlood flood-opacity="0" result="BackgroundImageFix" />
      <feColorMatrix in="SourceAlpha" type="matrix"
        values="0 0 0 0 0 0 0 0 0 0 0 0 0 0 0 0 0 0 127 0" result="hardAlpha" />
      <feOffset dy="2.70238" />
      <feGaussianBlur stdDeviation="2.89541" />
      <feColorMatrix type="matrix" values="0 0 0 0 0 0 0 0 0 0 0 0 0 0 0 0 0 0 0.1 0" />
      <feBlend mode="normal" in2="BackgroundImageFix" result="effect1_dropShadow_1311_192651" />
      <feColorMatrix in="SourceAlpha" type="matrix"
        values="0 0 0 0 0 0 0 0 0 0 0 0 0 0 0 0 0 0 127 0" result="hardAlpha" />
      <feOffset dy="10.8095" />
      <feGaussianBlur stdDeviation="5.40476" />
      <feColorMatrix type="matrix" values="0 0 0 0 0 0 0 0 0 0 0 0 0 0 0 0 0 0 0.09 0" />
      <feBlend mode="normal" in2="effect1_dropShadow_1311_192651"
        result="effect2_dropShadow_1311_192651" />
      <feColorMatrix in="SourceAlpha" type="matrix"
        values="0 0 0 0 0 0 0 0 0 0 0 0 0 0 0 0 0 0 127 0" result="hardAlpha" />
      <feOffset dy="23.9354" />
      <feGaussianBlur stdDeviation="7.14201" />
      <feColorMatrix type="matrix" values="0 0 0 0 0 0 0 0 0 0 0 0 0 0 0 0 0 0 0.05 0" />
      <feBlend mode="normal" in2="effect2_dropShadow_1311_192651"
        result="effect3_dropShadow_1311_192651" />
      <feColorMatrix in="SourceAlpha" type="matrix"
        values="0 0 0 0 0 0 0 0 0 0 0 0 0 0 0 0 0 0 127 0" result="hardAlpha" />
      <feOffset dy="42.466" />
      <feGaussianBlur stdDeviation="8.4932" />
      <feColorMatrix type="matrix" values="0 0 0 0 0 0 0 0 0 0 0 0 0 0 0 0 0 0 0.01 0" />
      <feBlend mode="normal" in2="effect3_dropShadow_1311_192651"
        result="effect4_dropShadow_1311_192651" />
      <feBlend mode="normal" in="SourceGraphic" in2="effect4_dropShadow_1311_192651" result="shape" />
    </filter>
    <clipPath id="clip0_1311_192651">
      <rect x="17.9355" y="3.63599" width="179.515" height="113.114" rx="3.86054"
        fill="var(--background)" />
    </clipPath>
    <clipPath id="clip1_1311_192651">
      <rect x="22.3403" y="20.2361" width="82.2296" height="91.4949" rx="3.08844"
        fill="var(--background)" />
    </clipPath>
    <clipPath id="clip2_1311_192651">
      <rect width="5.23691" height="5.01871" fill="var(--background)"
        transform="matrix(0 -1 1 0 95.6914 28.1755)" />
    </clipPath>
    <clipPath id="clip3_1311_192651">
      <rect x="25.043" y="33.748" width="76.8248" height="36.4821" rx="2.31633"
        fill="var(--background)" />
    </clipPath>
    <clipPath id="clip4_1311_192651">
      <rect width="4.43123" height="4.2466" fill="var(--background)"
        transform="matrix(0 -1 1 0 94.9185 40.4956)" />
    </clipPath>
    <clipPath id="clip5_1311_192651">
      <rect x="25.043" y="72.5466" width="76.8248" height="36.4821" rx="2.31633"
        fill="var(--background)" />
    </clipPath>
    <clipPath id="clip6_1311_192651">
      <rect width="4.43123" height="4.2466" fill="var(--background)"
        transform="matrix(0 -1 1 0 94.9185 79.2942)" />
    </clipPath>
    <clipPath id="clip7_1311_192651">
      <rect x="108.816" y="20.2361" width="82.2296" height="91.4949" rx="3.08844"
        fill="var(--background)" />
    </clipPath>
    <clipPath id="clip8_1311_192651">
      <rect width="5.23691" height="5.01871" fill="var(--background)"
        transform="matrix(0 -1 1 0 182.167 28.1755)" />
    </clipPath>
    <clipPath id="clip9_1311_192651">
      <rect x="111.519" y="33.748" width="76.8248" height="23.5493" rx="2.31633"
        fill="var(--background)" />
    </clipPath>
    <clipPath id="clip10_1311_192651">
      <rect width="4.43123" height="4.2466" fill="var(--background)"
        transform="matrix(0 -1 1 0 181.395 40.4954)" />
    </clipPath>
    <clipPath id="clip11_1311_192651">
      <rect x="111.519" y="59.6135" width="76.8248" height="23.5493" rx="2.31633"
        fill="var(--background)" />
    </clipPath>
    <clipPath id="clip12_1311_192651">
      <rect width="4.43123" height="4.2466" fill="var(--background)"
        transform="matrix(0 -1 1 0 181.395 66.3611)" />
    </clipPath>
  </defs>
</svg>
  