<svg xmlns="http://www.w3.org/2000/svg" width="1452" height="154" fill="none" viewBox="0 0 1452 154"><g clip-path="url(#clip0_2058_147010)"><rect width="1452" height="154" fill="url(#paint0_linear_2058_147010)"/><path fill="url(#paint1_linear_2058_147010)" d="M1000.23 157.32H1380.35C1374.41 155.351 1400.92 114.046 1400.15 114.046H1380.35L1363.74 104.3L1339.86 91.5749L1323.19 85.8689L1306.93 82.3342L1299.71 72.1846L1289.51 70.4172L1280.51 74.8314L1267.6 78.0421C1267.6 78.0421 1254.94 75.7698 1249.02 73.9519L1238.37 70.4172L1229.63 61.5805L1223.16 58.8537L1213.57 63.5498L1206.5 68.2459L1194.99 61.5805L1189.89 56.6824L1185.34 54L1180.09 56.6824L1174.79 61.5805L1167.83 62.522L1157.37 58.2982L1143.21 60.1547L1136.06 73.9519H1118.84L1107.68 76.6787L1101.21 80.2134L1087.88 91.5749L1061.3 100.397L1037.16 118.862L1008.75 116.494L990.286 127.383L975.609 130.224L950.044 126.437L1000.23 157.32Z"/><path fill="url(#paint2_linear_2058_147010)" fill-opacity=".2" d="M1182 124.5L1236.5 67.5L1233 64L1229 61L1224 60.5L1155 120L1182 124.5Z"/><path fill="url(#paint3_linear_2058_147010)" fill-opacity=".2" d="M1253 139L1307.5 82L1304 78.5L1300 75.5L1295 75L1226 134.5L1253 139Z"/><path fill="url(#paint4_linear_2058_147010)" fill-opacity=".2" d="M1151.5 121L1206.5 68L1199 64L1191 60L1130 113L1151.5 121Z"/><path fill="url(#paint5_linear_2058_147010)" fill-opacity=".2" d="M1113 115L1168.5 62L1160 59L1154 60L1106.5 96L1113 115Z"/><path fill="url(#paint6_linear_2058_147010)" fill-opacity=".2" d="M1119.5 115L1175 61.5L1168 62.5L1117 108L1119.5 115Z"/><path fill="url(#paint7_linear_2058_147010)" d="M918.733 106.175L1017.54 154.033L991.346 281.294L954.434 297.25L932.064 291.494L910.805 311.086L892.173 320.579L874.095 335.829L858.795 349.211H613.891L568.747 333.759L503.406 308.359L434.126 300.028L407.111 304.875L402.465 313.207H356.059L339.446 304.875L324.197 294.271H249.816L191.847 313.207L169.68 308.561L139.18 294.271L116.154 286.646L95.0974 273.568L83.7358 277.86L33.8966 273.568L8.24475 282.001L-14.6298 268.619L-35.8885 282.001L-54.4709 278.719L-80.0723 273.063H-88.0001L-47.5026 248.573L-17.4071 244.482L-6.19708 232.767L42.2283 205.752L60.6088 193.532L70.809 181.262L116.154 164.447L140.645 150.661H150.34L159.53 140.461L230.88 106.326L256.381 100.216L287.49 95.3258L318.087 100.216L331.872 91.3793H350.707L375.197 79.3108L389.28 83.9632L405.798 86.9357H419.078L427.208 79.3108H447.103L458.876 70.2334L480.228 67.0404L511.901 65.9724L537.844 49.7203L550.114 39.5202L562.559 35.6721L570.515 26.7953L600.56 22.7051L624.04 12L665 20.5L686.128 29.0439L745.886 55.3253H775.477L796.44 62.1848L817.287 63.5057L833.093 79.3108L870.813 91.3793H892.173L918.733 106.175Z"/><path fill="url(#paint8_linear_2058_147010)" fill-opacity=".2" d="M870.5 91L839 81L709.5 177.5L734.5 160L870.5 91Z"/><path fill="url(#paint9_linear_2058_147010)" fill-opacity=".2" d="M715.5 42.5L746 54L608.573 125.499L572.5 153.5L598 131L608.573 125.499L715.5 42.5Z"/><path fill="url(#paint10_linear_2058_147010)" fill-opacity=".2" d="M481 67.5L512.5 66.5L392.25 129.062L339 166L364.5 143.5L392.25 129.062L481 67.5Z"/><path fill="url(#paint11_linear_2058_147010)" fill-opacity=".2" d="M388 88L419.5 87L299.25 149.562L246 186.5L271.5 164L299.25 149.562L388 88Z"/><path fill="url(#paint12_linear_2058_147010)" fill-opacity=".2" d="M332 91.5L352.5 91L251.823 143.379L179 190.5L204.5 168L251.823 143.379L332 91.5Z"/><path fill="url(#paint13_linear_2058_147010)" fill-opacity=".2" d="M796.5 61.5L774.5 55L685.5 112.5V115L796.5 61.5Z"/><path fill="url(#paint14_linear_2058_147010)" fill-opacity=".2" d="M631 14L665 20.5L538.935 90.6449L529.5 98.5L536.5 92L538.935 90.6449L631 14Z"/><path fill="url(#paint15_linear_2058_147010)" fill-opacity=".2" d="M601.5 22.5L571 27.5L562.5 36L507.5 73L601.5 22.5Z"/><path fill="url(#paint16_linear_2058_147010)" d="M-212.314 153.779L-289 167.004V338.721L-250.017 355.573L-226.393 349.494L-203.941 370.185L-184.263 380.211L-165.172 396.316L-149.013 410.448H109.629L157.305 394.129L226.312 367.305L299.478 358.506L328.009 363.626L332.915 372.425H381.924L399.469 363.626L415.574 352.427H494.127L555.347 372.425L578.759 367.519L610.969 352.427L635.287 344.374L657.525 330.562L669.523 335.095L722.159 330.562L749.249 339.468L773.407 325.336L795.858 339.468L815.483 336.002L842.521 330.029H850.893L808.124 304.165L776.34 299.845L764.501 287.473L713.359 258.942L693.948 246.037L683.175 233.078L635.287 215.32L609.422 200.761H599.183L589.478 189.989L488.5 154L478.5 149L454 150.5L422.027 147.486L414 144.5L407.468 138.153L399.5 135.5L389 137.5L373 133.461L361.712 125.408L345 127L329.395 133.461H315.37L306.784 125.408L288.5 125L276.5 115H263.5L250.789 112.449L235.5 103L220 97L189.942 94.1576L176.983 83.3852L165.5 79L155.438 69.9465H140L123.708 65.6269L98.9103 54.3213L67.5 59.5L32 60.5L1 77L-29.771 100.077H-61.0214L-105.177 108.716L-121.869 125.408L-161.705 138.153H-184.263L-212.314 153.779Z"/><path fill="url(#paint17_linear_2058_147010)" d="M165.409 182.487L118 198.645H1094.98L1084.84 188.886L1042.71 164.515L981.066 151.983L948.5 151.823L922.5 140.624L901 132.625H871.5H845L823.747 124.146L803.856 127.612L782.5 123.346L758.633 127.612L731.489 118.226L677.894 123.346L665.949 118.759L643.657 132.625L619.446 140.624L587.129 155.769H571.5L544.147 154.276L533 140.624H456.5L407.786 151.93L390.294 160.622H341.286L336.38 151.823L307.849 146.704L234.682 155.503L165.409 182.487Z"/><path fill="url(#paint18_linear_2058_147010)" d="M1143.94 146.48L1095 161.03H2405.05L2295.68 122.38L2178.83 87.8943L2111.69 105.72L1921.52 71.8178L1902.28 55.8245L1851.34 51.0765L1782.98 35H1731.35L1695.99 42.0803H1641.31L1562.94 55.8245L1527.7 64.6778L1495.9 84.8956L1472.18 102.165L1416.44 107.632L1377.44 105.48L1345.94 116.98L1307.94 125.48L1233.94 146.48H1190.94L1171.94 142.98L1143.94 146.48Z"/><g filter="url(#filter0_f_2058_147010)"><line x1="-44.479" x2="330.521" y1="20.012" y2="2.011" stroke="#E47919" stroke-width="20"/></g><g filter="url(#filter1_f_2058_147010)"><line x1="-44.529" x2="125.471" y1="20.014" y2="11.014" stroke="#E47919" stroke-width="20"/></g><g filter="url(#filter2_f_2058_147010)"><line x1="743" x2="1322" y1="2" y2="2" stroke="#F59D4F" stroke-width="20"/></g><g filter="url(#filter3_f_2058_147010)"><line x1="108.224" x2="531.23" y1="53.03" y2="20.108" stroke="#F18C16" stroke-width="20"/></g><g filter="url(#filter4_f_2058_147010)"><line x1="183.879" x2="644.879" y1="11.063" y2="-40.937" stroke="#FFD5A3" stroke-width="20"/></g><g filter="url(#filter5_f_2058_147010)"><line x1="1072.22" x2="1433.22" y1="-14.39" y2="32.61" stroke="#fff" stroke-width="18.938"/></g><g filter="url(#filter6_f_2058_147010)"><line x1="1089.07" x2="1459.07" y1="-25.408" y2="16.592" stroke="#fff" stroke-width="18.938"/></g><path fill="url(#paint19_linear_2058_147010)" fill-opacity=".2" d="M-8.5 197L191 94.5L177 83.5L165 79L155.5 70H143.5L-36 148.5L-8.5 197Z"/></g><defs><filter id="filter0_f_2058_147010" width="455.959" height="117.977" x="-84.959" y="-47.977" color-interpolation-filters="sRGB" filterUnits="userSpaceOnUse"><feFlood flood-opacity="0" result="BackgroundImageFix"/><feBlend in="SourceGraphic" in2="BackgroundImageFix" mode="normal" result="shape"/><feGaussianBlur result="effect1_foregroundBlur_2058_147010" stdDeviation="20"/></filter><filter id="filter1_f_2058_147010" width="251.058" height="108.972" x="-85.058" y="-38.972" color-interpolation-filters="sRGB" filterUnits="userSpaceOnUse"><feFlood flood-opacity="0" result="BackgroundImageFix"/><feBlend in="SourceGraphic" in2="BackgroundImageFix" mode="normal" result="shape"/><feGaussianBlur result="effect1_foregroundBlur_2058_147010" stdDeviation="20"/></filter><filter id="filter2_f_2058_147010" width="699" height="140" x="683" y="-68" color-interpolation-filters="sRGB" filterUnits="userSpaceOnUse"><feFlood flood-opacity="0" result="BackgroundImageFix"/><feBlend in="SourceGraphic" in2="BackgroundImageFix" mode="normal" result="shape"/><feGaussianBlur result="effect1_foregroundBlur_2058_147010" stdDeviation="30"/></filter><filter id="filter3_f_2058_147010" width="504.558" height="132.862" x="67.448" y="-29.862" color-interpolation-filters="sRGB" filterUnits="userSpaceOnUse"><feFlood flood-opacity="0" result="BackgroundImageFix"/><feBlend in="SourceGraphic" in2="BackgroundImageFix" mode="normal" result="shape"/><feGaussianBlur result="effect1_foregroundBlur_2058_147010" stdDeviation="20"/></filter><filter id="filter4_f_2058_147010" width="583.242" height="191.874" x="122.758" y="-110.874" color-interpolation-filters="sRGB" filterUnits="userSpaceOnUse"><feFlood flood-opacity="0" result="BackgroundImageFix"/><feBlend in="SourceGraphic" in2="BackgroundImageFix" mode="normal" result="shape"/><feGaussianBlur result="effect1_foregroundBlur_2058_147010" stdDeviation="30"/></filter><filter id="filter5_f_2058_147010" width="477.071" height="179.405" x="1014.19" y="-80.592" color-interpolation-filters="sRGB" filterUnits="userSpaceOnUse"><feFlood flood-opacity="0" result="BackgroundImageFix"/><feBlend in="SourceGraphic" in2="BackgroundImageFix" mode="normal" result="shape"/><feGaussianBlur result="effect1_foregroundBlur_2058_147010" stdDeviation="28.407"/></filter><filter id="filter6_f_2058_147010" width="485.762" height="174.443" x="1031.19" y="-91.63" color-interpolation-filters="sRGB" filterUnits="userSpaceOnUse"><feFlood flood-opacity="0" result="BackgroundImageFix"/><feBlend in="SourceGraphic" in2="BackgroundImageFix" mode="normal" result="shape"/><feGaussianBlur result="effect1_foregroundBlur_2058_147010" stdDeviation="28.407"/></filter><linearGradient id="paint0_linear_2058_147010" x1="0" x2="1452" y1="77" y2="77" gradientUnits="userSpaceOnUse"><stop stop-color="#FDBA35"/><stop offset="1" stop-color="#FDD143"/></linearGradient><linearGradient id="paint1_linear_2058_147010" x1="686.336" x2="686.228" y1="83.827" y2="241.143" gradientUnits="userSpaceOnUse"><stop stop-color="#E07C13"/><stop offset="1" stop-color="#F9CF49"/></linearGradient><linearGradient id="paint2_linear_2058_147010" x1="1214" x2="1201" y1="101.5" y2="91.5" gradientUnits="userSpaceOnUse"><stop stop-color="#F9BA42"/><stop offset="1" stop-color="#E18017"/></linearGradient><linearGradient id="paint3_linear_2058_147010" x1="1285" x2="1272" y1="116" y2="106" gradientUnits="userSpaceOnUse"><stop stop-color="#F9BA42"/><stop offset="1" stop-color="#E18017"/></linearGradient><linearGradient id="paint4_linear_2058_147010" x1="1181" x2="1168" y1="101" y2="91" gradientUnits="userSpaceOnUse"><stop stop-color="#F9BA42"/><stop offset="1" stop-color="#E18017"/></linearGradient><linearGradient id="paint5_linear_2058_147010" x1="1145" x2="1132" y1="92" y2="82" gradientUnits="userSpaceOnUse"><stop stop-color="#F9BA42"/><stop offset="1" stop-color="#E18017"/></linearGradient><linearGradient id="paint6_linear_2058_147010" x1="1151.5" x2="1138.5" y1="92" y2="82" gradientUnits="userSpaceOnUse"><stop stop-color="#F9BA42"/><stop offset="1" stop-color="#E18017"/></linearGradient><linearGradient id="paint7_linear_2058_147010" x1="472.5" x2="465" y1="-109.5" y2="193" gradientUnits="userSpaceOnUse"><stop stop-color="#762E00"/><stop offset="1" stop-color="#DD7C1E"/></linearGradient><linearGradient id="paint8_linear_2058_147010" x1="835.5" x2="814.5" y1="124.5" y2="95.5" gradientUnits="userSpaceOnUse"><stop stop-color="#F9BA42"/><stop offset="1" stop-color="#B76013"/></linearGradient><linearGradient id="paint9_linear_2058_147010" x1="706.5" x2="678.5" y1="103.5" y2="64.5" gradientUnits="userSpaceOnUse"><stop stop-color="#F9BA42"/><stop offset="1" stop-color="#AA5811"/></linearGradient><linearGradient id="paint10_linear_2058_147010" x1="473" x2="452.5" y1="116" y2="81.5" gradientUnits="userSpaceOnUse"><stop stop-color="#F9BA42"/><stop offset="1" stop-color="#B75F13"/></linearGradient><linearGradient id="paint11_linear_2058_147010" x1="380" x2="359.5" y1="136.5" y2="102" gradientUnits="userSpaceOnUse"><stop stop-color="#F9BA42"/><stop offset="1" stop-color="#B75F13"/></linearGradient><linearGradient id="paint12_linear_2058_147010" x1="313" x2="292.5" y1="140.5" y2="106" gradientUnits="userSpaceOnUse"><stop stop-color="#F9BA42"/><stop offset="1" stop-color="#B75F13"/></linearGradient><linearGradient id="paint13_linear_2058_147010" x1="757" x2="729" y1="111" y2="72" gradientUnits="userSpaceOnUse"><stop stop-color="#F9BA42"/><stop offset="1" stop-color="#AA5811"/></linearGradient><linearGradient id="paint14_linear_2058_147010" x1="599" x2="580" y1="85" y2="59.5" gradientUnits="userSpaceOnUse"><stop stop-color="#F9BA42"/><stop offset="1" stop-color="#B15B13"/></linearGradient><linearGradient id="paint15_linear_2058_147010" x1="535.5" x2="520.5" y1="87" y2="57.5" gradientUnits="userSpaceOnUse"><stop stop-color="#F9BA42"/><stop offset="1" stop-color="#B15B13"/></linearGradient><linearGradient id="paint16_linear_2058_147010" x1="280.947" x2="280.947" y1="54.321" y2="410.448" gradientUnits="userSpaceOnUse"><stop stop-color="#763A0D"/><stop offset="1" stop-color="#F19032"/></linearGradient><linearGradient id="paint17_linear_2058_147010" x1="606.488" x2="606.488" y1="113" y2="201.449" gradientUnits="userSpaceOnUse"><stop stop-color="#42240D"/><stop offset=".94" stop-color="#A55B1C"/></linearGradient><linearGradient id="paint18_linear_2058_147010" x1="1750.28" x2="1750.28" y1="50.671" y2="213.158" gradientUnits="userSpaceOnUse"><stop offset=".2" stop-color="#41230C"/><stop offset="1" stop-color="#D47E3B"/></linearGradient><linearGradient id="paint19_linear_2058_147010" x1="103" x2="82" y1="141.5" y2="90.5" gradientUnits="userSpaceOnUse"><stop stop-color="#AF7507"/><stop offset="1" stop-color="#834513"/></linearGradient><clipPath id="clip0_2058_147010"><rect width="1452" height="154" fill="#fff"/></clipPath></defs></svg>