<svg width="239" height="158" viewBox="0 0 239 158" fill="none" xmlns="http://www.w3.org/2000/svg">
  <g clip-path="url(#clip0_1684_201127)">
    <rect width="239" height="158" fill="var(--background)" />
    <g filter="url(#filter0_d_1684_201127)">
      <g clip-path="url(#clip1_1684_201127)">
        <rect x="29" y="20" width="179.076" height="118.479" rx="4.52213" fill="var(--background)" />
        <rect x="35.3301" y="38.2625" width="10.0882" height="55.2832" rx="2.01764"
          fill="var(--N100)" />
        <rect width="34.7033" height="3.22822" transform="matrix(0 -1 1 0 38.5576 83.0542)"
          fill="var(--background)" />
        <rect x="46.6299" y="38.2622" width="10.0882" height="27.0363" rx="2.01764"
          fill="var(--N50)" />
        <rect width="18.5623" height="3.22822" transform="matrix(0 -1 1 0 49.8594 60.8599)"
          fill="var(--N100)" />
        <rect x="58.2012" y="38.2273" width="143.544" height="27.2491" rx="2.01764"
          fill="var(--N50)" />
        <rect x="137.079" y="43.802" width="28.2469" height="15.6075" rx="2.01764"
          fill="var(--background)" />
        <rect width="18.9658" height="3.22822" transform="translate(141.921 47.4336)"
          fill="var(--N200)" />
        <rect width="21.3869" height="3.22822" transform="translate(140.71 52.2764)"
          fill="var(--N200)" />
        <rect x="88.6914" y="43.802" width="28.0371" height="15.8274" rx="2.01764"
          fill="var(--background)" />
        <rect width="22.3707" height="3.1215" transform="translate(91.5156 49.855)"
          fill="var(--N200)" />
        <circle cx="69.4727" cy="51.7159" r="3.61379" fill="var(--background)" stroke="var(--P100)"
          stroke-width="0.460022" />
        <path d="M87.561 51.4897H74.2207" stroke="var(--N300)" stroke-width="0.678319" />
        <circle cx="185.93" cy="51.7056" r="3.52683" fill="var(--background)" stroke="var(--P300)"
          stroke-width="0.613362" />
        <path d="M180.796 51.689H166.472" stroke="var(--N300)" stroke-width="0.678319" />
        <rect x="46.6299" y="66.5093" width="10.0882" height="27.0363" rx="2.01764"
          fill="var(--N50)" />
        <rect width="18.5623" height="3.22822" transform="matrix(0 -1 1 0 49.8594 89.1069)"
          fill="var(--N100)" />
        <rect x="58.2002" y="66.4497" width="143.544" height="27.2491" rx="2.01764"
          fill="var(--N50)" />
        <rect x="88.2383" y="72.2915" width="28.2469" height="15.6075" rx="2.01764"
          fill="var(--background)" />
        <rect width="17.7552" height="3.22822" transform="translate(93.4844 78.3442)"
          fill="var(--N200)" />
        <path d="M144.539 79.979H118.085" stroke="var(--N300)" stroke-width="0.678319" />
        <rect width="8.59856" height="8.59856" transform="translate(145.478 80.1802) rotate(-45)"
          fill="var(--background)" />
        <path d="M149.952 81.7197L153.097 78.575" stroke="var(--N400)" stroke-width="0.362851"
          stroke-linecap="round" />
        <path d="M149.952 78.5752L153.097 81.7199" stroke="var(--N400)" stroke-width="0.362851"
          stroke-linecap="round" />
        <path d="M102.711 68.6125V57.0811" stroke="var(--N300)" stroke-width="0.678319" />
        <path d="M151.55 70.1952V57.0811" stroke="var(--N300)" stroke-width="0.678319" />
        <rect x="35.3301" y="96.2827" width="21.4802" height="27.3384" rx="2.01764"
          fill="var(--N50)" />
        <rect width="18.5623" height="3.22822" transform="matrix(0 -1 1 0 49.624 118.88)"
          fill="var(--N100)" />
        <rect x="58.2002" y="96.3721" width="143.544" height="27.2491" rx="2.01764"
          fill="var(--N50)" />
        <rect x="137.53" y="102.137" width="28.2469" height="15.7376" rx="2.01764"
          fill="var(--background)" />
        <rect width="12.6619" height="2.71327" transform="translate(145.157 108.375)"
          fill="var(--N200)" />
        <circle cx="185.93" cy="110.041" r="3.52683" fill="var(--background)" stroke="var(--P300)"
          stroke-width="0.613362" />
        <path d="M180.796 110.024H166.472" stroke="var(--N300)" stroke-width="0.605292" />
        <path d="M151.55 98.4586V83.7617" stroke="var(--N300)" stroke-width="0.678319" />
        <rect width="180.139" height="7.68367" transform="translate(28.4297 20.0798)"
          fill="var(--N100)" />
        <circle cx="33.1988" cy="23.9955" r="0.92734" fill="var(--N400)" />
        <circle cx="36.1139" cy="23.9955" r="0.92734" fill="var(--N400)" />
        <circle cx="39.0279" cy="23.9955" r="0.92734" fill="var(--N400)" />
      </g>
    </g>
  </g>
  <defs>
    <filter id="filter0_d_1684_201127" x="21.8" y="18.8" width="193.476" height="132.879"
      filterUnits="userSpaceOnUse" color-interpolation-filters="sRGB">
      <feFlood flood-opacity="0" result="BackgroundImageFix" />
      <feColorMatrix in="SourceAlpha" type="matrix"
        values="0 0 0 0 0 0 0 0 0 0 0 0 0 0 0 0 0 0 127 0" result="hardAlpha" />
      <feOffset dy="6" />
      <feGaussianBlur stdDeviation="3.6" />
      <feComposite in2="hardAlpha" operator="out" />
      <feColorMatrix type="matrix" values="0 0 0 0 0 0 0 0 0 0 0 0 0 0 0 0 0 0 0.1 0" />
      <feBlend mode="normal" in2="BackgroundImageFix" result="effect1_dropShadow_1684_201127" />
      <feBlend mode="normal" in="SourceGraphic" in2="effect1_dropShadow_1684_201127" result="shape" />
    </filter>
    <clipPath id="clip0_1684_201127">
      <rect width="239" height="158" fill="var(--background)" />
    </clipPath>
    <clipPath id="clip1_1684_201127">
      <rect x="29" y="20" width="179.076" height="118.479" rx="4.52213" fill="var(--background)" />
    </clipPath>
  </defs>
</svg>