<svg width="239" height="158" viewBox="0 0 239 158" fill="none" xmlns="http://www.w3.org/2000/svg">
  <g clip-path="url(#clip0_1684_201600)">
    <rect width="239" height="158" fill="var(--background)" />
    <g filter="url(#filter0_d_1684_201600)">
      <g clip-path="url(#clip1_1684_201600)">
        <rect x="29.4307" y="23.5068" width="180.139" height="111.413" rx="4.26871"
          fill="var(--background)" />
        <rect width="180.139" height="7.68367" transform="translate(29.4307 23.5068)"
          fill="var(--N100)" />
        <circle cx="34.1998" cy="27.4225" r="0.92734" fill="var(--N400)" />
        <circle cx="37.1139" cy="27.4225" r="0.92734" fill="var(--N400)" />
        <circle cx="40.0289" cy="27.4225" r="0.92734" fill="var(--N400)" />
        <rect width="90.0697" height="103.73" transform="translate(119.5 31.1904)" fill="var(--N50)" />
        <rect width="18.0901" height="1.84593" transform="translate(125.477 40.9165)"
          fill="var(--background)" />
        <g clip-path="url(#clip2_1684_201600)">
          <rect width="9.96801" height="1.84593" transform="translate(125.477 47.5615)"
            fill="var(--N200)" />
          <rect width="5.72238" height="1.84593" transform="translate(143.382 47.5615)"
            fill="var(--N200)" />
          <rect width="30.6424" height="1.84593" transform="translate(150.396 47.5615)"
            fill="var(--background)" />
          <rect width="4.984" height="1.84593" transform="translate(136.736 47.5615)"
            fill="var(--N400)" />
        </g>
        <g clip-path="url(#clip3_1684_201600)">
          <g clip-path="url(#clip4_1684_201600)">
            <rect width="9.96801" height="1.84593" transform="translate(125.477 50.8843)"
              fill="var(--N200)" />
            <rect width="9.96801" height="1.84593" transform="translate(125.477 50.8843)"
              fill="var(--N200)" />
          </g>
          <rect width="9.41423" height="1.84593" transform="translate(136.736 50.8843)"
            fill="var(--N400)" />
          <rect width="5.72238" height="1.84593" transform="translate(147.442 50.8843)"
            fill="var(--N200)" />
          <rect width="49.84" height="1.84593" transform="translate(154.457 50.8843)"
            fill="var(--background)" />
        </g>
        <g clip-path="url(#clip5_1684_201600)">
          <rect width="9.96801" height="1.84593" transform="translate(125.477 54.207)"
            fill="var(--N200)" />
          <rect width="19.0131" height="1.84593" transform="translate(136.736 54.207)"
            fill="var(--N400)" />
          <rect width="5.72238" height="1.84593" transform="translate(157.042 54.207)"
            fill="var(--N200)" />
          <rect width="40.2412" height="1.84593" transform="translate(164.056 54.207)"
            fill="var(--background)" />
        </g>
        <g clip-path="url(#clip6_1684_201600)">
          <rect width="9.96801" height="1.84593" transform="translate(125.477 57.3911)"
            fill="var(--N200)" />
          <rect width="67.561" height="1.84593" transform="translate(136.736 57.3911)"
            fill="var(--N400)" />
        </g>
        <g clip-path="url(#clip7_1684_201600)">
          <rect width="9.96801" height="1.84593" transform="translate(125.477 60.7139)"
            fill="var(--N200)" />
          <rect width="12.9215" height="1.84593" transform="translate(136.736 60.7139)"
            fill="var(--N400)" />
          <rect width="5.72238" height="1.84593" transform="translate(150.95 60.7139)"
            fill="var(--N200)" />
          <rect width="46.3328" height="1.84593" transform="translate(157.965 60.7139)"
            fill="var(--background)" />
        </g>
        <g clip-path="url(#clip8_1684_201600)">
          <rect width="9.96801" height="1.84593" transform="translate(125.477 67.3594)"
            fill="var(--N200)" />
          <rect width="67.561" height="1.84593" transform="translate(136.736 67.3594)"
            fill="var(--N400)" />
        </g>
        <g clip-path="url(#clip9_1684_201600)">
          <rect width="9.96801" height="1.84593" transform="translate(125.477 70.9702)"
            fill="var(--N200)" />
          <rect width="12.5523" height="1.84593" transform="translate(136.736 70.9702)"
            fill="var(--N400)" />
          <rect width="5.72238" height="1.84593" transform="translate(150.581 70.9702)"
            fill="var(--N200)" />
          <rect width="46.702" height="1.84593" transform="translate(157.596 70.9702)"
            fill="var(--background)" />
        </g>
        <g clip-path="url(#clip10_1684_201600)">
          <rect width="9.96801" height="1.84593" transform="translate(125.477 74.1548)"
            fill="var(--N200)" />
          <rect width="12.5523" height="1.84593" transform="translate(136.736 74.1548)"
            fill="var(--N400)" />
          <rect width="5.72238" height="1.84593" transform="translate(150.581 74.1548)"
            fill="var(--N200)" />
          <rect width="46.702" height="1.84593" transform="translate(157.596 74.1548)"
            fill="var(--background)" />
        </g>
        <g clip-path="url(#clip11_1684_201600)">
          <rect width="9.96801" height="1.84593" transform="translate(125.477 77.3389)"
            fill="var(--N200)" />
          <rect width="67.561" height="1.84593" transform="translate(136.736 77.3389)"
            fill="var(--N400)" />
        </g>
        <g clip-path="url(#clip12_1684_201600)">
          <rect width="9.96801" height="1.84593" transform="translate(125.477 83.9844)"
            fill="var(--N200)" />
          <rect width="7.7529" height="1.84593" transform="translate(136.736 83.9844)"
            fill="var(--N400)" />
          <rect width="5.72238" height="1.84593" transform="translate(145.781 83.9844)"
            fill="var(--N200)" />
          <rect width="51.5014" height="1.84593" transform="translate(152.796 83.9844)"
            fill="var(--background)" />
        </g>
        <g clip-path="url(#clip13_1684_201600)">
          <rect width="9.96801" height="1.84593" transform="translate(125.477 87.3071)"
            fill="var(--N200)" />
          <rect width="12.5523" height="1.84593" transform="translate(136.736 87.3071)"
            fill="var(--N400)" />
          <rect width="5.72238" height="1.84593" transform="translate(150.581 87.3071)"
            fill="var(--N200)" />
          <rect width="46.702" height="1.84593" transform="translate(157.596 87.3071)"
            fill="var(--background)" />
        </g>
        <g clip-path="url(#clip14_1684_201600)">
          <rect width="9.96801" height="1.84593" transform="translate(125.477 90.4912)"
            fill="var(--N200)" />
          <rect width="12.5523" height="1.84593" transform="translate(136.736 90.4912)"
            fill="var(--N400)" />
          <rect width="5.72238" height="1.84593" transform="translate(150.581 90.4912)"
            fill="var(--N200)" />
          <rect width="46.702" height="1.84593" transform="translate(157.596 90.4912)"
            fill="var(--background)" />
        </g>
        <g clip-path="url(#clip15_1684_201600)">
          <rect width="9.96801" height="1.84593" transform="translate(125.477 93.6753)"
            fill="var(--N200)" />
          <rect width="67.561" height="1.84593" transform="translate(136.736 93.6753)"
            fill="var(--N400)" />
        </g>
        <rect x="123.555" y="65.5538" width="81.9592" height="15.7942" rx="1.92092"
          stroke="var(--N400)"
          stroke-width="0.426871" />
        <g clip-path="url(#clip16_1684_201600)">
          <path d="M192.716 121.696L190.15 124.262L192.716 126.827" stroke="var(--N400)"
            stroke-width="0.962142" stroke-linecap="round" stroke-linejoin="round" />
          <path d="M199.131 121.696L201.697 124.262L199.131 126.827" stroke="var(--N400)"
            stroke-width="0.962142" stroke-linecap="round" stroke-linejoin="round" />
          <path d="M197.206 119.13L194.641 129.393" stroke="var(--N400)" stroke-width="0.962142"
            stroke-linecap="round" stroke-linejoin="round" />
        </g>
        <rect width="12.8061" height="2.13435" transform="translate(37.1143 58.5103)"
          fill="var(--N200)" />
        <rect x="37.1143" y="62.7788" width="75.1293" height="6.40306" rx="1.28061"
          fill="var(--N75)" />
        <rect width="33.7228" height="2.13435" transform="translate(40.1016 64.9131)"
          fill="var(--N300)" />
        <rect width="12.8061" height="2.13435" transform="translate(37.1143 73.8774)"
          fill="var(--N200)" />
        <rect x="37.1143" y="78.146" width="75.1293" height="6.40306" rx="1.28061" fill="var(--P50)" />
        <rect width="33.7228" height="2.13435" transform="translate(40.1016 80.2803)"
          fill="var(--P300)" />
        <rect width="12.8061" height="2.13435" transform="translate(37.1143 89.2451)"
          fill="var(--N200)" />
        <rect x="37.1143" y="93.5137" width="75.1293" height="6.40306" rx="1.28061"
          fill="var(--N75)" />
        <rect width="33.7228" height="2.13435" transform="translate(40.1016 95.6479)"
          fill="var(--N300)" />
      </g>
    </g>
  </g>
  <defs>
    <filter id="filter0_d_1684_201600" x="22.2307" y="22.3068" width="194.54" height="125.813"
      filterUnits="userSpaceOnUse" color-interpolation-filters="sRGB">
      <feFlood flood-opacity="0" result="BackgroundImageFix" />
      <feColorMatrix in="SourceAlpha" type="matrix"
        values="0 0 0 0 0 0 0 0 0 0 0 0 0 0 0 0 0 0 127 0" result="hardAlpha" />
      <feOffset dy="6" />
      <feGaussianBlur stdDeviation="3.6" />
      <feComposite in2="hardAlpha" operator="out" />
      <feColorMatrix type="matrix" values="0 0 0 0 0 0 0 0 0 0 0 0 0 0 0 0 0 0 0.1 0" />
      <feBlend mode="normal" in2="BackgroundImageFix" result="effect1_dropShadow_1684_201600" />
      <feBlend mode="normal" in="SourceGraphic" in2="effect1_dropShadow_1684_201600" result="shape" />
    </filter>
    <clipPath id="clip0_1684_201600">
      <rect width="239" height="158" fill="var(--background)" />
    </clipPath>
    <clipPath id="clip1_1684_201600">
      <rect x="29.4307" y="23.5068" width="180.139" height="111.413" rx="4.26871"
        fill="var(--background)" />
    </clipPath>
    <clipPath id="clip2_1684_201600">
      <rect width="55.5624" height="1.84593" fill="var(--background)"
        transform="translate(125.477 47.5615)" />
    </clipPath>
    <clipPath id="clip3_1684_201600">
      <rect width="72.1758" height="1.84593" fill="var(--background)"
        transform="translate(125.477 50.8843)" />
    </clipPath>
    <clipPath id="clip4_1684_201600">
      <rect width="9.96801" height="1.84593" fill="var(--background)"
        transform="translate(125.477 50.8843)" />
    </clipPath>
    <clipPath id="clip5_1684_201600">
      <rect width="62.75" height="1.70748" fill="var(--background)"
        transform="translate(125.477 54.207)" />
    </clipPath>
    <clipPath id="clip6_1684_201600">
      <rect width="76.606" height="1.84593" fill="var(--background)"
        transform="translate(125.477 57.3911)" />
    </clipPath>
    <clipPath id="clip7_1684_201600">
      <rect width="76.606" height="1.84593" fill="var(--background)"
        transform="translate(125.477 60.7139)" />
    </clipPath>
    <clipPath id="clip8_1684_201600">
      <rect width="53.3588" height="2.13435" fill="var(--background)"
        transform="translate(125.477 67.3594)" />
    </clipPath>
    <clipPath id="clip9_1684_201600">
      <rect width="69.5799" height="1.70748" fill="var(--background)"
        transform="translate(125.477 70.9702)" />
    </clipPath>
    <clipPath id="clip10_1684_201600">
      <rect width="61.0425" height="1.70748" fill="var(--background)"
        transform="translate(125.477 74.1548)" />
    </clipPath>
    <clipPath id="clip11_1684_201600">
      <rect width="76.606" height="1.84593" fill="var(--background)"
        transform="translate(125.477 77.3389)" />
    </clipPath>
    <clipPath id="clip12_1684_201600">
      <rect width="76.606" height="1.84593" fill="var(--background)"
        transform="translate(125.477 83.9844)" />
    </clipPath>
    <clipPath id="clip13_1684_201600">
      <rect width="41.4065" height="1.70748" fill="var(--background)"
        transform="translate(125.477 87.3071)" />
    </clipPath>
    <clipPath id="clip14_1684_201600">
      <rect width="68.2993" height="1.70748" fill="var(--background)"
        transform="translate(125.477 90.4912)" />
    </clipPath>
    <clipPath id="clip15_1684_201600">
      <rect width="54.2126" height="2.13435" fill="var(--background)"
        transform="translate(125.477 93.6753)" />
    </clipPath>
    <clipPath id="clip16_1684_201600">
      <rect width="15.3943" height="15.3943" fill="var(--background)"
        transform="translate(188.227 116.564)" />
    </clipPath>
  </defs>
</svg>